<svg width="40" height="40" viewBox="0 0 40 40" fill="none" xmlns="http://www.w3.org/2000/svg">
<path d="M29.1603 39.1082C29.1557 39.3597 29.0677 39.6024 28.9105 39.7977C28.7344 39.9454 28.5075 40.0169 28.2793 39.9966C28.1528 40.0072 28.0256 39.9889 27.9072 39.943C27.7888 39.8971 27.6822 39.8247 27.5955 39.7314C27.4168 39.4708 27.3248 39.1597 27.3325 38.843L27.1878 36.2705V36.0716C27.1581 35.8017 27.2336 35.5307 27.3982 35.3158C27.4881 35.2329 27.5942 35.17 27.7097 35.1311C27.8253 35.0923 27.9476 35.0784 28.0689 35.0904C28.5072 35.0904 28.8228 35.4086 29.0157 36.0451C29.0821 36.2938 29.1656 36.5374 29.2655 36.7744C29.5308 37.2979 29.961 37.7177 30.4885 37.9678C31.1083 38.2641 31.7885 38.4095 32.4742 38.3921C33.2944 38.4298 34.1038 38.192 34.7755 37.7159C35.0519 37.5209 35.2768 37.2607 35.4303 36.9579C35.5839 36.655 35.6616 36.3189 35.6566 35.9788C35.67 35.7194 35.6289 35.4601 35.536 35.2179C35.4431 34.9757 35.3004 34.756 35.1174 34.5732C34.6716 34.1812 34.1151 33.9401 33.5262 33.8837L31.8956 33.6583C30.6981 33.5699 29.5475 33.1526 28.5686 32.4516C28.2186 32.1433 27.943 31.7585 27.7629 31.3264C27.5829 30.8944 27.5031 30.4266 27.5297 29.9587C27.5246 29.4067 27.648 28.8611 27.8901 28.366C28.1322 27.8708 28.4862 27.4398 28.9236 27.1078C29.9069 26.3171 31.1385 25.9079 32.3953 25.9542C32.8384 25.9541 33.2799 26.0075 33.7103 26.1133C34.2257 26.2448 34.731 26.4132 35.2226 26.6172C35.2217 26.5334 35.2375 26.4503 35.2691 26.3728C35.3008 26.2954 35.3476 26.2251 35.4067 26.1663C35.5654 26.0721 35.7493 26.0304 35.9327 26.047C36.1657 26.027 36.3993 26.0778 36.6034 26.1928C36.7597 26.3878 36.8434 26.6317 36.8401 26.8824L36.9848 29.2029V29.309C36.9931 29.4198 36.9787 29.5311 36.9425 29.636C36.9063 29.741 36.8491 29.8373 36.7744 29.9189C36.6043 30.0693 36.382 30.1456 36.1563 30.1311C35.7618 30.1311 35.4593 29.8659 35.2489 29.309C35.1726 29.069 35.0712 28.8378 34.9465 28.6194C34.6872 28.2343 34.3213 27.9346 33.8944 27.7575C33.4028 27.553 32.8744 27.4537 32.3427 27.4658C31.5692 27.427 30.8065 27.6615 30.1861 28.1288C29.921 28.3311 29.7075 28.5942 29.5634 28.8963C29.4194 29.1984 29.3488 29.5308 29.3576 29.8659C29.3488 30.1205 29.4003 30.3736 29.5078 30.6042C29.6152 30.8348 29.7756 31.0362 29.9757 31.1919C30.541 31.571 31.1926 31.7991 31.8693 31.8549L33.6314 32.0671C34.6898 32.1488 35.6965 32.5614 36.5114 33.2472C36.8383 33.5731 37.0939 33.9646 37.2615 34.3962C37.4291 34.8279 37.5051 35.2903 37.4845 35.7534C37.5103 36.3215 37.405 36.8878 37.1768 37.4078C36.9486 37.9279 36.6037 38.3874 36.1695 38.7502C35.113 39.5434 33.8161 39.9418 32.5005 39.8773C31.9693 39.8744 31.4401 39.8122 30.9225 39.6916C30.3187 39.5518 29.7288 39.3566 29.1603 39.1082Z" fill="#1D1D1B"/>
<path d="M10.3686 27.9299C9.85101 27.2967 9.19707 26.7908 8.45649 26.4508C7.71591 26.1107 6.90818 25.9454 6.09471 25.9674C5.27556 25.9409 4.46105 26.1013 3.71192 26.4365C2.9628 26.7717 2.2984 27.2731 1.76827 27.9034C0.626122 29.3082 0.036366 31.0875 0.111343 32.9025C0.0407424 34.7172 0.640541 36.4939 1.79458 37.8883C2.32774 38.5 2.98413 38.9901 3.71997 39.3258C4.45581 39.6615 5.25418 39.8352 6.06184 39.8352C6.86951 39.8352 7.66788 39.6615 8.40372 39.3258C9.13956 38.9901 9.79595 38.5 10.3291 37.8883C11.4854 36.4951 12.0855 34.7176 12.0123 32.9025C12.0919 31.0972 11.5064 29.326 10.3686 27.9299ZM9.05353 36.854C8.70631 37.2957 8.26457 37.6526 7.76131 37.8979C7.25805 38.1432 6.7063 38.2706 6.14732 38.2706C5.58834 38.2706 5.0366 38.1432 4.53333 37.8979C4.03007 37.6526 3.58831 37.2957 3.2411 36.854C2.47468 35.6768 2.10571 34.2816 2.18909 32.8759C2.09898 31.4696 2.4685 30.0723 3.2411 28.8979C3.58685 28.454 4.02811 28.095 4.53157 27.8482C5.03502 27.6014 5.58752 27.4731 6.14732 27.4731C6.70713 27.4731 7.25962 27.6014 7.76308 27.8482C8.26653 28.095 8.70778 28.454 9.05353 28.8979C9.83165 30.0702 10.2059 31.468 10.1187 32.8759C10.1895 34.2898 9.79671 35.6877 9.00094 36.854H9.05353Z" fill="#1D1D1B"/>
<path d="M30.1203 11.5935H30.8699C31.1794 11.569 31.4894 11.6333 31.7641 11.7791C31.8552 11.8442 31.9275 11.9325 31.9737 12.035C32.0199 12.1375 32.0384 12.2505 32.0271 12.3626C32.0383 12.4767 32.024 12.5919 31.9853 12.6997C31.9466 12.8075 31.8845 12.9053 31.8035 12.9858C31.5372 13.1277 31.2354 13.1876 30.9356 13.1582H27.2272C27.1246 13.1652 27.0215 13.1512 26.9244 13.117C26.8272 13.0828 26.7378 13.0292 26.6618 12.9593C26.591 12.8781 26.5372 12.7835 26.5033 12.681C26.4694 12.5786 26.4562 12.4703 26.4645 12.3626C26.4706 12.2599 26.4998 12.1599 26.5499 12.0703C26.6 11.9806 26.6698 11.9037 26.7538 11.8454C26.9676 11.7038 27.2222 11.6384 27.4771 11.6598H28.4765V1.50254H27.8322C27.4696 1.53518 27.1046 1.48065 26.767 1.34342C26.6807 1.27526 26.6135 1.18562 26.572 1.08332C26.5305 0.981016 26.5161 0.869577 26.5303 0.759973C26.5183 0.553318 26.584 0.3497 26.7144 0.189789C26.8776 0.0574649 27.0839 -0.00872698 27.293 0.00414793H31.9351C32.7796 -0.0159934 33.6244 0.0372435 34.4599 0.163269C34.9581 0.248297 35.4331 0.438046 35.8538 0.720193C36.3497 1.05436 36.7526 1.51082 37.0242 2.0462C37.3019 2.59182 37.4462 3.19651 37.445 3.8098C37.4603 4.61021 37.1843 5.38853 36.6691 5.99771C36.1054 6.66263 35.3448 7.12745 34.4994 7.32372C34.6887 7.43023 34.8616 7.56426 35.0122 7.72153C35.1802 7.8775 35.3262 8.05596 35.4462 8.25193L37.6686 11.6598H38.0236C38.3188 11.638 38.6143 11.6975 38.8784 11.8322C38.9581 11.908 39.0196 12.0012 39.0583 12.1046C39.097 12.2079 39.112 12.3188 39.102 12.4289C39.1168 12.644 39.0511 12.8569 38.9179 13.0256C38.8418 13.0955 38.7525 13.1491 38.6553 13.1833C38.5581 13.2175 38.4551 13.2315 38.3524 13.2245H37.0374C36.6823 13.2245 36.3273 12.9593 35.9853 12.4289C35.947 12.397 35.9118 12.3615 35.8801 12.3228L33.7629 9.08732C33.4859 8.58702 33.1256 8.13849 32.6978 7.76131C32.3609 7.55746 31.9727 7.45616 31.58 7.46958H30.1203V11.5935ZM30.1203 1.50254V5.98445H32.3953C33.2052 6.04343 34.0135 5.84894 34.7098 5.42753C34.9676 5.23695 35.1738 4.98406 35.3094 4.6921C35.445 4.40015 35.5056 4.0785 35.4856 3.75676C35.5093 3.43401 35.4518 3.11046 35.3185 2.81608C35.1852 2.5217 34.9803 2.26602 34.7229 2.07272C34.049 1.64328 33.2561 1.44341 32.4611 1.50254H30.1203Z" fill="#1D1D1B"/>
<path d="M1.46582 13.1714H0.952962C0.84615 13.1798 0.738742 13.1665 0.637106 13.1324C0.53547 13.0982 0.441649 13.0438 0.361182 12.9725C0.286112 12.8938 0.228527 12.7999 0.192249 12.697C0.15597 12.5941 0.141844 12.4846 0.150793 12.3758C0.13684 12.2643 0.151243 12.151 0.19265 12.0466C0.234057 11.9422 0.301098 11.8502 0.387488 11.7791C0.727277 11.6327 1.09778 11.5734 1.46582 11.6067H2.17593V1.59536H1.46582C1.10328 1.62801 0.738234 1.57347 0.400652 1.43624C0.309614 1.35962 0.239043 1.26123 0.195399 1.15005C0.151755 1.03887 0.136425 0.918445 0.150793 0.799754C0.140069 0.690803 0.153365 0.580809 0.18974 0.47765C0.226116 0.37449 0.284654 0.280718 0.361182 0.203049C0.533275 0.0574223 0.75531 -0.0140303 0.979248 0.00414793H10.5658C10.6707 -0.00192002 10.7755 0.0151014 10.8732 0.0540294C10.9708 0.0929573 11.0589 0.152858 11.1313 0.229569C11.269 0.421418 11.3343 0.656518 11.3154 0.892574V3.54459C11.3395 3.82383 11.2848 4.10426 11.1576 4.35346C11.0811 4.43141 10.9882 4.49096 10.8857 4.52769C10.7833 4.56442 10.6739 4.57739 10.5658 4.56562C10.4494 4.57938 10.3313 4.5649 10.2215 4.52339C10.1117 4.48187 10.0134 4.41452 9.93462 4.32694C9.78985 3.97952 9.73117 3.60177 9.76365 3.22635V1.59536H3.91178V5.33471H6.7917V4.75126C6.78575 4.44686 6.86801 4.14732 7.02839 3.88936C7.09566 3.80973 7.18099 3.74765 7.27715 3.70841C7.3733 3.66916 7.47744 3.65391 7.5807 3.66394C7.68295 3.65236 7.78638 3.66981 7.87932 3.71432C7.97226 3.75884 8.05102 3.82865 8.10672 3.91588C8.24321 4.25153 8.29734 4.61543 8.26452 4.97669V7.07178C8.30059 7.43312 8.24634 7.79782 8.10672 8.13259C8.0424 8.21646 7.95791 8.2824 7.86126 8.32417C7.76461 8.36593 7.65899 8.38215 7.55439 8.37127C7.4489 8.38251 7.34241 8.3636 7.24707 8.31671C7.15173 8.26981 7.0714 8.19682 7.01525 8.10607C6.88339 7.77843 6.82934 7.42423 6.85743 7.07178V6.68724H3.97751V11.5935H9.82941V9.80336C9.79692 9.42794 9.85559 9.0502 10.0004 8.70277C10.0791 8.61519 10.1775 8.54784 10.2873 8.50633C10.3971 8.46481 10.5151 8.45033 10.6316 8.46409C10.739 8.44954 10.8484 8.46257 10.9495 8.50198C11.0507 8.54138 11.1403 8.60588 11.2102 8.68951C11.3529 8.95255 11.4125 9.25327 11.3811 9.55142V12.3493C11.3957 12.5706 11.325 12.7891 11.1839 12.9593C11.1098 13.0282 11.0227 13.0813 10.9278 13.1154C10.8329 13.1496 10.7322 13.1642 10.6316 13.1582L1.46582 13.1714Z" fill="#1D1D1B"/>
</svg>
