<svg width="76" height="48" viewBox="0 0 76 48" fill="none" xmlns="http://www.w3.org/2000/svg">
<path d="M1.64553 3.61635L0.171329 22.1497C0.0828641 23.3766 0.0828641 24.6084 0.171329 25.8354L1.64553 44.3687C1.71199 45.218 2.08963 46.011 2.70386 46.5909C3.31808 47.1707 4.12417 47.4952 4.96249 47.5H7.43914C8.27646 47.4918 9.08056 47.1662 9.69408 46.587C10.3076 46.0078 10.6864 45.2167 10.7561 44.3687L12.2303 25.8354C12.2303 25.6256 12.2303 25.4158 12.2303 25.2061H23.3753C23.7143 25.3409 24.2155 26.7043 24.4662 27.3636C25.0853 29.0266 25.8667 31.0942 27.7979 31.0942C29.7291 31.0942 30.5104 29.0266 31.1296 27.3636C31.3802 26.7193 31.8814 25.3409 32.2057 25.2211C32.4844 25.2115 32.7616 25.2657 33.0168 25.3799C33.272 25.494 33.4986 25.665 33.6799 25.8803C34.467 26.6675 35.5241 27.1133 36.6283 27.1238C38.6627 27.1238 39.3113 24.5319 40.0042 21.7901C40.255 20.6637 40.5701 19.5532 40.9477 18.464C41.4539 19.8581 41.8291 21.2979 42.0681 22.7639C42.8052 26.3597 43.3654 29.1914 45.4588 29.1914C47.2573 29.1914 48.0976 27.6932 48.7168 26.5845C49.336 25.4758 49.5276 25.2211 49.8814 25.2211C50.2352 25.2211 50.7069 26.7193 50.9575 27.2886C51.5914 28.9068 52.358 30.9294 54.2892 30.9294C56.2205 30.9294 56.987 28.9068 57.6062 27.3036C57.8568 26.6594 58.3728 25.3259 58.6971 25.2211C59.0214 25.1162 59.3311 25.6256 59.8618 26.5845C60.3925 27.5434 61.3359 29.1914 63.1197 29.1914C64.9035 29.1914 65.7585 27.6932 66.363 26.5845C66.9674 25.4758 67.1886 25.2211 67.5277 25.2211C67.8667 25.2211 68.1468 25.6256 68.6922 26.5845C69.2377 27.5434 70.1665 29.1914 71.9503 29.1914C72.6483 29.1253 73.3141 28.8614 73.8718 28.4297C74.4296 27.9979 74.8568 27.4157 75.105 26.7493H71.9503C71.5964 26.7493 71.3163 26.3448 70.7856 25.3859C70.2549 24.427 69.3114 22.7789 67.5277 22.7789C65.7439 22.7789 64.8888 24.2772 64.2696 25.3859C63.6505 26.4946 63.4588 26.7493 63.1197 26.7493C62.7806 26.7493 62.4858 26.3448 61.9551 25.3859C61.4244 24.427 60.4809 22.7789 58.6971 22.7789C56.9133 22.7789 55.9993 24.7866 55.3801 26.4047C55.1295 27.0489 54.6136 28.3674 54.2892 28.4872C53.9649 28.3674 53.449 26.989 53.1984 26.4047C52.5644 24.7866 51.7978 22.7789 49.8666 22.7789C47.9354 22.7789 47.2278 24.2772 46.6234 25.3859C46.1811 26.1799 45.901 26.5845 45.6357 26.7193C45.0588 25.2751 44.653 23.7662 44.4268 22.2246C43.7045 18.6438 43.1295 15.8121 41.0362 15.8121C38.9428 15.8121 38.3532 18.3891 37.675 21.1309C37.4298 22.3369 37.0845 23.5198 36.6431 24.6667C36.3634 24.6734 36.0858 24.6163 35.8307 24.4997C35.5756 24.383 35.3494 24.2097 35.1689 23.9925C34.3812 23.2081 33.3233 22.7673 32.2205 22.7639C30.2893 22.7639 29.5227 24.8315 28.9035 26.4796C28.6529 27.1388 28.1369 28.5022 27.8273 28.6371C27.4882 28.5022 26.9723 27.1388 26.7216 26.4796C26.1025 24.8165 25.3359 22.7639 23.4047 22.7639H12.2303C12.2303 22.5542 12.2303 22.3444 12.2303 22.1497L10.7561 3.61635C10.6829 2.77097 10.3027 1.98356 9.68949 1.40748C9.07633 0.831394 8.27413 0.507898 7.43914 0.5H4.96249C4.12651 0.504505 3.3224 0.826851 2.70853 1.40359C2.09466 1.98034 1.71549 2.76971 1.64553 3.61635ZM7.43914 2.92716C7.67065 2.93015 7.8927 3.02093 8.06179 3.18168C8.23087 3.34243 8.33478 3.56157 8.35314 3.79614L9.82734 22.3295C9.91581 23.4363 9.91581 24.5487 9.82734 25.6556L8.35314 44.1889C8.33478 44.4234 8.23087 44.6426 8.06179 44.8033C7.8927 44.9641 7.67065 45.0549 7.43914 45.0579H4.96249C4.73097 45.0549 4.50883 44.9641 4.33975 44.8033C4.17067 44.6426 4.06685 44.4234 4.04849 44.1889L2.57429 25.6556C2.57429 25.1012 2.5005 24.5469 2.5005 23.9925C2.5005 23.4382 2.50058 22.8838 2.57429 22.3295L4.04849 3.79614C4.06685 3.56157 4.17067 3.34243 4.33975 3.18168C4.50883 3.02093 4.73097 2.93015 4.96249 2.92716H7.43914Z" fill="#1D1D1B"/>
</svg>
