<svg width="85" height="37" viewBox="0 0 85 37" fill="none" xmlns="http://www.w3.org/2000/svg">
<path d="M0 30.5074C1.64 30.4374 1.92 29.9774 1.92 29.0274V15.7274C1.92 14.7274 1.64 14.3074 0 14.2374V13.7074H7.92V14.2374C6.23 14.3074 5.98 14.7674 5.98 15.7274V30.3574H6.46C9.69 30.3574 10.37 28.8474 12.36 24.2774H13.05L12.84 31.0274H0V30.5074Z" fill="#1D1D1B"/>
<path d="M25.13 24.4574H27.96C28.18 21.7874 27.78 19.7174 26.7 19.7174C25.62 19.7174 25.16 21.4774 25.13 24.4874M21.37 25.3474C21.37 21.5574 23.59 19.0574 26.8 19.0574C30.01 19.0574 31.72 21.7574 31.54 25.1174H25.13V25.1674C25.13 28.3674 26.27 30.0374 28.13 30.0374C28.7709 29.9702 29.3808 29.7274 29.8925 29.3357C30.4042 28.9439 30.7979 28.4186 31.03 27.8174L31.51 28.0974C31.1358 29.0332 30.4923 29.8369 29.6609 30.4066C28.8295 30.9762 27.8478 31.2863 26.84 31.2974C23.41 31.2974 21.34 28.9774 21.34 25.3474" fill="#1D1D1B"/>
<path d="M40.52 25.1874C40.52 22.2374 39.87 20.4974 38.52 20.4974C37.9607 20.5777 37.4511 20.8628 37.09 21.2974V28.8974C37.57 30.0274 38.09 30.5374 38.78 30.5374C40.06 30.5374 40.54 28.5974 40.54 25.1874M33.48 29.1274V15.0274C33.48 14.2474 33.33 13.7874 31.99 13.7674V13.2874L37.09 13.0874V20.5774C37.4776 20.1108 37.9595 19.7314 38.5042 19.4643C39.0488 19.1972 39.6437 19.0483 40.25 19.0274C42.97 19.0274 44.31 21.5474 44.31 24.7574C44.31 28.3574 42.39 31.2174 39.13 31.2174C37.876 31.2117 36.6566 30.8053 35.65 30.0574L33.96 31.4374H33.41L33.48 29.1274Z" fill="#1D1D1B"/>
<path d="M45.16 30.5574C46.35 30.5074 46.58 30.3074 46.58 29.5574V15.0274C46.58 14.2474 46.43 13.7874 45.11 13.7674V13.2874L50.19 13.0874V29.6074C50.19 30.3074 50.41 30.5074 51.63 30.6074V31.0274H45.16V30.5574Z" fill="#1D1D1B"/>
<path d="M59.45 30.5574C60.61 30.5074 60.83 30.3074 60.83 29.5574V21.1974C60.83 20.4474 60.68 19.9174 59.45 19.8874V19.4074L64.45 19.2074V21.3974C64.8577 20.7489 65.4123 20.2055 66.069 19.8112C66.7257 19.4168 67.466 19.1826 68.23 19.1274C70.15 19.1274 70.96 20.3374 70.96 22.4074V29.6074C70.96 30.3074 71.19 30.5074 72.35 30.6074V31.0274H66.35V30.5474C67.03 30.5474 67.35 30.3274 67.35 29.5474V22.5474C67.35 21.5474 67.02 20.9874 66.21 20.9874C65.8522 21.0194 65.5074 21.1369 65.2045 21.3301C64.9017 21.5233 64.6498 21.7864 64.47 22.0974V29.5674C64.47 30.2974 64.83 30.4974 65.47 30.5674V31.0274H59.47L59.45 30.5574Z" fill="#1D1D1B"/>
<path d="M79.3 23.0274C79.3 20.8574 78.88 19.7474 77.82 19.7474C76.76 19.7474 76.48 20.7474 76.48 23.0274C76.48 25.3074 76.91 26.3074 77.97 26.3074C79.03 26.3074 79.3 25.3074 79.3 23.0274ZM81.15 33.1474C81.15 32.2374 80.67 31.6574 78.45 31.6574H75.57C75.2889 31.8232 75.0567 32.0604 74.8969 32.3449C74.737 32.6294 74.6553 32.9511 74.66 33.2774C74.66 34.6874 75.87 35.3974 77.92 35.3974C79.97 35.3974 81.15 34.5874 81.15 33.1474ZM80.09 19.4774C80.64 18.3174 81.4 17.3274 82.64 17.3274C82.8308 17.3067 83.0238 17.3279 83.2056 17.3894C83.3873 17.451 83.5535 17.5514 83.6925 17.6837C83.8315 17.816 83.9399 17.9771 84.0103 18.1556C84.0807 18.3341 84.1113 18.5259 84.1 18.7174C84.1153 18.8832 84.0959 19.0503 84.0431 19.2081C83.9903 19.366 83.9052 19.5111 83.7933 19.6343C83.6814 19.7575 83.5451 19.8561 83.393 19.9237C83.2409 19.9914 83.0764 20.0267 82.91 20.0274C82.21 20.0274 81.73 19.3974 81.73 18.5674C81.2464 18.8126 80.8565 19.2095 80.62 19.6974C81.2321 19.9956 81.7459 20.4631 82.1004 21.0445C82.4549 21.6258 82.6352 22.2967 82.62 22.9774C82.62 25.3074 80.62 26.9174 77.85 26.9174C77.2965 26.9318 76.7439 26.8644 76.21 26.7174C75.47 27.0674 75.21 27.3974 75.21 27.8274C75.21 28.2574 75.59 28.6574 77.21 28.6574H79.21C82.04 28.6574 83.35 29.7174 83.35 31.8174C83.35 33.9174 81.05 36.0274 77.35 36.0274C74.45 36.0274 72.56 35.0274 72.56 33.5574C72.56 32.5574 73.47 31.8374 75.03 31.4874V31.3874C74.5295 31.227 74.0925 30.9123 73.7818 30.4884C73.471 30.0644 73.3024 29.553 73.3 29.0274C73.3 28.0274 74.03 27.1574 75.42 26.4474C74.7315 26.1864 74.1421 25.7161 73.7349 25.1026C73.3277 24.489 73.1231 23.7633 73.15 23.0274C73.15 20.7074 75.15 19.0274 77.92 19.0274C78.6587 19.0207 79.393 19.1425 80.09 19.3874" fill="#1D1D1B"/>
<path d="M52.22 30.5574C53.4 30.5074 53.71 30.3074 53.71 29.5574V21.1474C53.71 20.3674 53.48 19.9174 52.22 19.8874V19.4074L57.32 19.2074V29.6074C57.32 30.3074 57.52 30.5074 58.73 30.6074V31.0274H52.22V30.5574Z" fill="#1D1D1B"/>
<path d="M13.98 30.5574C15.16 30.5074 15.47 30.3074 15.47 29.5574V21.1474C15.47 20.3674 15.24 19.9174 13.98 19.8874V19.4074L19.08 19.2074V29.6074C19.08 30.3074 19.28 30.5074 20.49 30.6074V31.0274H13.98V30.5574Z" fill="#1D1D1B"/>
<path d="M18.38 10.2974C18.412 10.3228 18.4498 10.34 18.49 10.3474L20.34 10.4074C20.67 10.4074 20.78 10.5674 20.77 10.8974C20.76 11.2274 20.77 11.4774 20.77 11.7674C20.77 12.4874 20.7 13.2174 20.71 13.9374C20.71 14.1074 20.78 14.2774 20.77 14.4374C20.7521 14.6035 20.7187 14.7676 20.67 14.9274C20.6655 14.9639 20.6655 15.0009 20.67 15.0374C20.67 15.4374 20.72 15.8374 20.73 16.2374C20.7242 16.442 20.7581 16.6458 20.83 16.8374C20.8474 16.8826 20.8555 16.9309 20.8538 16.9793C20.852 17.0278 20.8406 17.0754 20.82 17.1192C20.7995 17.1631 20.7703 17.2024 20.7342 17.2348C20.6981 17.2671 20.6559 17.2918 20.61 17.3074C20.4718 17.3615 20.3182 17.3615 20.18 17.3074C20.0517 17.2776 19.9183 17.2776 19.79 17.3074L18.08 17.4074C17.5978 17.3985 17.1167 17.4557 16.65 17.5774C16.5904 17.5873 16.5296 17.5873 16.47 17.5774C16.134 17.5541 15.7964 17.5845 15.47 17.6674C14.9782 17.8002 14.4766 17.8938 13.97 17.9474C13.8002 17.968 13.6328 18.0049 13.47 18.0574L13.31 18.0274C13.2489 18.0005 13.1978 17.9553 13.1637 17.8979C13.1296 17.8405 13.1144 17.7739 13.12 17.7074C13.12 16.7074 13.02 15.7674 13.06 14.7974C13.0617 13.6704 12.9882 12.5446 12.84 11.4274C12.8448 11.3675 12.8448 11.3073 12.84 11.2474C12.823 11.1989 12.816 11.1474 12.8194 11.0961C12.8229 11.0448 12.8367 10.9947 12.8601 10.9489C12.8834 10.9031 12.9159 10.8625 12.9554 10.8296C12.9949 10.7967 13.0407 10.7721 13.09 10.7574C13.1857 10.738 13.2843 10.738 13.38 10.7574C13.5721 10.7728 13.7653 10.7524 13.95 10.6974C14.17 10.6974 14.41 10.6374 14.63 10.6174H14.85L14.91 10.5574C14.8893 10.5316 14.8658 10.5082 14.84 10.4874C14.5092 10.2648 14.201 10.0103 13.92 9.72742C13.5907 9.43761 13.3658 9.04759 13.28 8.61742C13.26 8.49408 13.2811 8.3676 13.34 8.25742C13.3959 8.11863 13.4799 7.99284 13.5865 7.8879C13.6932 7.78295 13.8203 7.70109 13.96 7.64742C14.2699 7.49541 14.6203 7.44636 14.96 7.50742C15.3125 7.5152 15.6551 7.62519 15.9462 7.82402C16.2374 8.02284 16.4645 8.30195 16.6 8.62742C16.6 8.68742 16.67 8.74742 16.72 8.83742L16.86 8.65742C16.9852 8.41054 17.1433 8.18178 17.33 7.97742C17.4815 7.82816 17.6612 7.71061 17.8587 7.63163C18.0561 7.55264 18.2674 7.51382 18.48 7.51742C18.6461 7.49721 18.814 7.49721 18.98 7.51742C19.148 7.57174 19.3035 7.65896 19.4374 7.77399C19.5713 7.88902 19.681 8.02956 19.76 8.18742C19.7686 8.23032 19.7686 8.27451 19.76 8.31742C19.8159 8.59295 19.8023 8.87808 19.7202 9.14699C19.6381 9.41589 19.4903 9.66008 19.29 9.85742C19.1812 9.95041 19.0556 10.0217 18.92 10.0674L18.42 10.2774L18.38 10.2974ZM20.09 10.8974C19.1286 10.8486 18.1648 10.8854 17.21 11.0074C17.1749 11.1486 17.1749 11.2962 17.21 11.4374C17.2593 11.7683 17.2793 12.103 17.27 12.4374C17.27 12.6174 17.27 12.8074 17.27 12.9874C17.27 13.1674 17.32 13.2274 17.54 13.2274C17.7931 13.2124 18.0469 13.2124 18.3 13.2274C18.8794 13.2672 19.4616 13.2268 20.03 13.1074C20.03 13.1074 20.03 13.1074 20.08 13.1074C20.1554 12.3728 20.1588 11.6326 20.09 10.8974ZM16.51 11.0274C16.4368 11.0223 16.3633 11.0223 16.29 11.0274C16.15 11.0274 16.1 11.1074 16.1 11.2474C16.09 11.2969 16.09 11.3479 16.1 11.3974C16.22 12.0974 16.18 12.8174 16.31 13.5174V13.5974C16.3115 13.642 16.3036 13.6864 16.2869 13.7278C16.2702 13.7692 16.2451 13.8066 16.2131 13.8377C16.181 13.8688 16.1429 13.8928 16.101 13.9082C16.0592 13.9237 16.0145 13.9302 15.97 13.9274C15.8739 13.9123 15.7761 13.9123 15.68 13.9274C15.4747 14.0021 15.2585 14.0426 15.04 14.0474L14.39 14.1174C14.1342 14.1331 13.885 14.2048 13.66 14.3274C13.6 14.4852 13.6 14.6596 13.66 14.8174C13.9978 14.836 14.3362 14.7954 14.66 14.6974C14.751 14.6679 14.8449 14.6478 14.94 14.6374C15.2545 14.6079 15.5638 14.5373 15.86 14.4274H16C16.0348 14.4168 16.0714 14.4133 16.1075 14.4172C16.1437 14.4211 16.1787 14.4322 16.2105 14.45C16.2422 14.4677 16.2701 14.4917 16.2923 14.5205C16.3146 14.5492 16.3308 14.5822 16.34 14.6174C16.3505 14.7004 16.3505 14.7844 16.34 14.8674C16.34 15.1074 16.34 15.3474 16.42 15.5874C16.4837 16.042 16.5977 16.4881 16.76 16.9174L16.87 17.0374C16.9385 16.8314 16.9657 16.6139 16.95 16.3974C16.95 16.1774 16.95 15.9574 16.95 15.7374C16.955 15.3532 16.9349 14.969 16.89 14.5874C16.8701 14.5325 16.8701 14.4723 16.89 14.4174C16.9371 14.3551 16.9974 14.304 17.0665 14.2677C17.1357 14.2314 17.212 14.2108 17.29 14.2074C17.4449 14.2037 17.5996 14.2205 17.75 14.2574C18.1554 14.3338 18.5698 14.3507 18.98 14.3074L19.74 14.2474H19.97C19.9739 14.1741 19.9739 14.1007 19.97 14.0274C19.97 13.8974 19.9 13.8074 19.77 13.8374C19.49 13.8374 19.22 13.8374 18.94 13.8374C18.66 13.8374 18.38 13.8374 18.1 13.8374C17.7314 13.7925 17.3586 13.7925 16.99 13.8374C16.71 13.9174 16.49 13.6474 16.52 13.3474C16.5412 13.0144 16.5412 12.6804 16.52 12.3474C16.52 11.9974 16.52 11.6474 16.44 11.2974C16.4705 11.2094 16.4939 11.1191 16.51 11.0274ZM20.05 14.7074L18.05 14.7874C17.905 14.7787 17.7611 14.8173 17.64 14.8974C17.5654 15.1674 17.545 15.4495 17.58 15.7274C17.571 16.1315 17.6319 16.5341 17.76 16.9174C18.5474 16.9858 19.3406 16.9284 20.11 16.7474C20.11 16.6574 20.11 16.5774 20.11 16.4974C20.11 15.8674 20.08 15.2774 20.05 14.6674V14.7074ZM15.51 13.5274C15.6104 13.3769 15.6595 13.1981 15.65 13.0174L15.53 11.2774C15.53 11.2074 15.53 11.1474 15.53 11.0874C14.8259 11.0064 14.1125 11.0956 13.45 11.3474C13.51 12.1274 13.59 12.9174 13.69 13.7174C14.2999 13.6897 14.9076 13.6263 15.51 13.5274ZM13.64 15.4474C13.6274 16.1162 13.6676 16.7849 13.76 17.4474C14.0247 17.5227 14.3053 17.5227 14.57 17.4474L15.13 17.3174L16.01 17.1074C16.07 16.8881 16.07 16.6567 16.01 16.4374C15.948 16.1669 15.9012 15.8932 15.87 15.6174C15.8794 15.5343 15.8794 15.4505 15.87 15.3674C15.81 15.1474 15.67 15.0574 15.47 15.1474C15.1695 15.2459 14.8561 15.2998 14.54 15.3074C14.2337 15.2944 13.9279 15.342 13.64 15.4474ZM18.88 9.44742H18.97C19.0831 9.30992 19.1628 9.14802 19.2027 8.97449C19.2426 8.80096 19.2417 8.62053 19.2 8.44742C19.1674 8.32993 19.1037 8.22338 19.0157 8.13893C18.9278 8.05448 18.8187 7.99524 18.7 7.96742C18.5173 7.92624 18.3266 7.93722 18.1498 7.9991C17.973 8.06098 17.8172 8.17127 17.7 8.31742C17.7 8.31742 17.7 8.37742 17.7 8.41742H17.78C18.01 8.41742 18.23 8.41742 18.46 8.41742C18.69 8.41742 18.81 8.53742 18.87 8.79742C18.9177 8.97087 18.9177 9.15397 18.87 9.32742C18.8633 9.37426 18.8667 9.42201 18.88 9.46742V9.44742ZM14.59 9.44742L14.64 9.38742C14.5236 9.27201 14.4197 9.14464 14.33 9.00742C14.275 8.83845 14.275 8.65639 14.33 8.48742C14.59 8.25742 14.66 8.14742 15.07 8.16742C15.2162 8.16788 15.3615 8.14423 15.5 8.09742C15.3 7.89742 15.28 7.88742 15.1 7.84742C14.8272 7.78239 14.5428 7.78239 14.27 7.84742C14.1999 7.86483 14.1344 7.89724 14.078 7.94241C14.0216 7.98758 13.9756 8.04444 13.9433 8.10907C13.911 8.1737 13.8931 8.24456 13.8908 8.31678C13.8885 8.389 13.9019 8.46087 13.93 8.52742C14.0402 8.91318 14.2716 9.25326 14.59 9.49742V9.44742ZM14.98 8.74742C15.1536 8.9607 15.3139 9.18446 15.46 9.41742C15.55 9.59742 15.7 9.64742 15.9 9.72742C15.8963 9.55889 15.858 9.39293 15.7875 9.23983C15.7169 9.08672 15.6157 8.94975 15.49 8.83742C15.4059 8.76929 15.3114 8.71525 15.21 8.67742C15.16 8.71742 15.09 8.76742 14.98 8.79742V8.74742ZM17.33 9.74742C17.6103 9.68098 17.873 9.55477 18.1 9.37742C18.1682 9.30623 18.2255 9.22536 18.27 9.13742C18.2886 9.10738 18.2984 9.07275 18.2984 9.03742C18.2984 9.00209 18.2886 8.96746 18.27 8.93742C18.2441 8.91352 18.2102 8.90025 18.175 8.90025C18.1398 8.90025 18.1059 8.91352 18.08 8.93742C17.9983 8.96473 17.9233 9.00904 17.86 9.06742C17.6432 9.27893 17.464 9.52578 17.33 9.79742V9.74742Z" fill="#1D1D1B"/>
<path d="M61.96 2.10742C61.7615 2.26323 61.5115 2.33824 61.26 2.31742C61.0281 2.00592 60.8429 1.66231 60.71 1.29742C60.693 1.2173 60.6524 1.14413 60.5934 1.08732C60.5344 1.03051 60.4597 0.992668 60.379 0.97868C60.2983 0.964692 60.2152 0.975195 60.1406 1.00883C60.0659 1.04247 60.003 1.09771 59.96 1.16742C59.8763 1.26245 59.8088 1.37055 59.76 1.48742C59.7462 1.53405 59.7234 1.57751 59.6928 1.61532C59.6623 1.65313 59.6245 1.68454 59.5818 1.70776C59.5391 1.73098 59.4922 1.74555 59.4439 1.75064C59.3955 1.75573 59.3466 1.75123 59.3 1.73742C59.0215 1.69906 58.747 1.63546 58.48 1.54742C58.3231 1.50294 58.1569 1.50294 58 1.54742C57.9609 1.54782 57.9225 1.55777 57.8882 1.57639C57.8538 1.59501 57.8245 1.62175 57.8028 1.65428C57.7811 1.6868 57.7677 1.72413 57.7637 1.76302C57.7598 1.80191 57.7654 1.84118 57.78 1.87742C57.8224 2.00049 57.8799 2.11883 57.9505 2.22825C58.1103 2.51797 58.2702 2.80769 58.44 3.09742C58.3079 3.4205 58.1366 3.72612 57.93 4.00742C57.8708 4.06732 57.8376 4.14817 57.8376 4.23242C57.8376 4.31666 57.8708 4.39751 57.93 4.45742C57.9801 4.52375 58.0482 4.57416 58.1263 4.60255C58.2044 4.63095 58.2891 4.63611 58.37 4.61742C58.5082 4.59081 58.6426 4.54714 58.77 4.48742C58.8414 4.44158 58.9268 4.42247 59.011 4.43345C59.0951 4.44442 59.1727 4.48479 59.23 4.54742C59.512 4.78996 59.7025 5.12165 59.77 5.48742C59.785 5.5397 59.785 5.59514 59.77 5.64742C59.6885 5.87564 59.5589 6.08368 59.39 6.25742C59.287 6.37116 59.1432 6.43948 58.99 6.44742C58.7836 6.46241 58.5764 6.46241 58.37 6.44742C57.6846 6.37003 56.9913 6.48789 56.37 6.78742C56.2327 6.84293 56.1095 6.92824 56.0092 7.03719C55.9089 7.14614 55.834 7.27601 55.79 7.41742C55.6396 7.84098 55.5389 8.2806 55.49 8.72742C55.4876 8.91926 55.4396 9.10778 55.35 9.27742C55.06 9.28742 54.76 9.05742 54.51 9.37742C54.5066 9.83245 54.4731 10.2868 54.41 10.7374C54.29 10.8074 54.2 10.8074 54.12 10.8074C53.8304 10.9043 53.5465 11.0178 53.27 11.1474C52.7794 11.4094 52.3762 11.8091 52.11 12.2974C51.9644 12.5244 51.85 12.7699 51.77 13.0274C51.67 13.4313 51.67 13.8535 51.77 14.2574C51.8912 14.8213 52.0619 15.3735 52.28 15.9074C52.4857 16.4093 52.8608 16.8233 53.34 17.0774C53.5466 17.204 53.779 17.2826 54.02 17.3074C54.0959 17.3098 54.1706 17.3268 54.24 17.3574C54.5968 17.4986 54.9764 17.5731 55.36 17.5774C55.4989 17.6021 55.6411 17.6021 55.78 17.5774C56.2401 17.5259 56.6783 17.3534 57.05 17.0774C57.25 16.9074 57.46 16.7674 57.67 16.6074C58.2043 16.2208 58.578 15.6514 58.72 15.0074C58.7952 14.5908 58.8453 14.17 58.87 13.7474C58.8789 13.671 58.8789 13.5938 58.87 13.5174C58.81 13.3174 58.75 13.0974 58.67 12.8974C58.6097 12.7152 58.5221 12.5432 58.41 12.3874C58.1269 11.936 57.7913 11.5197 57.41 11.1474C57.3332 11.0764 57.266 10.9957 57.21 10.9074C57.2949 10.6887 57.2949 10.4461 57.21 10.2274C57.2004 10.1143 57.2004 10.0005 57.21 9.88742C57.19 9.54742 57.11 9.46742 56.77 9.41742L56.28 9.35742V8.44742C56.3394 8.05247 56.5014 7.68004 56.75 7.36742C56.8026 7.29854 56.8713 7.2436 56.95 7.20742C57.3597 7.0085 57.8221 6.94544 58.27 7.02742C58.6122 7.09599 58.9628 7.11285 59.31 7.07742C59.4905 7.06922 59.6615 6.9944 59.79 6.86742L59.94 6.74742C60.0271 6.70711 60.1029 6.64581 60.1605 6.56902C60.2181 6.49223 60.2557 6.40234 60.27 6.30742C60.34 6.06742 60.43 5.83742 60.49 5.60742C60.5373 5.44018 60.6197 5.28497 60.7318 5.15217C60.8439 5.01938 60.9831 4.91206 61.14 4.83742C61.22 4.89742 61.28 4.96742 61.36 5.01742C61.5299 5.14899 61.7105 5.26607 61.9 5.36742C61.9583 5.3947 62.0227 5.40588 62.0868 5.39979C62.1508 5.3937 62.212 5.37057 62.2641 5.3328C62.3162 5.29503 62.3572 5.244 62.3828 5.18502C62.4085 5.12603 62.4179 5.06126 62.41 4.99742C62.4195 4.94786 62.4195 4.89697 62.41 4.84742C62.33 4.53742 62.24 4.22742 62.15 3.91742C62.1209 3.83387 62.1102 3.74498 62.1189 3.65691C62.1275 3.56885 62.1552 3.48371 62.2 3.40742C62.3078 3.18699 62.4014 2.95986 62.48 2.72742C62.5109 2.66666 62.5268 2.59944 62.5266 2.5313C62.5264 2.46316 62.51 2.39605 62.4787 2.3355C62.4475 2.27495 62.4023 2.22269 62.3469 2.18304C62.2915 2.14338 62.2274 2.11746 62.16 2.10742H61.96Z" fill="#1D1D1B"/>
</svg>
