<svg width="120" height="26" viewBox="0 0 120 26" fill="none" xmlns="http://www.w3.org/2000/svg">
<path d="M41.0359 6.35632C41.0906 7.01006 40.9744 7.66677 40.6987 8.26233C40.4231 8.8579 39.9973 9.37196 39.4631 9.75433C38.9981 10.0818 38.916 10.423 39.2443 10.9689C40.2427 12.5928 41.159 14.2714 42.1027 15.9362C42.5267 16.6595 42.3352 16.9597 41.4736 17.0553C41.1424 17.1248 40.7972 17.0787 40.496 16.9247C40.1947 16.7706 39.9557 16.518 39.8187 16.2092C39.0802 14.8445 38.2869 13.4799 37.48 12.1834C37.2178 11.7563 36.9106 11.3583 36.5637 10.9962C36.3995 10.8696 36.2754 10.6985 36.2061 10.5034C36.1368 10.3083 36.1253 10.0974 36.1729 9.89592C36.2205 9.69444 36.3252 9.5109 36.4745 9.36722C36.6238 9.22353 36.8115 9.12578 37.015 9.08564C37.3537 9.00149 37.6709 8.84719 37.946 8.63276C38.2211 8.41833 38.4479 8.14857 38.6117 7.84099C38.7755 7.53341 38.8727 7.1949 38.8968 6.84743C38.921 6.49996 38.8716 6.1513 38.7519 5.8241C38.6019 5.19929 38.2137 4.6574 37.6698 4.31344C37.126 3.96949 36.4691 3.85053 35.8388 3.98181C33.883 4.24109 33.8693 4.24109 34.1702 6.20621C34.3343 7.32523 34.5395 8.4579 34.6489 9.54963C34.7994 10.9143 35.1003 11.8696 35.2917 13.2206C35.4832 14.5716 35.6199 15.7179 35.8251 16.9461C35.9208 17.5602 35.702 17.8604 35.1002 17.9423C34.1565 18.0788 33.8693 17.9423 33.7326 17.26C33.418 15.5268 33.1308 13.7937 32.8436 12.0606C32.3922 9.33128 31.9546 6.60196 31.4759 3.87263C31.4374 3.76459 31.4248 3.64908 31.4389 3.53529C31.4531 3.42151 31.4936 3.31258 31.5573 3.21718C31.6211 3.12177 31.7063 3.04253 31.8061 2.98574C31.9059 2.92896 32.0177 2.8962 32.1324 2.89008C33.6471 2.5952 35.1765 2.38109 36.7141 2.24869C37.2813 2.17581 37.8577 2.23016 38.4011 2.40778C38.9446 2.58539 39.4415 2.88178 39.8556 3.27535C40.2697 3.66891 40.5905 4.14973 40.7947 4.68273C40.9989 5.21574 41.0813 5.7875 41.0359 6.35632Z" fill="#1D1D1B"/>
<path d="M68.8545 2.30327C67.5552 2.20775 67.4868 2.30328 67.3911 3.66794C67.309 6.69748 67.1996 9.71338 67.1039 12.7429C67.1039 13.5344 66.9945 14.3259 66.9397 15.1174C66.885 15.9089 66.4337 15.9226 65.8593 15.8953C65.2849 15.868 64.9019 15.636 64.9156 15.0356C64.9156 12.9476 65.0113 10.8733 65.0523 8.79906C65.0523 6.36996 65.1481 3.95451 65.2028 1.53906C65.2028 0.733914 65.4627 0.474629 66.2559 0.501922C67.5552 0.501922 68.8819 0.501922 70.1675 0.720268C71.371 0.801016 72.5105 1.29056 73.3963 2.10743C74.2822 2.9243 74.861 4.01923 75.0364 5.21C75.7372 8.03558 75.2898 11.023 73.7918 13.5208C73.3641 14.2318 72.7642 14.8243 72.0474 15.2439C71.3305 15.6636 70.5195 15.8969 69.6888 15.9226C69.5008 15.9145 69.3177 15.8606 69.1555 15.7654C68.9934 15.6702 68.8572 15.5367 68.7588 15.3767C68.7164 15.2687 68.6975 15.153 68.7034 15.0371C68.7092 14.9213 68.7396 14.808 68.7926 14.7048C68.8456 14.6016 68.92 14.5108 69.0109 14.4384C69.1017 14.366 69.2069 14.3137 69.3195 14.285C71.9865 13.6436 72.6977 11.5557 72.9986 9.22211C73.1355 8.11875 73.1078 7.00125 72.9165 5.90598C72.836 4.89856 72.3685 3.96115 71.6115 3.28974C70.8544 2.61832 69.8666 2.26487 68.8545 2.30327Z" fill="#1D1D1B"/>
<path d="M113.468 7.89839C114.188 7.87842 114.904 8.00036 115.576 8.25722C116.249 8.51408 116.864 8.90081 117.386 9.39524C117.908 9.88967 118.327 10.4821 118.62 11.1385C118.912 11.7949 119.071 12.5025 119.089 13.2206C119.171 14.8108 118.934 16.4013 118.391 17.8987C117.849 19.3962 117.012 20.7704 115.93 21.9407C115.273 22.7656 114.371 23.3608 113.353 23.6404C112.335 23.9201 111.255 23.8697 110.268 23.4965C109.322 23.143 108.502 22.5173 107.913 21.6985C107.324 20.8798 106.991 19.905 106.958 18.8976C106.717 16.5572 107.129 14.1959 108.148 12.0743C108.449 11.4056 108.873 11.3783 109.365 11.9514C109.639 12.2219 109.824 12.5685 109.897 12.9458C109.971 13.3232 109.928 13.7138 109.775 14.0667C109.029 15.7843 108.815 17.6852 109.16 19.5253C109.237 20.0065 109.429 20.4622 109.719 20.854C110.009 21.2459 110.39 21.5624 110.828 21.777C111.379 22.017 111.993 22.0696 112.577 21.9265C113.16 21.7834 113.68 21.4528 114.056 20.9855C115.535 19.3191 116.486 17.2538 116.791 15.0492C117.044 13.9572 116.977 12.8159 116.6 11.7604C116.461 11.3394 116.226 10.9564 115.914 10.6418C115.601 10.3272 115.219 10.0896 114.798 9.94787C114.378 9.80615 113.93 9.76421 113.49 9.82537C113.05 9.88653 112.63 10.0491 112.264 10.3002C112.014 10.5294 111.696 10.6708 111.357 10.7028C111.019 10.7348 110.68 10.6558 110.391 10.4776C109.762 10.0682 109.707 9.61786 110.295 9.11294C111.169 8.33558 112.297 7.90364 113.468 7.89839Z" fill="#1D1D1B"/>
<path d="M19.1258 8.03485C18.8249 8.03485 18.9617 9.64515 18.9754 10.3548C18.9754 13.6027 19.0574 16.8369 19.0985 20.0848C19.0985 21.1629 18.8796 21.4495 17.8265 21.6678C17.3341 21.777 17.0333 21.5586 17.0333 21.1083C17.0333 19.4298 17.0333 17.7649 17.0333 16.1C17.0333 14.4351 17.0333 12.3608 17.0333 10.5049C17.0333 9.22211 17.1153 7.93933 17.17 6.65654C17.1493 6.56214 17.1493 6.46437 17.17 6.36997C17.7034 5.42835 18.7155 5.56482 19.5498 5.38741C19.8233 5.38741 20.3567 5.70128 20.5345 6.01515C22.3535 9.37222 24.1315 12.7702 25.9231 16.1409C26.2787 16.8096 26.607 17.5056 26.9352 18.1606C27.154 18.5837 27.5096 19.0204 26.9352 19.4161C26.7903 19.5251 26.6251 19.6041 26.4492 19.6487C26.2733 19.6933 26.0903 19.7026 25.9108 19.6759C25.7314 19.6492 25.559 19.5872 25.4038 19.4934C25.2486 19.3996 25.1136 19.2759 25.0068 19.1295C24.5418 18.2835 24.1589 17.3964 23.7212 16.5367C22.3535 13.8074 21.1226 11.078 19.6182 8.4579C19.4267 8.0485 19.4267 8.0485 19.1258 8.03485Z" fill="#1D1D1B"/>
<path d="M52.3466 3.24489C52.1278 4.26839 51.8953 5.29188 51.6764 6.31538C51.102 9.0447 50.5322 11.774 49.9669 14.5033C49.9669 14.749 49.8985 15.1174 49.8438 15.3631C49.7891 15.6087 49.7207 16.1409 49.5292 16.2092C49.0797 16.3164 48.6111 16.3164 48.1616 16.2092C47.8607 16.2092 47.929 15.636 47.9838 15.3631C48.8727 10.7915 49.8028 6.2335 50.7191 1.71647C50.7257 1.58415 50.7594 1.45459 50.8182 1.3358C50.877 1.217 50.9596 1.1115 51.0609 1.02581C51.1621 0.940116 51.2799 0.876055 51.407 0.837585C51.534 0.799116 51.6677 0.787054 51.7996 0.802147C54.0426 0.802147 53.8648 0.310869 54.5349 2.79455C55.7385 6.80666 56.9466 10.8097 58.1593 14.8036C58.3097 15.2812 58.4328 15.7315 57.831 15.9499C57.6747 16.0304 57.503 16.077 57.3274 16.0865C57.1517 16.096 56.976 16.0683 56.8119 16.0051C56.6478 15.9419 56.4989 15.8447 56.3752 15.7199C56.2515 15.5952 56.1556 15.4456 56.0941 15.2812C55.629 13.5344 55.2051 11.7877 54.7264 10.0545C54.0972 7.89838 53.3587 5.75587 52.7296 3.61335C52.6739 3.50938 52.6049 3.41305 52.5244 3.32677L52.3466 3.24489Z" fill="#1D1D1B"/>
<path d="M5.74994 9.46775C6.69597 9.45541 7.61588 9.77746 8.3468 10.3769C9.07771 10.9763 9.57251 11.8145 9.74357 12.7429C10.0499 13.7744 9.96386 14.8824 9.50198 15.8544C9.04011 16.8265 8.23489 17.5943 7.2407 18.0105C6.6526 18.2562 6.16023 18.2835 5.87302 17.6284C5.58581 16.9734 5.96876 16.7141 6.43377 16.4275C6.88994 16.2306 7.26982 15.8914 7.51642 15.4608C7.76301 15.0302 7.86302 14.5315 7.80145 14.0394C7.5963 12.7839 7.17232 11.4874 5.66788 11.4056C4.72033 11.4735 3.79326 11.714 2.93253 12.1152C2.80944 12.1152 2.76842 12.7702 2.86416 13.0705C4.10875 16.7277 5.38067 20.3714 6.65261 23.9877C6.92614 24.8065 6.81674 25.0658 6.10554 25.3524C5.39435 25.639 4.94301 25.5435 4.64212 24.7519L0.197178 12.47C0.0193803 12.006 0.0740856 11.1053 0.580125 10.9552C2.3034 10.3957 3.87621 9.93173 5.61316 9.41316C5.66005 9.42792 5.70578 9.44617 5.74994 9.46775Z" fill="#1D1D1B"/>
<path d="M97.2748 3.87263C98.08 3.81588 98.8881 3.9287 99.6468 4.20377C100.406 4.47883 101.098 4.91 101.679 5.46929C102.007 5.79681 102.171 6.13797 101.802 6.54737C101.433 6.95677 100.749 7.24335 100.297 6.88853C100.007 6.62846 99.7013 6.3869 99.381 6.16527C98.872 5.78647 98.236 5.61856 97.6059 5.69659C96.9758 5.77462 96.4002 6.09256 95.9995 6.58401C95.5988 7.07545 95.4039 7.70239 95.4554 8.33385C95.507 8.96532 95.8011 9.55247 96.2764 9.97267C96.9328 10.6414 97.7124 11.1872 98.4236 11.815C98.924 12.2144 99.3319 12.717 99.6195 13.2884C99.907 13.8598 100.067 14.4865 100.089 15.1255C100.111 15.7645 99.9948 16.4008 99.7474 16.9906C99.5 17.5804 99.1277 18.1099 98.6561 18.5427C97.9708 19.1664 97.1101 19.565 96.1903 19.6846C95.2706 19.8042 94.3362 19.639 93.5137 19.2114C92.7888 18.8354 92.1096 18.3775 91.4895 17.8468C91.0108 17.4783 91.0518 17.028 91.4895 16.6186C91.9271 16.2092 92.2964 15.9772 92.8572 16.4548C93.4104 16.9498 94.038 17.355 94.7172 17.6557C95.1384 17.8597 95.6173 17.9127 96.0731 17.8058C96.5289 17.699 96.9339 17.4387 97.2201 17.0689C97.5815 16.6833 97.8054 16.1895 97.8574 15.6641C97.9093 15.1387 97.7862 14.6108 97.5073 14.1622C96.9641 13.4587 96.3346 12.826 95.6335 12.2789C94.5166 11.5521 93.6856 10.4626 93.2811 9.19481C92.7477 6.68384 94.43 3.72252 97.2748 3.87263Z" fill="#1D1D1B"/>
<path d="M83.1193 17.2054C82.162 17.2054 81.9295 16.8779 82.0525 15.8407C82.5176 12.1288 82.9552 8.40331 83.4202 4.69143C83.5023 3.94087 83.5843 3.20395 83.7074 2.46703C83.8305 1.73012 84.2545 1.75741 84.7469 1.85294C85.2392 1.94846 85.9914 1.85294 85.923 2.72632C85.7863 4.02275 85.6085 5.30553 85.4307 6.60196C85.0022 9.71339 84.5827 12.8248 84.1724 15.9362C84.0357 17.0143 83.8989 17.219 83.1193 17.2054Z" fill="#1D1D1B"/>
</svg>
