<svg width="107" height="24" viewBox="0 0 107 24" fill="none" xmlns="http://www.w3.org/2000/svg">
<path d="M4.7003 21.9884C5.23871 22.3353 5.95242 22.3353 5.95242 22.6822C5.95242 23.0292 5.66442 23.0911 5.0008 23.0911H1.11919C0.443049 23.0911 0.130047 23.0292 0.130047 22.6822C0.130047 22.3353 0.793669 22.3353 1.38216 21.9884C1.63259 21.8273 1.70773 21.3936 1.70773 20.5759V3.14266C1.70773 2.32489 1.63256 1.90362 1.3571 1.73016C0.806166 1.38323 0.10498 1.38323 0.10498 1.0363C0.10498 0.689368 1.18182 0.528294 3.48571 0.528294C5.60908 0.403205 7.73653 0.693725 9.7463 1.38323C11.2659 1.95668 12.572 2.97611 13.4896 4.30485C14.4071 5.63359 14.8922 7.20815 14.8799 8.81744C14.8925 12.6461 12.0377 15.1241 7.27966 15.1241C6.29588 15.1703 5.31176 15.0401 4.37474 14.74V20.5759C4.37474 21.3193 4.41232 21.8273 4.7003 21.9884ZM6.60347 14.3311C9.92158 14.3311 11.925 12.2248 11.925 8.63158C11.925 4.22062 9.42073 1.32128 5.66438 1.32128C4.57504 1.32128 4.34967 1.53191 4.34967 2.56031V12.931C4.37472 13.8851 5.07589 14.3311 6.60347 14.3311Z" fill="#1D1D1B"/>
<path d="M22.8935 11.0601C23.7982 11.8014 24.5208 12.7365 25.0067 13.7947C25.4926 14.8529 25.7291 16.0066 25.6983 17.1685C25.6983 20.8856 23.3443 23.438 20.1263 23.438C16.9084 23.438 14.041 20.5139 14.041 16.3756C14.041 12.5717 16.5453 9.57325 19.1998 9.57325C20.5713 9.61457 21.8823 10.1422 22.8935 11.0601ZM21.6414 12.0637C21.4194 11.5535 21.0628 11.1118 20.609 10.7848C20.1552 10.4578 19.6209 10.2576 19.062 10.2052C17.4343 10.2052 16.4827 11.754 16.4827 14.6533C16.4827 19.6094 18.3233 22.7442 20.527 22.7442C22.28 22.7442 23.2692 21.3936 23.2692 18.9032C23.2567 16.5323 22.7046 14.1946 21.654 12.0637H21.6414Z" fill="#1D1D1B"/>
<path d="M26.6374 19.7209C26.5641 19.5961 26.5213 19.4561 26.5122 19.3121C26.5122 19.089 26.6374 18.9651 26.8001 18.9651C26.9629 18.9651 27.3135 19.4731 27.7893 20.1298C29.0414 21.8645 30.3686 22.7442 31.5456 22.7442C31.8682 22.7346 32.1853 22.6584 32.4764 22.5205C32.7675 22.3826 33.0262 22.186 33.236 21.9434C33.4459 21.7007 33.6022 21.4174 33.6949 21.1115C33.7876 20.8056 33.8147 20.4839 33.7744 20.167C33.7724 19.4995 33.5687 18.8478 33.1893 18.2958C32.81 17.7437 32.2724 17.3166 31.6458 17.0694C28.9037 15.8304 26.9379 15.2728 26.9379 12.9186C26.9136 12.4906 26.979 12.0622 27.1301 11.6604C27.2811 11.2586 27.5144 10.892 27.8154 10.5837C28.1164 10.2754 28.4786 10.0319 28.8792 9.86871C29.2798 9.70549 29.7101 9.62599 30.1433 9.6352C30.8359 9.68804 31.5204 9.81687 32.1842 10.0193C32.5348 10.0193 32.7603 9.6352 32.9481 9.6352C33.1359 9.6352 33.211 9.7591 33.3362 10.0193L34.5883 12.6584C34.6655 12.7758 34.7206 12.9059 34.7511 13.0425C34.7511 13.1665 34.5883 13.2904 34.4256 13.2904C34.2628 13.2904 33.9873 12.9186 33.4739 12.3115C32.3596 11.0725 31.4956 10.2299 30.256 10.2299C30.0205 10.2126 29.784 10.2442 29.5616 10.3228C29.3392 10.4014 29.136 10.5252 28.9649 10.6863C28.7939 10.8474 28.6588 11.0422 28.5685 11.2581C28.4782 11.474 28.4345 11.7062 28.4404 11.9398C28.4676 12.4192 28.6505 12.8772 28.9618 13.2455C29.2732 13.6139 29.6963 13.8729 30.1683 13.9842C31.4005 14.3403 32.5857 14.8394 33.6993 15.4711C34.3138 15.8985 34.8123 16.4691 35.1508 17.1326C35.4893 17.7961 35.6574 18.5319 35.6401 19.2749C35.6586 19.8161 35.5666 20.3555 35.3696 20.8607C35.1726 21.3659 34.8747 21.8266 34.4937 22.2153C34.1126 22.604 33.6562 22.9126 33.1518 23.1227C32.6474 23.3328 32.1054 23.44 31.5582 23.438C30.8364 23.3736 30.1233 23.2366 29.4296 23.0292C29.0164 23.0292 28.791 23.5 28.6032 23.5C28.4154 23.5 28.3778 23.3761 28.2526 23.1283L26.6374 19.7209Z" fill="#1D1D1B"/>
<path d="M40.6987 22.1495C40.9616 22.4344 41.6878 22.4592 41.6878 22.8061C41.6878 23.1531 41.4624 23.0911 41.0492 23.0911H37.5183C37.1051 23.0911 36.8797 23.0044 36.8797 22.8061C36.8797 22.6079 37.6185 22.4344 37.8689 22.1495C38.1457 21.6284 38.2549 21.0361 38.1819 20.452V13.0178C38.1819 12.2248 38.1193 12.0389 37.7061 11.9398C37.2929 11.8407 36.9173 11.9398 36.9173 11.5929C36.9173 11.2459 37.2929 11.2212 37.8689 10.899C39.3339 10.1184 40.035 9.54847 40.1978 9.54847C40.3606 9.54847 40.3857 9.73432 40.3857 10.0813V20.452C40.3182 21.036 40.4271 21.6267 40.6987 22.1495ZM37.7061 5.38531C37.7838 4.97656 38.0074 4.60905 38.3361 4.34978C38.6647 4.09051 39.0766 3.95672 39.4966 3.97281C39.6414 3.95743 39.7879 3.97162 39.927 4.01451C40.066 4.05739 40.1946 4.12806 40.3049 4.22214C40.4153 4.31622 40.505 4.4317 40.5684 4.56145C40.6318 4.69119 40.6676 4.83243 40.6736 4.97643C40.6384 5.4168 40.4322 5.82658 40.0985 6.11992C39.7647 6.41326 39.3292 6.56739 38.8831 6.55C38.7257 6.56104 38.5677 6.53848 38.4198 6.48386C38.272 6.42923 38.1377 6.34381 38.0261 6.23337C37.9145 6.12294 37.8281 5.99007 37.7729 5.84375C37.7177 5.69744 37.6949 5.5411 37.7061 5.38531Z" fill="#1D1D1B"/>
<path d="M44.455 11.0601H43.4032C43.0526 11.0601 42.8648 10.961 42.8648 10.7751C42.8648 10.391 44.1169 10.0813 45.056 8.40856C45.9951 6.73586 46.0076 5.18707 46.4208 5.18707C46.5836 5.18707 46.6462 5.38531 46.6462 5.73224V9.95735H49.2882V11.0601H46.6462V20.2909C46.6462 21.7034 46.8341 22.3973 47.8984 22.3973C49.1505 22.3973 49.3383 20.9228 49.7515 20.9228C49.8767 20.9228 49.9392 21.0095 49.9392 21.2078C49.8066 21.8723 49.4329 22.4659 48.8886 22.8767C48.3443 23.2875 47.667 23.4872 46.9843 23.438C46.6315 23.468 46.2764 23.4237 45.9423 23.3079C45.6082 23.1921 45.3026 23.0075 45.0459 22.7663C44.7891 22.5251 44.587 22.2328 44.4527 21.9086C44.3185 21.5844 44.2553 21.2358 44.2672 20.8856C44.2672 20.1298 44.4675 19.1882 44.4675 18.0482L44.455 11.0601Z" fill="#1D1D1B"/>
<path d="M55.2232 23.3513C54.6534 23.3686 54.0861 23.27 53.5563 23.0618C53.0266 22.8535 52.5455 22.54 52.143 22.1405C51.7405 21.7411 51.4251 21.2642 51.2162 20.7393C51.0073 20.2145 50.9094 19.6528 50.9285 19.089C50.9535 17.9221 51.418 16.8064 52.231 15.9607C53.044 15.115 54.1468 14.6001 55.3234 14.517C55.7807 14.5149 56.2331 14.6101 56.65 14.7961C57.067 14.9821 57.4387 15.2545 57.74 15.595C57.5772 12.1628 57.0388 10.6388 55.2357 10.6388C54.8258 10.6286 54.4196 10.7182 54.0528 10.8997C53.686 11.0811 53.3699 11.349 53.1322 11.6796C52.744 12.1876 52.744 12.9186 52.431 12.9186C52.118 12.9186 52.1806 12.7824 52.1806 12.5717C52.1806 11.2707 53.7332 9.67237 56.0621 9.67237C56.6556 9.64392 57.2467 9.76413 57.7808 10.0219C58.3148 10.2796 58.7745 10.6665 59.1173 11.1468C59.6625 12.2448 59.9371 13.4549 59.9186 14.6781L60.4821 20.5139C60.6198 21.6786 60.8327 22.1495 61.5089 22.1495C62.4354 22.1495 62.2351 21.1087 62.6233 21.1087C62.786 21.1087 62.8486 21.1954 62.8486 21.4184C62.8737 21.6866 62.8387 21.9569 62.7463 22.2102C62.6539 22.4635 62.5062 22.6935 62.3137 22.884C62.1213 23.0744 61.8888 23.2205 61.6328 23.312C61.3768 23.4035 61.1037 23.4381 60.8327 23.4133C60.3149 23.4622 59.7962 23.3305 59.3663 23.0408C58.9364 22.7512 58.6224 22.3219 58.4787 21.8273C58.1085 22.3308 57.6164 22.7343 57.0476 23.0006C56.4788 23.2668 55.8514 23.3875 55.2232 23.3513ZM58.2158 19.8448C58.2158 16.7597 57.3643 15.2109 55.7115 15.2109C54.2841 15.2109 53.295 16.4499 53.295 18.6182C53.295 21.0095 54.472 22.4964 56.0246 22.4964C57.5772 22.4964 58.2158 21.6167 58.2158 19.8448Z" fill="#1D1D1B"/>
<path d="M67.1309 22.1495C67.3813 22.4344 68.12 22.4592 68.12 22.8061C68.12 23.1531 67.8947 23.0911 67.4815 23.0911H63.9755C63.5623 23.0911 63.3369 23.0044 63.3369 22.8061C63.3369 22.6079 64.0757 22.4344 64.3261 22.1495C64.5941 21.6256 64.6987 21.0348 64.6266 20.452V13.0178C64.6266 12.2248 64.6266 12.0389 64.1759 11.9398C63.7251 11.8407 63.3494 11.9398 63.3494 11.5929C63.3494 11.2459 63.7627 11.2212 64.3387 10.899C65.8036 10.1184 66.4797 9.54847 66.63 9.54847C66.7802 9.54847 66.8554 9.73433 66.8554 10.0813V12.3859C67.0669 11.6312 67.5065 10.9585 68.1152 10.458C68.7239 9.95756 69.4727 9.65316 70.2612 9.58564C72.4273 9.58564 73.2287 10.899 73.5417 13.6497L74.2429 19.8448C74.3681 21.0839 74.4307 21.8273 74.9441 22.2362C75.232 22.4592 75.7454 22.4964 75.7454 22.8061C75.7454 23.1159 75.5201 23.0911 75.0693 23.0911H71.5759C71.1251 23.0911 70.9373 23.0292 70.9373 22.8061C70.9373 22.3353 72.1143 22.5212 72.1143 21.3317C72.101 20.942 72.0676 20.5533 72.0141 20.167L71.2503 13.3523C71.0249 11.5309 70.6744 10.7999 69.4974 10.7999C68.3204 10.7999 66.8554 12.3487 66.8554 15.31V20.452C66.7807 21.0322 66.8763 21.6215 67.1309 22.1495Z" fill="#1D1D1B"/>
<path d="M84.8733 11.0601C85.7759 11.8032 86.4971 12.7386 86.9828 13.7964C87.4685 14.8542 87.7061 16.007 87.6781 17.1685C87.6781 20.8856 85.3116 23.438 82.0937 23.438C78.8757 23.438 76.0209 20.5139 76.0209 16.3756C76.0209 12.5717 78.5251 9.57325 81.1796 9.57325C82.5507 9.61675 83.8609 10.1441 84.8733 11.0601ZM83.6212 12.0637C83.4014 11.552 83.0455 11.1088 82.5913 10.7815C82.137 10.4542 81.6015 10.255 81.0419 10.2052C79.4266 10.2052 78.4625 11.754 78.4625 14.6533C78.4625 19.6094 80.3157 22.7442 82.5069 22.7442C84.2599 22.7442 85.249 21.3936 85.249 18.9032C85.2325 16.5313 84.6762 14.1936 83.6212 12.0637Z" fill="#1D1D1B"/>
<path d="M90.0696 10.9486C90.0604 9.55327 90.4988 8.19104 91.3218 7.05801V6.97128L90.7208 6.53761V6.62435C89.8035 7.88818 89.3101 9.40497 89.3101 10.961C89.3101 12.517 89.8035 14.0338 90.7208 15.2976V15.3843L91.3218 14.9507V14.8763C90.4951 13.7311 90.0567 12.3559 90.0696 10.9486Z" fill="#1D1D1B"/>
<path d="M94.74 11.1344V13.7984H94.0388V11.1344L91.9979 7.61558H92.7993L94.3895 10.3786L96.0047 7.61558H96.8186L94.74 11.1344Z" fill="#1D1D1B"/>
<path d="M96.8436 12.0018C96.8351 12.1696 96.8612 12.3374 96.9203 12.495C96.9794 12.6525 97.0703 12.7965 97.1875 12.9182C97.3046 13.0399 97.4455 13.1368 97.6016 13.2029C97.7578 13.269 97.9258 13.303 98.0957 13.3027C98.3605 13.3093 98.6213 13.2373 98.8445 13.096C99.0676 12.9547 99.2429 12.7505 99.3478 12.5098L99.9113 12.8195C99.7523 13.1513 99.5 13.4306 99.1846 13.624C98.8693 13.8174 98.5042 13.9167 98.1333 13.9099C97.8697 13.9142 97.6082 13.8639 97.3655 13.7622C97.1227 13.6606 96.9041 13.5098 96.7237 13.3196C96.5433 13.1295 96.4051 12.904 96.3179 12.6579C96.2308 12.4117 96.1965 12.1503 96.2175 11.8902C96.195 11.6324 96.2268 11.3727 96.3109 11.1276C96.395 10.8826 96.5296 10.6574 96.7061 10.4664C96.8826 10.2755 97.0972 10.1228 97.3364 10.0181C97.5756 9.91343 97.8341 9.85898 98.0957 9.85823C98.3557 9.8569 98.6131 9.90973 98.8511 10.0133C99.0891 10.1168 99.3024 10.2688 99.4772 10.4593C99.652 10.6498 99.7843 10.8745 99.8656 11.1189C99.9468 11.3633 99.9752 11.6219 99.9489 11.8779V12.0018H96.8436ZM98.0331 10.4654C97.7575 10.4818 97.4952 10.5879 97.2868 10.7672C97.0785 10.9464 96.9359 11.1888 96.8812 11.4566H99.1726C99.1337 11.1839 98.9973 10.934 98.7883 10.7522C98.5793 10.5703 98.3114 10.4686 98.0331 10.4654Z" fill="#1D1D1B"/>
<path d="M101.94 13.8851C101.637 13.8897 101.342 13.7966 101.098 13.62C100.854 13.4433 100.675 13.1928 100.587 12.9063L101.163 12.6584C101.326 13.0054 101.539 13.278 101.952 13.278C102.034 13.283 102.116 13.2714 102.194 13.2438C102.271 13.2162 102.342 13.1732 102.402 13.1175C102.462 13.0617 102.509 12.9944 102.542 12.9198C102.574 12.8451 102.591 12.7646 102.591 12.6832C102.591 11.8407 100.838 12.1009 100.838 10.9114C100.838 10.7656 100.867 10.6212 100.925 10.4871C100.983 10.353 101.068 10.2319 101.174 10.1311C101.281 10.0303 101.407 9.95199 101.545 9.90083C101.683 9.84967 101.83 9.82674 101.977 9.83345C102.203 9.83578 102.424 9.90245 102.613 10.0255C102.801 10.1485 102.95 10.3227 103.042 10.5273L102.491 10.8123C102.445 10.7044 102.368 10.6119 102.271 10.5459C102.173 10.48 102.058 10.4434 101.94 10.4406C101.822 10.4372 101.708 10.4793 101.621 10.558C101.535 10.6367 101.483 10.7457 101.476 10.8618C101.476 11.5433 103.279 11.3575 103.279 12.6213C103.283 12.7936 103.251 12.9649 103.184 13.1241C103.117 13.2833 103.018 13.427 102.892 13.546C102.766 13.6649 102.616 13.7565 102.452 13.8149C102.288 13.8733 102.113 13.8972 101.94 13.8851Z" fill="#1D1D1B"/>
<path d="M104.694 6.62435V6.53761L104.093 6.97128V7.05801C104.923 8.19136 105.37 9.55518 105.37 10.9548C105.37 12.3544 104.923 13.7182 104.093 14.8515V14.9259L104.694 15.3595V15.2728C105.612 14.009 106.105 12.4922 106.105 10.9362C106.105 9.38019 105.612 7.8634 104.694 6.59957V6.62435Z" fill="#1D1D1B"/>
</svg>
