<svg width="110" height="30" viewBox="0 0 110 30" fill="none" xmlns="http://www.w3.org/2000/svg">
<path d="M0.0952238 11.3309V11.2227C0.162978 10.5613 0.482056 9.9482 0.990083 9.50331C1.49811 9.05842 2.15857 8.81368 2.84235 8.81695C3.52941 8.81548 4.19299 9.0599 4.70651 9.50361C5.22003 9.94731 5.54755 10.5592 5.62659 11.2227C5.64758 11.8473 5.47779 12.4639 5.13864 12.9948C4.79949 13.5257 4.30617 13.9471 3.72093 14.2058C2.88012 14.6273 2.10174 15.1574 1.40691 15.7815C1.21518 15.983 1.06032 16.2149 0.949059 16.4671V16.9844H5.97308V17.67H0.00860284V17.5858C-0.0236078 17.1779 0.0348695 16.7681 0.180063 16.3841C0.325256 16.0001 0.553763 15.651 0.850064 15.3605C1.60262 14.6636 2.4327 14.0504 3.32495 13.5322C4.76038 12.63 4.78513 11.9324 4.78513 11.4392V11.3309C4.74959 10.8481 4.53375 10.3946 4.17823 10.0556C3.82271 9.71669 3.35202 9.51573 2.85472 9.49056C2.35039 9.50192 1.86901 9.69768 1.50662 10.0388C1.14422 10.3799 0.927452 10.8413 0.899562 11.3309H0.0952238Z" fill="#1D1D1B"/>
<path d="M14.5733 10.092C15.1228 11.0498 15.3924 12.1354 15.3529 13.2314C15.3968 14.347 15.1273 15.4531 14.5733 16.4311C14.3669 16.8237 14.0534 17.1537 13.6672 17.3849C13.2809 17.6162 12.8367 17.7397 12.383 17.7422C11.9294 17.7397 11.4852 17.6162 11.0989 17.3849C10.7126 17.1537 10.3992 16.8237 10.1928 16.4311C9.6388 15.4531 9.36929 14.347 9.41317 13.2314C9.37371 12.1354 9.64329 11.0498 10.1928 10.092C10.4045 9.7035 10.7192 9.37709 11.1043 9.14656C11.4894 8.91604 11.9309 8.78978 12.383 8.78087C12.8367 8.7833 13.2809 8.90687 13.6672 9.1381C14.0534 9.36933 14.3669 9.69931 14.5733 10.092ZM10.861 10.5972C10.4605 11.4191 10.2695 12.3226 10.3041 13.2314C10.2674 14.1559 10.4583 15.0755 10.861 15.9138C10.9916 16.2092 11.202 16.4648 11.47 16.6533C11.738 16.8418 12.0535 16.9562 12.383 16.9844C12.7276 16.9633 13.0587 16.8468 13.3372 16.6485C13.6157 16.4503 13.8299 16.1786 13.9546 15.8657C14.3615 15.0285 14.5567 14.1088 14.5238 13.1833C14.5545 12.2735 14.3593 11.37 13.9546 10.5491C13.8195 10.2482 13.601 9.98987 13.3234 9.80292C13.0459 9.61597 12.7202 9.50782 12.383 9.49056C12.0429 9.51558 11.7167 9.63243 11.4413 9.82795C11.1658 10.0235 10.9519 10.2899 10.8239 10.5972H10.861Z" fill="#1D1D1B"/>
<path d="M18.1248 16.9844C18.1273 16.8269 18.178 16.6737 18.2703 16.5443C18.3627 16.4148 18.4925 16.3151 18.6434 16.2576C18.7943 16.2001 18.9593 16.1876 19.1176 16.2216C19.2758 16.2555 19.42 16.3345 19.5319 16.4484C19.6439 16.5623 19.7184 16.706 19.7461 16.8612C19.7738 17.0164 19.7533 17.1761 19.6874 17.3199C19.6214 17.4638 19.5129 17.5853 19.3757 17.6691C19.2384 17.7529 19.0787 17.795 18.9167 17.7903C18.7023 17.784 18.499 17.6959 18.3508 17.5451C18.2026 17.3943 18.1214 17.1929 18.1248 16.9844Z" fill="#1D1D1B"/>
<path d="M44.1482 9.61084H41.0298V17.6459H40.2255V9.61084H37.1319V8.88913H44.1482V9.61084Z" fill="#1D1D1B"/>
<path d="M51.9812 8.88913V14.5786C51.9812 16.5393 51.1397 17.7061 48.9495 17.7061C48.2227 17.7999 47.4869 17.6151 46.8979 17.1908C46.3089 16.7664 45.913 16.1359 45.794 15.4327L46.5859 15.156C46.6514 15.6912 46.9278 16.1808 47.3571 16.5218C47.7864 16.8628 48.3351 17.0286 48.8876 16.9844C50.5334 16.9844 51.1397 16.0341 51.1397 14.4704V8.88913H51.9812Z" fill="#1D1D1B"/>
<path d="M57.0423 10.0078C57.3756 9.62941 57.7894 9.32588 58.2552 9.1182C58.7209 8.91052 59.2275 8.80363 59.74 8.80493C60.2449 8.80576 60.7435 8.91385 61.2009 9.12163C61.6583 9.3294 62.0635 9.63185 62.3881 10.0078C63.1593 10.9242 63.5558 12.0848 63.5018 13.2675C63.5498 14.4512 63.1589 15.6122 62.4005 16.5393C62.0718 16.9137 61.6641 17.2149 61.205 17.4225C60.7459 17.63 60.2463 17.7391 59.74 17.7422C59.2258 17.7428 58.7176 17.6357 58.25 17.4281C57.7823 17.2205 57.3662 16.9174 57.03 16.5393C56.2659 15.6191 55.8703 14.4612 55.9163 13.2796C55.8626 12.0912 56.2638 10.9256 57.0423 10.0078ZM57.6239 16.0221C57.8686 16.3361 58.1847 16.5907 58.5475 16.766C58.9104 16.9413 59.31 17.0325 59.7152 17.0325C60.1204 17.0325 60.5201 16.9413 60.8829 16.766C61.2457 16.5907 61.5619 16.3361 61.8065 16.0221C62.4074 15.2393 62.7132 14.2795 62.6727 13.3036C62.7092 12.3282 62.4038 11.3697 61.8065 10.5852C61.5634 10.269 61.2478 10.0124 60.8847 9.83558C60.5217 9.65879 60.1213 9.56673 59.7152 9.56673C59.3092 9.56673 58.9087 9.65879 58.5457 9.83558C58.1827 10.0124 57.867 10.269 57.6239 10.5852C57.0177 11.3659 56.7073 12.3261 56.7453 13.3036C56.7119 14.2694 57.0222 15.2168 57.6239 15.986V16.0221Z" fill="#1D1D1B"/>
<path d="M73.5622 16.1063C73.2854 16.5925 72.8902 17.0055 72.4114 17.3091C71.9265 17.6176 71.3573 17.7769 70.7779 17.7662C70.2655 17.7675 69.7589 17.6606 69.2932 17.453C68.8274 17.2453 68.4136 16.9417 68.0803 16.5634C67.3184 15.6374 66.9232 14.4766 66.9666 13.2916C66.903 12.1022 67.2954 10.9322 68.068 10.0078C68.6482 9.32249 69.4832 8.88752 70.3915 8.79742C71.2999 8.70732 72.2081 8.96939 72.9187 9.52664C73.6059 10.0614 74.0929 10.8011 74.3047 11.6316H73.5127C73.3067 11.0155 72.9248 10.469 72.4114 10.0559C71.9455 9.70244 71.3688 9.51556 70.7779 9.52664C70.3717 9.53019 69.9714 9.62291 69.6072 9.79787C69.2429 9.97283 68.924 10.2255 68.6743 10.537C68.0655 11.3171 67.7509 12.2769 67.7833 13.2555C67.7452 14.2423 68.06 15.2115 68.6743 15.998C68.9247 16.308 69.244 16.5589 69.6083 16.7318C69.9726 16.9047 70.3725 16.9952 70.7779 16.9964C71.1398 16.9902 71.4965 16.9124 71.8263 16.7676C72.1561 16.6228 72.452 16.4142 72.696 16.1544C73.2739 15.5291 73.5993 14.7215 73.6117 13.881H70.8646V13.1593H74.3542V17.6459H73.5622V16.1063Z" fill="#1D1D1B"/>
<path d="M84.9467 9.61084H79.9103V12.8465H84.5507V13.5682H79.9103V16.9122H85.3921V17.6459H79.2049V8.88913H85.0333L84.9467 9.61084Z" fill="#1D1D1B"/>
<path d="M95.6629 9.61084H92.5446V17.6459H91.7526V9.61084H88.659V8.88913H95.6629V9.61084Z" fill="#1D1D1B"/>
<path d="M60.4824 1.16677H62.5861V1.44343C61.3486 1.37126 59.9998 1.28706 58.7129 1.25097C58.3912 1.25097 58.0694 1.46749 57.7353 1.50357C56.0153 1.72009 54.2828 1.90052 52.5628 2.12906C50.521 2.39369 48.4669 2.65832 46.4375 3.01918C44.4081 3.38003 42.7251 3.78901 40.8442 4.22203C38.9633 4.65506 37.1319 5.11215 35.3623 5.62938C33.6011 6.07569 31.9284 6.8033 30.4126 7.7825C29.6454 8.32378 28.6925 8.63652 27.9377 9.16578C27.134 9.64428 26.4589 10.3018 25.9683 11.0841C25.4777 11.8663 25.1857 12.7508 25.1163 13.6645C25.0086 14.6733 25.2228 15.69 25.7297 16.5765C26.2366 17.463 27.0118 18.1765 27.9501 18.6203C28.7049 19.0172 29.3236 19.6427 30.0908 19.9795C31.0657 20.4012 32.0813 20.7276 33.1226 20.9538C34.4219 21.2425 35.7459 21.4109 37.0576 21.6394C38.3693 21.868 39.4335 22.0845 40.6338 22.2168C41.8342 22.3491 43.1087 22.4093 44.4452 22.4694C45.9796 22.5536 47.5017 22.6258 49.0361 22.6378C50.5705 22.6498 52.4886 22.5536 54.2086 22.5295C55.2233 22.5295 56.238 22.5295 57.2527 22.5295C58.6015 22.5295 59.938 22.3491 61.2868 22.2649C62.9326 22.1446 64.5784 22.0965 66.2365 21.9161C67.5482 21.7717 68.8352 21.447 70.1345 21.2425C70.5045 21.2008 70.8782 21.2008 71.2482 21.2425V21.4831C71.1244 21.5793 71.0007 21.7236 70.8646 21.7477C69.095 22.1085 67.3255 22.4814 65.5436 22.7701C63.4399 23.1069 61.3239 23.4197 59.2079 23.6121C57.0918 23.8046 54.9016 23.8647 52.7484 23.985C51.6842 23.985 50.62 24.1053 49.5682 24.1173C48.5164 24.1293 47.6502 24.0451 46.6849 24.0091C45.7197 23.973 44.8783 24.0091 43.9873 24.0091C42.6633 23.9249 41.3392 23.8046 40.0275 23.6602C38.357 23.4798 36.674 23.3475 35.0777 23.0347C33.6834 22.744 32.3109 22.3622 30.9694 21.892C29.9618 21.6061 28.9936 21.2022 28.0862 20.6892C27.0293 20.0293 26.05 19.2589 25.1658 18.3917C24.448 17.8171 23.8834 17.0826 23.52 16.2506C23.0897 15.0639 23.039 13.7783 23.3748 12.5631C23.7105 11.3479 24.4169 10.2599 25.4009 9.44244C27.0982 8.02443 29.0259 6.89034 31.1055 6.08646C34.1773 4.74328 37.4124 3.78533 40.7328 3.23569C43.0592 2.7786 45.3609 2.24935 47.6749 1.79226C48.9123 1.55169 50.1498 1.39532 51.3872 1.22692C53.2805 0.974315 55.1738 0.661572 57.0671 0.505201C58.9604 0.348829 60.7794 0.384915 62.5737 0.312744L66.0757 0.144343C66.9048 0.144343 67.7462 0.0120286 68.5506 0C70.3201 0 72.0773 0 73.8468 0C75.6163 0 77.4478 0.144343 79.2421 0.288686C79.935 0.348829 80.5909 0.673601 81.2838 0.793887C82.1995 0.962287 83.1276 1.02243 84.0433 1.16677C86.3202 1.50357 88.5971 1.8524 90.8616 2.23732C92.7426 2.56209 94.574 2.8628 96.492 3.29583C98.1434 3.67918 99.7712 4.15307 101.368 4.71521C102.779 5.21283 104.148 5.81607 105.463 6.51949C106.54 7.10773 107.556 7.79662 108.495 8.57638C109.384 9.34791 109.923 10.4306 109.992 11.5872C110.062 12.7438 109.657 13.88 108.866 14.747C107.793 15.8031 106.536 16.6664 105.154 17.2971C103.162 18.2594 101.071 19.0413 98.9669 19.8833C97.7295 20.4005 96.492 20.9297 95.2546 21.3507C93.6335 21.9041 91.9753 22.3972 90.3048 22.8663C87.6072 23.6362 84.8848 24.3699 82.1748 25.1277C81.1972 25.4044 80.2444 25.7291 79.2544 25.9577C76.6929 26.5591 74.1067 27.1606 71.5328 27.6898C70.2953 27.9665 69.0579 28.3394 67.7462 28.5679C66.0262 28.8806 64.2938 29.0972 62.549 29.3137C60.4206 29.5783 58.2922 29.9271 56.1514 29.9993C54.581 30.0115 53.0136 29.8663 51.4738 29.5663C50.9665 29.4821 50.5581 28.9288 50.0384 28.5438C50.3426 28.2866 50.7149 28.1175 51.1131 28.0558C51.5112 27.9941 51.9192 28.0424 52.2906 28.195C54.3218 28.6222 56.4085 28.7439 58.4778 28.5559C61.2496 28.3273 64.0215 28.0386 66.7686 27.6176C68.9465 27.2929 71.0873 26.7275 73.2528 26.2464C78.3163 25.1933 83.322 23.8925 88.2506 22.3491C91.963 21.1463 95.8238 20.0877 99.5114 18.7405C102.245 17.9314 104.774 16.5752 106.936 14.7591C107.744 14.0329 108.25 13.0445 108.359 11.9805C108.361 11.4966 108.262 11.0175 108.066 10.5726C107.87 10.1278 107.582 9.72676 107.221 9.39433C106.246 8.31201 105.008 7.48481 103.62 6.98861C102.382 6.48341 101.256 5.88198 100.031 5.47301C98.3632 4.89554 96.6606 4.41752 94.9328 4.04161C92.4579 3.5364 90.0573 3.18758 87.6072 2.83875C85.7386 2.55006 83.8948 2.38166 81.9768 2.09297C81.024 1.94863 80.1206 1.61183 79.1678 1.46749C77.8314 1.27503 76.4702 1.15474 75.109 1.05852C73.7478 0.962287 72.3495 0.926201 70.9636 0.93823C69.5776 0.950258 68.3154 1.04649 66.9914 1.11866C65.8777 1.11866 64.764 1.23894 63.6379 1.263C63.5018 1.263 63.3657 0.950258 63.2172 0.93823C62.2891 0.93823 61.3734 0.93823 60.4577 0.93823L60.4824 1.16677Z" fill="#1D1D1B"/>
</svg>
