<svg width="137" height="177" viewBox="0 0 137 177" fill="none" xmlns="http://www.w3.org/2000/svg">
<path d="M136.858 77.1535C136.607 76.7372 136.031 76.3963 135.489 76.3433C135.231 76.3192 134.964 76.3899 134.682 76.4639C134.404 76.5378 134.122 76.615 133.819 76.6021C132.788 76.5635 131.763 76.3835 130.77 76.2099C129.733 76.0282 128.661 75.8401 127.554 75.8031C126.549 75.7694 125.526 75.6633 124.536 75.5588C123.462 75.4462 122.352 75.3305 121.293 75.3128C120.558 75.3016 120.197 75.2083 119.694 75.0797C119.579 75.0508 119.455 75.0186 119.316 74.9849C117.307 74.4994 115.266 74.1586 113.292 73.829C111.511 73.5316 109.67 73.2245 107.849 72.8114C106.658 72.5413 105.44 72.1957 104.263 71.8613C101.544 71.0913 98.7281 70.2939 95.9553 70.3228C94.3972 70.3389 92.8102 70.1717 91.2729 70.0109C90.8268 69.9643 90.3839 69.9177 89.9491 69.8759C88.7488 69.7618 87.5534 69.8004 86.398 69.8373C85.3807 69.8695 84.3296 69.9032 83.2625 69.8373C81.5793 69.7312 79.8655 69.5769 78.2079 69.4258C77.3221 69.3454 76.438 69.2666 75.557 69.1927C75.1559 69.1589 74.7691 69.1139 74.3952 69.0705C73.219 68.9323 72.1086 68.8004 70.9003 69.1075L70.8313 69.1252C69.1529 69.5512 67.8274 69.8888 66.2228 70.4964C63.1066 71.678 62.7632 71.1925 62.6316 71.0093L62.5882 70.9498V70.8758C62.5642 70.064 62.8241 69.3663 63.0745 68.6927C63.2782 68.1477 63.4692 67.6333 63.5205 67.0658C63.5767 66.4533 63.6168 65.8907 63.6553 65.3457C63.7677 63.7574 63.8656 62.3861 64.294 60.5663C64.8636 58.1549 65.0626 56.2965 65.3017 53.7372L65.3274 53.4575C65.3996 52.6923 65.4477 52.1875 65.4702 51.358C65.5119 49.8259 65.6387 48.6186 65.8617 47.6701C66.2789 45.8921 68.4019 43.1078 69.883 41.9873C70.6965 41.3716 72.0332 41.177 73.2126 41.0066C73.6122 40.9488 73.9909 40.8941 74.323 40.8266C74.7274 40.7446 75.1414 40.6353 75.5426 40.5308C76.1716 40.3652 76.8215 40.1948 77.4826 40.1128C77.8051 40.0726 78.1132 40.0726 78.3988 40.1112C78.3988 40.1112 78.4502 40.108 78.5401 40.1015H78.5433C78.5898 40.0983 78.6444 40.0951 78.7101 40.0903C79.2477 40.0549 80.4014 39.9858 81.5295 39.9681L81.5327 39.9328L82.3976 39.9456C82.8758 39.9279 83.3909 39.9006 83.9044 39.8733C83.9365 40.1032 83.9268 40.3395 83.9188 40.5485C83.9188 40.5838 83.9236 40.6562 83.9461 40.7076C83.9814 40.7864 84.2141 40.9471 84.3328 41.1593C84.803 41.9889 85.3454 42.8104 85.8701 43.6045C86.4895 44.5417 87.1265 45.5063 87.6705 46.5159C87.9224 46.9837 88.0684 47.3052 88.1856 47.5624L89.2623 49.1266C89.7421 49.6603 90.1689 50.4593 90.53 51.501C90.7482 52.1312 90.8894 52.8948 91.013 53.5684C91.037 53.7018 91.0611 53.8305 91.0852 53.9526C91.2408 54.7677 92.1202 55.5008 92.892 55.459C93.8019 55.4107 95.0503 55.1149 96.257 54.8272C96.9951 54.6519 97.6931 54.4864 98.3141 54.3754L98.3767 54.3642C98.6591 54.3079 99.3267 54.1761 99.654 54.713L100.013 55.3014L99.5321 55.5522L99.5754 55.6229L99.3459 55.7419C99.163 55.8367 98.9351 55.9862 98.7137 56.1293C98.4425 56.3062 98.1601 56.4894 97.9322 56.5939C96.6052 57.2016 95.177 57.6726 93.797 58.1292C91.8426 58.7754 89.8207 59.4442 88.0733 60.5036C87.6272 60.7737 87.1971 61.0936 86.7831 61.4006C85.6647 62.2302 84.5109 63.0886 82.9111 63.0886C82.8405 63.0886 82.7699 63.087 82.6977 63.0838L82.6207 63.0806L82.5597 63.0324C82.5501 63.0243 82.542 63.0147 82.534 63.0066L82.3447 62.997L82.1826 62.8684C82.0125 62.7333 81.9178 62.5211 81.9291 62.3041C81.9515 61.8894 82.1601 61.6563 84.0215 60.4731C84.1387 60.3991 84.2494 60.3284 84.2815 60.3059C84.4676 60.1692 84.673 59.9827 84.872 59.8011C85.1207 59.5744 85.3518 59.3622 85.5973 59.1934C86.037 58.8896 86.5633 58.6404 87.1217 58.3784C88.4263 57.7626 89.6586 57.1823 89.657 56.0168C89.6554 54.3561 88.4921 52.8386 87.3672 51.3692C86.9468 50.821 86.5504 50.3018 86.2119 49.7761C85.8123 49.1539 85.4785 48.4498 85.1576 47.7682C84.933 47.2923 84.7211 46.8454 84.5013 46.4532C84.1451 45.8198 83.7407 45.2169 83.3123 44.5803C82.6239 43.5563 81.913 42.4969 81.3947 41.2719C81.3707 41.214 81.345 41.1577 81.3193 41.0999L81.3097 41.0774C81.1749 40.7767 81.0176 40.4166 80.9807 40.0067L78.9364 40.0903C79.3953 42.2188 80.5635 44.1286 81.698 45.9805C82.0318 46.5255 82.3687 47.0769 82.6865 47.6283C83.0523 48.2617 83.3989 48.9096 83.7343 49.5366C84.1676 50.3468 84.6088 51.1715 85.0854 51.9592C85.1512 52.0685 85.294 52.2614 85.4448 52.464C86.2584 53.5588 87.3688 55.0554 86.4044 55.9975L86.3274 56.0714L86.2311 56.1165C85.2074 56.602 84.267 57.1309 83.4358 57.6871C82.3559 58.4089 79.6858 60.2898 78.2031 62.1369C77.3622 63.1851 76.921 64.2782 77.1793 64.6785C77.2756 64.812 77.8212 65.2959 77.98 65.3875C78.1565 65.4341 79.0937 65.5643 79.3327 65.5724C80.4319 65.6077 83.7503 65.4405 84.75 65.238C86.2295 64.939 86.8714 64.4069 87.7604 63.6722C88.1198 63.3748 88.4905 63.0677 88.9622 62.7333C90.899 61.3669 93.237 60.5824 95.498 59.8252C96.6613 59.4346 97.8584 59.0343 98.9464 58.5664C100.561 57.8736 104.521 56.1084 106.424 54.6889C106.629 54.5362 106.848 54.242 106.982 53.9414C106.95 53.1858 105.514 52.1521 104.514 51.8049C103.008 51.2792 101.726 51.3467 100.145 51.6264C99.4646 51.747 98.7634 51.9319 98.0847 52.1119C97.2181 52.3418 96.3228 52.5781 95.4097 52.7003C95.2027 52.7276 95.0037 52.7293 94.8288 52.7309C94.564 52.7325 94.3346 52.7357 94.1468 52.8193L93.8195 52.9656L92.8712 52.3145L92.807 52.0959C92.4283 50.8194 91.8586 49.551 91.0659 48.2199C90.1048 47.2682 89.5158 46.0127 88.9446 44.799C88.6204 44.1077 88.314 43.4582 87.9529 42.8827C87.8631 42.738 87.6432 42.4583 87.4105 42.1609C86.5697 41.0854 86.0273 40.3539 85.9519 39.78C86.1413 39.7238 86.3563 39.682 86.5376 39.5935C86.7895 39.4714 86.8778 39.4601 86.8778 39.4601L87.0222 39.481C87.8919 39.6064 88.6333 39.2897 89.4196 38.9521C89.7581 38.8074 90.1079 38.6563 90.4674 38.5454C90.7562 38.457 91.0788 38.42 91.3901 38.383C92.2598 38.2834 92.8022 38.1756 93.0011 37.5439C93.4681 36.0649 91.926 35.2289 90.5669 34.4894C90.2636 34.3254 89.9764 34.1695 89.7293 34.0136L85.6583 33.3319L85.6101 33.2934C85.6101 33.2934 85.5989 33.2837 85.5925 33.2789L85.2731 33.2082C85.3277 32.84 85.5299 32.2114 85.9295 31.0331C86.0466 30.6874 86.1573 30.3611 86.1814 30.263C86.9083 27.3227 86.7206 25.4386 86.053 22.5675C85.0469 18.2334 82.9641 14.2031 80.9502 10.3063C80.6758 9.77578 80.4031 9.24688 80.1319 8.71798C79.9249 8.31286 79.7227 7.90614 79.5205 7.49942L79.5061 7.46887C78.232 4.90475 77.0301 2.4821 74.8157 0.757143L74.7178 0.681586C74.116 0.210559 73.8898 0.0353307 73.1212 -3.65407e-05C72.1134 -0.0466569 70.1991 1.05937 69.1673 1.65258C69.0245 1.73456 68.8913 1.81173 68.7694 1.88086L68.7068 1.91622C67.1503 2.79719 65.682 3.62832 64.0132 4.40157C61.5212 5.55583 59.4143 6.3532 56.497 7.24542C54.8522 7.74699 53.6792 8.54114 52.4356 9.38192C51.813 9.80311 51.1696 10.2388 50.4298 10.668C49.2456 11.3561 48.5011 12.3656 47.7132 13.4347L47.5383 13.671C47.1162 15.1934 47.0424 16.3428 47.2815 17.6289C47.4051 18.288 47.9282 20.5049 48.0309 20.7171C48.079 20.8087 48.1416 20.8521 48.278 20.9438C48.416 21.0338 48.5877 21.1479 48.7369 21.3473C49.021 21.7267 49.2247 22.2556 49.4221 22.7668C49.5312 23.0497 49.6323 23.315 49.735 23.5192C51.1263 26.289 52.8208 29.4528 55.3417 31.9462C55.3545 31.951 55.3689 31.9542 55.3818 31.9591C55.5005 31.996 55.7797 32.0812 55.8872 32.3851L55.9145 32.4606V32.5394C55.9161 32.5523 55.9145 32.5635 55.9145 32.5748C55.7348 32.6198 55.5711 32.6616 55.4315 32.7002C55.1058 32.9751 54.5121 33.1294 54.0018 33.2612C53.7771 33.3191 53.5637 33.3754 53.4578 33.422C52.9668 33.639 52.1853 34.3801 51.3108 35.454C50.969 35.8752 49.719 38.5052 49.4735 39.137C48.2234 42.3393 48.4192 45.3906 48.6262 48.6202C48.6968 49.7118 48.769 50.8403 48.7835 51.9881C48.7867 52.21 48.7915 52.4527 48.7963 52.7067C48.8156 53.7211 48.838 54.9815 48.7754 55.8721C48.7113 56.79 48.2267 59.2818 47.9539 60.1033C47.7613 60.6837 47.4965 61.0036 47.1467 61.0823C46.5626 61.2126 45.9978 60.6161 45.4506 60.039C45.3174 59.8975 45.1907 59.7641 45.0703 59.6484C44.2022 58.8156 43.639 58.1774 42.965 57.0055C42.7917 56.7032 42.6312 56.3399 42.4772 55.9879C42.3312 55.6567 42.1819 55.3143 42.0295 55.049C38.6357 49.1234 34.5599 43.6527 31.02 39.0839C29.8486 37.5712 28.8233 35.9668 27.8316 34.4171C26.3714 32.1343 24.993 29.9801 23.1701 28.0462C22.5491 27.387 21.0616 26.0174 20.5497 25.8566C19.9881 25.6798 19.4954 25.7505 19.2339 26.0447C18.9739 26.3373 18.9595 26.8083 19.1954 27.3388C20.5866 30.4592 21.9329 33.5297 23.1203 36.769C23.223 37.0487 23.3049 37.3091 23.2567 37.6451L23.2006 38.039L22.878 37.8075C22.5154 37.5471 22.18 37.113 21.9104 36.7642L21.8687 36.7111C19.8645 34.1165 17.4367 31.9623 14.4424 30.1264C14.2049 29.9801 13.8615 29.8113 13.624 29.7213C12.3243 29.2326 10.6185 29.3162 9.55144 29.5348C8.72825 29.7036 8.08479 30.0058 7.6403 30.4318C7.29209 31.1536 7.55365 31.7131 7.85372 32.3577C7.94679 32.5587 8.04307 32.7661 8.1233 32.9831C9.3316 36.2642 10.7934 39.5148 12.2087 42.6592C13.754 46.0947 15.3538 49.6475 16.6231 53.2485L16.6311 53.279L17.204 55.9621L16.9697 56.0136C16.644 56.0843 16.4691 55.9766 16.2974 55.8705L16.23 55.8287C11.8734 53.2405 6.77219 48.2505 3.98331 44.6607C3.69126 44.2845 3.4265 43.8794 3.17136 43.4872C2.71724 42.7895 2.2872 42.1303 1.7015 41.5966C1.19283 41.3876 0.470736 41.6545 0.116109 42.0355C-0.167914 42.484 0.0727834 42.9727 0.469131 43.6624C0.623178 43.9309 0.769201 44.1849 0.859061 44.4405C1.06927 45.0353 1.26022 45.7474 1.44315 46.4355C1.56832 46.9033 1.69829 47.3888 1.82987 47.8212C2.48296 49.9577 3.06706 52.1618 3.6335 54.295C4.2208 56.5103 4.82735 58.8012 5.51254 61.0116C6.49779 64.193 8.44744 67.8712 10.3586 71.3645C13.7476 77.557 18.7477 83.8009 23.7333 88.0643C27.0565 90.9065 30.8933 93.2729 34.6048 95.5621C36.8353 96.9383 39.1411 98.3594 41.2914 99.8609C41.4422 99.9654 41.6075 100.063 41.7824 100.166C42.1563 100.387 42.543 100.615 42.8463 100.954L42.8848 100.996L42.8992 101.05C42.9843 101.361 43.0773 101.681 43.172 102.004C43.3886 102.745 43.6133 103.51 43.7545 104.235C43.8476 104.713 43.9134 105.11 43.9727 105.462C44.1252 106.376 44.2359 107.037 44.6659 108.264C45.3415 110.19 45.9914 112.164 46.6204 114.074C47.8913 117.937 49.2071 121.932 50.8005 125.732C51.9334 128.436 52.5977 130.741 53.3663 133.41C53.5108 133.913 53.66 134.429 53.8156 134.963C54.3612 136.829 54.9598 137.752 55.8664 139.147C56.0188 139.382 56.1777 139.628 56.3478 139.893C58.6906 143.575 61.2083 147.624 63.7324 152.291C66.4924 157.392 69.4674 162.824 72.8307 168.235C73.0843 168.644 73.3651 169.12 73.6635 169.623C75.2072 172.235 77.3221 175.814 79.5349 176.746C80.5764 177.185 81.0947 177.066 81.5151 176.291C82.924 173.698 82.5164 171.002 82.0863 168.147L82.0045 167.605C81.3273 163.04 79.8527 158.455 78.4277 154.019L78.1967 153.302C77.7843 152.016 77.3125 150.706 76.8584 149.439C75.5378 145.763 74.1722 141.962 73.9347 138.022C73.9235 137.836 73.893 137.641 73.8609 137.435C73.7951 137.012 73.7261 136.575 73.8063 136.115L73.8192 136.042L73.8705 135.988C73.9203 135.937 74.0101 135.874 74.1497 135.879C74.5044 135.887 75.151 136.411 76.0705 137.439C79.3664 141.12 82.311 145.96 85.1592 150.642C86.2761 152.479 87.3319 154.215 88.391 155.854C89.2254 157.143 90.883 159.455 92.624 160.455C93.2162 160.794 94.1549 160.996 94.8015 160.725C95.1401 160.583 95.3616 160.324 95.4578 159.956C95.7531 158.836 95.4097 157.593 95.0792 156.392C94.8914 155.712 94.6972 155.008 94.6234 154.336C93.8564 151.928 93.1006 149.467 92.3673 147.086C90.9905 142.605 89.5656 137.971 88.0171 133.503C87.985 133.411 87.9208 133.318 87.8518 133.22C87.6946 132.995 87.4795 132.686 87.6095 132.235L87.624 132.183L87.6593 132.143C87.8983 131.873 88.3156 132.203 88.8002 132.584C88.8563 132.627 88.9013 132.664 88.9285 132.683C91.0467 134.201 93.0011 135.855 94.893 137.456C96.0082 138.4 97.1604 139.374 98.3366 140.315C98.6078 140.532 98.8966 140.766 99.1983 141.011C100.652 142.191 102.462 143.662 103.948 144.436C104.591 144.772 105.139 144.838 105.447 144.616C105.795 144.367 105.792 143.795 105.726 143.358C105.618 142.639 105.084 142.261 104.519 141.861C104.261 141.678 103.993 141.488 103.768 141.263C102.826 140.321 102.021 138.987 101.243 137.696C100.838 137.024 100.455 136.39 100.066 135.829C98.1023 133.002 95.7675 130.445 93.5114 127.975C92.9337 127.343 92.3368 126.689 91.7511 126.036C91.1526 125.37 90.5589 124.693 89.9844 124.039C87.6962 121.435 85.5363 118.974 82.8838 116.805C78.6347 113.331 74.8526 110.006 71.6144 104.505C71.409 104.155 71.2309 103.764 71.0576 103.385C70.8361 102.898 70.6067 102.393 70.3162 101.973L70.2761 101.914V101.841C70.2697 101.676 70.3515 101.536 70.4927 101.465C70.6628 101.382 70.8827 101.42 71.064 101.567C71.3673 101.811 71.6738 102.078 71.969 102.335C72.5563 102.845 73.1629 103.372 73.7967 103.777C74.4017 104.163 75.1238 104.489 75.8218 104.806C76.3577 105.049 76.8632 105.277 77.3205 105.531C77.7939 105.793 78.2641 106.1 78.7198 106.397C79.2028 106.712 79.7034 107.039 80.1977 107.306C85.5941 110.212 92.8262 111.873 99.2063 113.339C100.211 113.569 101.191 113.794 102.14 114.019C102.623 114.133 103.173 114.207 103.704 114.279C104.344 114.366 105.007 114.456 105.567 114.617C107.25 115.101 108.943 115.752 110.582 116.382C112.283 117.036 114.043 117.713 115.787 118.2C119.552 119.252 122.559 119.71 124.483 119.523C124.908 119.482 125.357 119.335 125.79 119.194C126.15 119.077 126.522 118.954 126.882 118.893C127.1 118.856 127.317 118.853 127.525 118.851C128.045 118.847 128.456 118.843 128.79 118.337C129.401 117.409 128.599 116.599 127.568 115.71C127.437 115.596 127.312 115.488 127.203 115.387C124.545 112.94 122.069 111.508 119.17 110.109C118.985 110.021 118.688 109.908 118.347 109.78C117.141 109.325 116.2 108.939 115.948 108.462C115.834 108.246 115.805 108.044 115.853 107.82L115.883 107.677L116.023 107.638C116.564 107.489 117.125 107.238 117.669 106.995C118.127 106.791 118.598 106.581 119.057 106.431C123.531 104.97 127.413 103.525 131.81 101.224C132.366 100.933 132.93 100.756 133.475 100.586C133.734 100.506 133.998 100.422 134.265 100.327C134.467 100.192 134.541 99.9075 134.565 99.6889C134.635 99.0812 134.411 98.3401 134.172 98.1086C134.123 98.062 133.934 98.0282 133.809 98.0041C133.637 97.9719 133.459 97.9398 133.31 97.8626C133.122 97.7646 132.979 97.5925 132.841 97.427C132.747 97.3128 132.649 97.1939 132.557 97.1312C129.034 94.7182 126.015 93.4835 123.327 93.3549C122.503 93.3147 121.684 93.2215 120.893 93.1299C119.967 93.0221 119.009 92.9112 118.054 92.8935C115.946 92.8517 114.868 92.4032 113.374 91.7827C112.993 91.6251 112.6 91.4612 112.151 91.2875C111.91 91.1943 111.597 91.1252 111.268 91.0528C110.832 90.9564 110.383 90.8567 110.007 90.6831C109.673 90.5288 108.911 90.0593 108.661 89.6719L108.428 89.3102L108.858 89.3005C110.087 89.2716 111.156 88.8424 112.289 88.3874C112.738 88.2074 113.202 88.0209 113.679 87.8601C115.556 87.23 117.241 86.8232 119.024 86.394C119.881 86.1866 120.768 85.9728 121.683 85.7317C122.305 85.5661 122.947 85.2799 123.568 85.0018C124.077 84.7752 124.603 84.5404 125.12 84.37C125.94 84.1016 126.747 83.9151 127.527 83.735C129.239 83.3396 130.855 82.965 132.384 81.7898C132.846 81.4346 133.344 80.9619 133.823 80.5038C134.34 80.0118 134.874 79.5022 135.367 79.1421C135.601 78.9717 135.826 78.9026 136.023 78.8431C136.383 78.7338 136.643 78.6566 136.919 77.9879C137.036 77.7049 137.013 77.4252 136.853 77.1551L136.858 77.1535ZM82.4923 22.1398C82.5934 22.0305 82.7619 21.8633 83.0924 21.9453L83.2465 21.9839L83.2593 22.0611L83.4599 22.1109L84.1178 26.1846L84.0825 26.2939C83.983 26.6025 83.9975 26.9594 84.0119 27.3372C84.0231 27.6426 84.036 27.9593 83.9862 28.2744C83.9317 28.6345 83.7648 28.8596 83.6412 29.0236C83.5931 29.0879 83.5449 29.1522 83.5337 29.1908C83.5129 29.2599 83.508 29.3676 83.5048 29.4817C83.4984 29.6473 83.4904 29.8531 83.4246 30.0573C83.3219 30.374 83.1903 30.6923 83.0636 31.0009C82.8453 31.5298 82.6223 32.0732 82.5485 32.6069L82.1665 32.5217L82.1072 32.533C81.8938 32.5764 81.6836 32.5941 81.4766 32.5941C81.0016 32.5941 80.5394 32.5008 80.0885 32.4108C79.7403 32.3417 79.4098 32.2758 79.0856 32.2532C78.9107 32.242 78.7278 32.2436 78.5336 32.2468C78.2721 32.25 77.9768 32.2549 77.6382 32.2259C76.1235 32.0909 74.5573 31.9526 73.004 31.9173C72.9334 31.9156 72.4809 31.8385 72.0156 31.7147C71.6818 31.6874 71.2517 31.6568 70.7254 31.6295L70.7238 31.6263L70.5521 31.2517L70.8682 31.0411L70.857 31.017L71.0287 30.9029C71.5903 30.5283 72.1199 30.0653 72.6317 29.6168C72.9655 29.3258 73.3105 29.0236 73.6619 28.7471C75.1189 27.6041 76.117 26.9192 77.8549 26.1186C78.4165 25.8598 78.9749 25.4451 79.5253 24.9628C79.9505 24.5802 80.3726 24.1606 80.7898 23.7474C81.2182 23.323 81.6226 22.9227 82.0173 22.5739C82.0992 22.4983 82.1794 22.4292 82.2612 22.3585C82.2741 22.3456 82.2869 22.3344 82.2965 22.3215C82.3399 22.2733 82.404 22.2041 82.4923 22.143V22.1398ZM60.0497 28.4722L60.207 28.3918C60.8119 28.0847 61.3639 27.7343 61.9448 27.289C62.0282 27.2247 62.1117 27.1555 62.1967 27.0816C62.5 26.8051 62.8113 26.4836 63.1162 26.1685C63.4885 25.7827 63.8447 25.4145 64.1961 25.1107C64.3919 24.9322 64.5844 24.7715 64.7738 24.6413C65.1043 24.413 65.4156 24.331 65.69 24.257C65.8665 24.2104 66.035 24.1654 66.1891 24.0866C69.8011 22.2491 72.6654 21.1833 76.0753 20.4117C77.1232 20.1737 78.3684 19.9213 79.6489 19.8474L79.8494 19.8361L79.8687 19.9149L80.0356 19.9053L80.1319 20.2943C80.2506 20.7766 79.973 21.0322 79.8543 21.1415C79.8286 21.1656 79.8109 21.1801 79.7949 21.1994C78.6379 22.5884 76.4684 23.9034 74.5525 25.0641C73.8111 25.5126 73.1115 25.937 72.5387 26.3244C72.0284 26.67 71.5518 27.0253 71.0897 27.3694C69.3904 28.6361 67.7921 29.829 65.1637 30.0348C64.4384 30.091 63.7388 30.0042 63.0648 29.9206C62.6027 29.8627 62.1678 29.8097 61.7731 29.8097C61.7089 29.8097 61.4714 29.8804 61.343 29.9174C61.0622 29.9994 60.7991 30.0782 60.5664 30.0782C60.3931 30.0782 60.2471 30.0348 60.1315 29.9479L59.9775 29.8322L59.7833 28.657L60.0577 28.5188L60.0497 28.4706V28.4722ZM52.9202 24.8197C52.5785 23.9146 52.1163 23.1108 51.6718 22.3327C51.0589 21.2637 50.425 20.1577 50.072 18.7639C49.6291 17.018 49.8008 15.3542 50.5678 13.9555L50.6224 13.8575L50.7813 13.7449L50.8053 13.6999L56.3173 9.82401C57.2384 9.45747 58.3215 9.18097 59.3677 8.91411C60.6563 8.58455 61.9897 8.24374 63.0343 7.73574C65.1589 6.70205 67.3316 5.57673 69.4337 4.48838C70.2087 4.08648 70.9822 3.68619 71.7508 3.29233C71.8005 3.26661 71.8471 3.23445 71.8936 3.19748C71.9385 3.15568 71.9899 3.10906 72.046 3.06244C72.253 2.86953 72.5098 2.6316 72.9976 2.6316H73.0008C73.3667 2.60588 73.5737 2.78915 73.7389 2.93705C73.7534 2.94991 73.771 2.96599 73.7871 2.98367C73.8272 3.01743 73.8657 3.04958 73.8978 3.08013C74.1289 3.28751 74.6055 3.88714 75.3131 4.86456C76.1315 5.99631 76.9691 7.42386 77.5002 8.59259C77.9495 9.57965 78.4903 10.5828 79.0134 11.5522C79.6954 12.8141 80.3998 14.1211 80.9422 15.4603L80.9791 15.5519C81.1412 15.9474 81.3241 16.3943 81.2663 16.9264L81.2182 17.3749L80.7673 17.3556C79.8013 17.317 78.8225 17.3813 77.7762 17.5517C73.4501 18.2607 68.8271 19.7895 64.0308 22.0964C63.7356 22.2379 63.4981 22.4678 63.267 22.6896C63.137 22.815 63.0151 22.9324 62.8787 23.0401L62.6781 23.1992C61.1457 24.4162 59.5603 25.6766 57.9604 26.6057C57.8016 26.699 57.6251 26.7488 57.4566 26.7971C57.2672 26.8517 57.0699 26.908 56.9688 27.0109C56.7698 27.2118 56.7778 27.4529 56.8083 27.8613C56.8388 28.2664 56.8773 28.7712 56.5387 29.2213L56.1263 29.7711L52.9186 24.8181L52.9202 24.8197ZM131.935 79.237C131.2 80.224 129.56 81.1195 126.922 81.9747C124.95 82.6145 122.891 83.1016 120.898 83.5727C118.887 84.0485 116.808 84.5404 114.879 85.1803C114.073 85.4471 113.371 85.7301 112.692 86.0017C111.15 86.6223 109.693 87.2075 107.525 87.365C106.759 87.4213 105.984 87.3971 105.237 87.3746C104.768 87.3602 104.285 87.3457 103.818 87.3521C103.134 87.3602 102.889 87.5 102.727 87.9711C102.502 88.6254 102.53 88.7877 102.96 89.2973C103.407 89.8294 103.903 89.9613 104.474 90.114C104.765 90.1912 105.065 90.2715 105.386 90.4066C105.976 90.6574 106.588 91.0239 107.18 91.3792C107.682 91.6814 108.157 91.966 108.605 92.1749C109.054 92.3855 109.548 92.5383 110.026 92.6861C110.456 92.8196 110.903 92.9578 111.323 93.1395C111.849 93.3662 112.336 93.6571 112.807 93.9369C113.765 94.5092 114.67 95.0493 115.853 95.0542C115.932 95.0542 116.031 95.0268 116.137 94.9963C116.288 94.9545 116.463 94.9062 116.65 94.9111L117.209 94.9271C120.71 95.0236 124.678 95.1345 127.939 96.591C128.616 96.8932 129.271 97.2614 129.906 97.6151C130.229 97.7951 130.563 97.9832 130.893 98.1568L130.943 98.1825L130.977 98.2276C131.079 98.3706 131.12 98.5314 131.094 98.6954C131.041 99.0233 130.733 99.2805 130.505 99.4445C129.536 100.145 128.093 100.758 126.822 101.298C126.424 101.467 126.049 101.628 125.709 101.78C122.392 103.275 118.483 104.785 113.759 106.396C113.523 106.476 113.273 106.531 113.03 106.585C112.137 106.783 111.589 106.947 111.567 107.815C111.557 108.217 112.056 108.854 112.456 109.076C112.632 109.172 112.838 109.219 113.054 109.269C113.253 109.314 113.459 109.36 113.659 109.449C114.08 109.633 114.507 109.929 114.958 110.243C115.42 110.563 115.898 110.894 116.352 111.085C116.954 111.338 117.58 111.574 118.184 111.802C119.897 112.45 121.667 113.119 123.213 114.254L123.258 114.287L123.284 114.337C123.351 114.464 123.761 114.768 124.091 115.011C124.938 115.638 125.816 116.284 125.431 116.837L125.394 116.89L125.336 116.918C124.675 117.228 124.098 117.236 123.486 117.245C123.303 117.249 123.116 117.25 122.921 117.262C119.364 117.466 115.234 115.983 111.588 114.673C110.508 114.286 109.487 113.919 108.507 113.603C104.917 112.442 101.103 111.543 97.4155 110.674C93.0236 109.638 88.4824 108.568 84.2365 107.04C82.9544 106.579 81.8103 105.83 80.7047 105.106C80.1142 104.721 79.5044 104.32 78.8947 103.981C78.2994 103.65 77.6559 103.349 76.9739 103.029C75.6613 102.414 74.3022 101.777 73.2479 100.895C72.8997 100.602 72.5724 100.243 72.2579 99.8978C71.9064 99.512 71.5438 99.115 71.1619 98.8208C70.4623 98.2838 67.8162 96.8466 67.3043 96.8756C66.9064 96.9608 66.5758 97.1858 66.3993 97.4961C66.234 97.7838 66.2083 98.1199 66.3255 98.4687C66.3688 98.5957 66.4795 98.7195 66.5967 98.8497C66.7122 98.9783 66.8309 99.1101 66.916 99.2741C67.062 99.5554 67.1519 99.8753 67.2385 100.186C67.322 100.485 67.4102 100.795 67.545 101.054C67.6333 101.223 67.8242 101.457 68.0071 101.686C68.2238 101.954 68.4484 102.23 68.5591 102.46C69.8974 105.248 71.7989 108.225 73.9122 110.846C75.8025 113.188 78.1277 115.131 80.3758 117.012C82.1184 118.47 83.922 119.977 85.5379 121.678C87.1795 123.403 88.7697 125.237 90.3101 127.01C91.2569 128.102 92.2373 129.23 93.213 130.315C93.8532 131.027 94.5641 131.746 95.2524 132.442C96.0371 133.235 96.8475 134.055 97.5696 134.879C97.6739 134.998 98.9271 137.098 98.9881 137.292C99.0571 137.511 99.025 137.668 98.8966 137.762C98.6687 137.926 98.3735 137.709 98.0895 137.498L98.0574 137.475C97.6386 137.168 97.0545 136.59 96.4912 136.03C95.8574 135.402 95.1401 134.69 94.8032 134.529C94.6924 134.476 94.5737 134.46 94.4373 134.442C94.2239 134.413 93.9575 134.376 93.6606 134.182C93.2659 133.923 92.754 133.41 92.2598 132.916C91.91 132.566 91.5794 132.235 91.3034 132.005C90.6728 131.478 90.0004 130.97 89.3506 130.479C88.8323 130.089 88.2963 129.683 87.7828 129.27C87.5614 129.092 87.3383 128.875 87.1024 128.645C86.3467 127.907 85.5652 127.145 84.6602 127.417C84.3072 127.523 83.8883 128.32 83.983 128.709C84.0135 128.835 84.1194 128.984 84.2237 129.13C84.3312 129.28 84.4419 129.436 84.5045 129.606C84.6794 130.079 84.8078 130.473 84.9314 130.854C85.1351 131.482 85.3277 132.077 85.6984 132.889C86.8345 135.387 87.6464 138.083 88.4311 140.689C88.8034 141.929 89.1901 143.208 89.6025 144.443C89.8384 145.145 90.0775 145.853 90.3182 146.563C90.968 148.481 91.6404 150.463 92.2437 152.413C92.6561 153.746 92.9418 155.177 93.2178 156.561C93.2659 156.8 93.3124 157.038 93.3606 157.275C93.4183 157.559 93.3108 157.693 93.2113 157.754C92.9674 157.905 92.6096 157.696 92.3513 157.493C90.7594 156.244 88.2658 152.452 86.6162 149.942C86.2793 149.43 85.976 148.97 85.7224 148.594C84.9249 147.412 84.1451 146.182 83.3203 144.88C80.7176 140.773 78.025 136.527 74.6215 133.603C74.0503 133.112 73.3217 132.563 72.7585 132.675C72.4809 132.73 72.2514 132.944 72.0573 133.328C71.8856 133.667 71.9241 133.828 71.9835 134.071C72.0204 134.225 72.0637 134.4 72.0573 134.632C72.046 135.009 71.8984 135.509 71.7684 135.951C71.6786 136.257 71.5855 136.574 71.5807 136.717C71.5695 137.162 71.8952 138.418 72.1102 139.249C72.1985 139.586 72.2739 139.879 72.3204 140.083C72.9848 143.03 74.0519 147.253 75.3693 150.647C76.507 153.576 77.6479 157.058 78.6668 160.718L78.7118 160.879C79.7451 164.586 81.162 169.661 80.233 173.438C80.2217 173.481 80.2169 173.524 80.2121 173.566C80.1896 173.737 80.1591 173.97 79.8735 174.138L79.7275 174.225L79.5975 174.116C77.1857 172.103 75.5378 169.327 73.9443 166.642C73.5913 166.047 73.2255 165.433 72.8612 164.843C70.7222 161.379 68.4613 157.67 66.3977 153.775C65.6611 152.384 64.9407 150.952 64.2442 149.568C62.7904 146.677 61.2869 143.687 59.5426 140.893C57.0169 136.845 56.1456 134.733 54.8137 130.437C54.2088 128.484 53.4081 126.61 52.6346 124.798C51.8628 122.988 51.0637 121.115 50.4732 119.192C49.2247 115.127 47.9956 111.167 46.8194 107.421C45.9914 104.782 45.7828 102.645 45.7234 100.25C45.7058 99.5201 45.3447 98.9879 44.5504 98.525C43.663 98.0057 42.6858 97.5668 41.7407 97.1424C40.8437 96.7405 39.9178 96.3242 39.0561 95.8354C37.2749 94.8259 35.2274 93.5752 33.8249 92.7038C21.3921 84.9841 13.1763 75.4205 7.97407 62.608C7.08991 60.4297 6.54272 58.1083 6.01319 55.8641C5.73238 54.6744 5.44193 53.443 5.10817 52.2646C5.07126 52.1376 4.94931 51.7888 4.8081 51.3853C3.92073 48.8501 3.92554 48.7022 4.07798 48.5415L4.12612 48.49L4.19512 48.4739C4.53852 48.3887 4.70701 48.572 4.80649 48.6813C4.83056 48.7086 4.85624 48.7376 4.88833 48.7633C5.83347 49.5542 6.70961 50.4818 7.55526 51.3789C8.15379 52.0139 8.77318 52.6698 9.40381 53.2614C10.426 54.2211 11.7482 55.086 13.0255 55.9235C13.6545 56.3351 14.2482 56.7241 14.8099 57.1244C15.2993 57.4733 15.8401 57.9234 16.3648 58.3575C17.0997 58.9667 17.8587 59.5985 18.507 59.9843C19.1087 60.3412 19.6623 60.4522 20.1068 60.3059C20.4759 60.1837 20.7647 59.8815 20.9669 59.4088C21.0038 59.2272 20.8482 58.7449 20.7808 58.5359L20.7567 58.462C19.2114 53.6231 17.0066 48.9932 14.8757 44.5176C13.4491 41.5227 11.9745 38.4264 10.7036 35.282C10.5094 34.8029 10.3618 34.3029 10.219 33.819C10.0553 33.266 9.88681 32.6937 9.64932 32.1648L9.60118 32.0571L9.65574 31.9526C10.3217 30.6955 12.2697 30.9929 13.4379 31.6054C14.7393 32.2886 15.7871 33.2548 16.798 34.1904C16.9649 34.3447 17.1318 34.4991 17.3003 34.6518C19.5532 36.7031 20.662 38.3107 22.3405 40.743L22.5828 41.0934C22.7609 41.3507 22.9294 41.6545 23.1091 41.9744C23.6386 42.9229 24.2372 43.9968 25.2337 44.1157C25.8691 44.1913 25.975 44.0675 26.2285 43.7685C26.3328 43.6447 26.4596 43.4968 26.6425 43.3376C26.7629 40.8571 26.036 38.6804 25.2144 36.4861L25.2096 36.47C25.0716 36.0054 24.7892 35.4845 24.5164 34.9797C24.2243 34.4412 23.9243 33.8834 23.7895 33.3802C23.7221 33.1262 23.6659 32.8513 23.8264 32.6696C23.8761 32.6133 23.9868 32.5249 24.181 32.5523L24.3816 32.5812L24.388 32.7838C24.3928 32.9429 24.4971 33.049 24.6672 33.2098C24.7811 33.3175 24.8983 33.4284 24.9817 33.5779C26.6859 36.6452 28.5216 39.0823 30.4632 41.6609C30.9173 42.2654 31.3811 42.8811 31.856 43.5193C34.9883 47.7425 37.4627 51.538 39.4203 55.123L39.7509 55.7306C41.7551 59.4153 43.2041 62.0774 47.182 64.0194C47.2911 64.0725 47.373 64.1577 47.4436 64.2316C47.4981 64.2879 47.5543 64.3474 47.596 64.3602C47.8014 64.4245 48.5877 64.4245 48.8268 64.3634C48.9857 64.267 49.6099 63.6593 49.6869 63.5371C49.7543 63.3941 49.8907 62.952 49.9998 62.5967C50.0704 62.3684 50.1362 62.1514 50.1891 62.0019C51.0252 59.576 51.4119 57.0312 51.3413 54.4397C51.3092 53.2839 51.2578 52.0959 51.2081 50.9464C51.1359 49.2697 51.0605 47.5367 51.0444 45.8728C51.0219 43.6061 51.0717 41.8426 51.927 39.7704C52.2575 38.9698 53.7868 36.3751 54.5714 35.8044C55.3641 35.2289 58.896 33.8705 59.8555 33.7178C60.9595 33.5409 63.4259 33.2355 64.854 33.348C65.4959 33.3979 66.173 33.5007 66.8277 33.6004C67.4054 33.6872 68.0007 33.7772 68.564 33.8303C69.7257 33.9396 70.9164 34.0345 72.0701 34.1277C74.3856 34.3126 76.7798 34.5055 79.1257 34.8206C80.18 34.9621 81.2519 35.1534 82.2885 35.3382C83.5193 35.5569 84.7918 35.7835 86.0386 35.9282C86.2263 35.9507 86.4269 35.9411 86.6403 35.9314C86.8345 35.9218 87.035 35.9121 87.2324 35.9282L87.4025 35.9411L87.4474 36.1051C87.4972 36.2883 87.4828 36.4426 87.4057 36.5664C87.2806 36.7642 87.0431 36.806 86.8345 36.8429C86.1044 36.9732 85.3133 37.0921 84.7051 37.1629C83.2481 37.3317 81.751 37.404 80.3036 37.4731C79.8029 37.4972 79.3039 37.5214 78.8048 37.5487C77.8757 37.6001 77.1103 37.74 76.3016 37.8879C75.7785 37.9827 75.2377 38.0808 74.6343 38.1596C74.1401 38.2239 73.6346 38.2625 73.1003 38.3026C71.2437 38.4457 69.3246 38.5936 67.9574 39.8025C67.2225 40.452 66.6143 41.2719 66.027 42.0628C65.6628 42.5531 65.2873 43.0595 64.8877 43.5161C64.8011 43.6158 64.6823 43.6865 64.5572 43.7621C64.4031 43.8537 64.2442 43.9485 64.1464 44.0964C63.5189 45.0304 62.8771 47.5785 62.9156 48.6009C62.9878 50.5236 62.8033 52.4511 62.6236 54.3143C62.5497 55.0828 62.4727 55.8785 62.4166 56.6614C62.3331 57.806 62.0026 58.9217 61.6527 60.1033C61.3045 61.2817 60.9435 62.4986 60.8456 63.759L60.8376 63.8667C60.714 65.4502 60.7076 65.4807 60.1765 67.0417C60.0096 67.5336 60.0192 68.1011 60.0288 68.6493C60.0353 68.9966 60.0417 69.3567 60.0032 69.6991C59.9342 70.3244 59.7224 70.8469 59.5186 71.3533C59.4046 71.6362 59.2955 71.9047 59.2201 72.1748C59.0741 72.6908 59.0644 73.4078 59.4736 73.8724C60.4091 74.9366 61.5163 74.3081 62.6861 73.6441C63.0247 73.4512 63.3456 73.2696 63.6618 73.1313C65.5921 72.2857 67.6798 71.6829 69.6968 71.0993C71.9883 70.437 74.3054 70.7569 76.5471 71.0671C77.0862 71.1411 77.6447 71.2183 78.1918 71.281C80.9679 71.5944 82.932 71.7407 85.3566 71.6153C87.2276 71.5189 89.0457 71.5977 90.8028 71.6748C91.7511 71.7166 92.7316 71.76 93.7168 71.7745C96.9068 71.8243 99.5802 72.17 101.886 72.8291C109.277 74.9398 115.692 76.2806 121.5 76.9236C122.438 77.0281 123.353 77.1149 124.239 77.2001C126.397 77.4075 128.437 77.6036 130.702 78.0104C130.831 78.0329 130.999 78.0393 131.164 78.0441C131.59 78.0586 132.029 78.0731 132.182 78.3914C132.32 78.6791 132.111 79.0135 131.943 79.2402L131.935 79.237Z" fill="black"/>
</svg>
