<svg width="158" height="164" viewBox="0 0 158 164" fill="none" xmlns="http://www.w3.org/2000/svg">
<g clip-path="url(#clip0_110_625)">
<path d="M111.191 26.1393H46.7045L6.74547 23.0417C4.91301 22.8963 3.20226 22.0682 1.95272 20.7217C0.703172 19.3752 0.00616002 17.6087 0 15.7729L0 10.3664C0.0103181 8.53586 0.706479 6.7755 1.95141 5.43194C3.19634 4.08839 4.89982 3.25899 6.72644 3.10707L46.9043 0H111.314L151.274 3.09757C153.1 3.24949 154.804 4.07889 156.049 5.42244C157.294 6.766 157.99 8.52635 158 10.3569V15.7729C157.992 17.6041 157.296 19.3656 156.051 20.7096C154.806 22.0537 153.101 22.8824 151.274 23.0322L111.191 26.1393ZM47.009 20.9038H110.982L150.864 17.8063C151.379 17.7749 151.861 17.5491 152.215 17.175C152.568 16.8008 152.766 16.3063 152.767 15.7919V10.3664C152.766 9.85201 152.568 9.35747 152.215 8.9833C151.861 8.60914 151.379 8.38342 150.864 8.35203L110.982 5.25446H47.009L7.13554 8.35203C6.62224 8.38562 6.1407 8.61202 5.78771 8.98571C5.43472 9.35939 5.23644 9.85267 5.23273 10.3664V15.7729C5.23644 16.2866 5.43472 16.7799 5.78771 17.1536C6.1407 17.5273 6.62224 17.7537 7.13554 17.7873L47.009 20.9038Z" fill="#010101"/>
<path d="M44.7827 157.083C44.7827 156.323 45.658 155.705 47.7416 154.536C50.1201 153.197 53.3739 151.363 53.3739 147.4C53.3739 143.438 50.1201 141.614 47.7416 140.274C45.658 139.105 44.7827 138.497 44.7827 137.737C44.7827 136.977 45.658 136.369 47.7416 135.191C50.1201 133.851 53.3739 132.017 53.3739 128.064C53.3739 123.855 49.0355 122.145 45.5438 120.777C44.1548 120.235 41.2815 119.104 41.0532 118.373C41.2815 117.67 44.1548 116.539 45.5438 115.997C49.0355 114.629 53.3739 112.928 53.3739 108.709C53.3739 104.757 50.1201 102.923 47.7416 101.583C46.029 100.633 45.1347 100.034 44.8873 99.4262C46.3525 98.476 51.3759 97.4118 54.468 96.7752C62.222 95.1884 68.3395 93.9247 68.3395 89.3639C68.3395 84.803 62.7452 83.4728 56.8275 81.9715C54.3538 81.3444 50.2818 80.3087 49.2923 79.406C49.3805 78.3072 49.8921 77.2853 50.7195 76.5555C52.4407 74.815 53.4019 72.4646 53.3929 70.0183C53.3929 65.7805 48.9308 64.0892 45.344 62.721C43.9359 62.1794 40.9866 61.0582 40.6916 60.3551C40.9771 59.6329 43.9359 58.4547 45.344 57.9701C48.9308 56.6019 53.3929 54.9011 53.3929 50.6728V23.6783H48.1031V50.6538C47.8082 51.3854 44.8588 52.5066 43.4412 53.0482C39.8544 54.4165 35.3923 56.1078 35.3923 60.3455C35.3923 64.5833 39.8544 66.2746 43.4412 67.6429C44.8588 68.175 47.8082 69.3057 48.0936 70.0183C48.0936 71.4721 47.5893 72.0612 46.6665 73.1539C44.9417 74.8929 43.977 77.2434 43.9835 79.6911C43.9835 84.1569 49.5778 85.5727 55.505 87.0739C57.8763 87.595 60.1971 88.3231 62.4408 89.2498C60.538 90.143 56.171 91.0457 53.3739 91.6253C45.6294 93.2121 39.5024 94.4758 39.5024 99.0366C39.5024 102.989 42.7657 104.833 45.1442 106.163C47.2278 107.341 48.0936 107.949 48.0936 108.719C47.8652 109.432 44.9825 110.553 43.6029 111.094C40.1113 112.472 35.7634 114.173 35.7634 118.382C35.7634 122.591 40.1113 124.302 43.6029 125.68C44.9825 126.221 47.8652 127.342 48.0936 128.064C48.0936 128.825 47.2278 129.433 45.1442 130.611C42.7657 131.951 39.5024 133.784 39.5024 137.737C39.5024 141.69 42.7657 143.524 45.1442 144.864C47.2278 146.032 48.0936 146.65 48.0936 147.4C48.0936 148.151 47.2278 148.778 45.1442 149.947C42.7657 151.287 39.5024 153.121 39.5024 157.083C39.5024 160.883 42.4422 162.679 44.7732 164L44.7827 157.083Z" fill="#010101"/>
<path d="M114.968 156.997C114.968 156.237 114.083 155.639 111.98 154.489C109.592 153.178 106.272 151.391 106.272 147.429C106.272 143.467 109.459 141.604 111.819 140.236C113.883 139.039 114.749 138.412 114.74 137.661C114.73 136.911 113.855 136.302 111.752 135.153C109.355 133.842 106.044 132.046 106.044 128.093C105.996 123.884 110.316 122.126 113.788 120.71C115.168 120.15 118.031 118.981 118.25 118.249C118.012 117.546 115.12 116.453 113.731 115.931C110.22 114.61 105.863 112.957 105.806 108.738C105.758 104.785 108.993 102.913 111.353 101.545C113.056 100.595 113.94 99.9583 114.207 99.3597C112.732 98.4095 107.699 97.4594 104.598 96.8227C96.8246 95.3215 90.688 94.1432 90.6309 89.5824C90.5738 85.0216 96.1491 83.6248 102.048 82.0475C104.521 81.3919 108.574 80.3087 109.554 79.3871C109.453 78.2856 108.932 77.2652 108.099 76.5365C106.353 74.817 105.361 72.4765 105.34 70.0278C105.283 65.7996 109.726 64.0417 113.293 62.6355C114.701 62.0749 117.632 60.9157 117.917 60.2125C117.622 59.4904 114.654 58.4072 113.236 57.8846C109.631 56.5639 105.149 54.9201 105.092 50.6823L104.721 23.7544L109.992 23.6879L110.363 50.6253C110.658 51.3474 113.626 52.4401 115.054 52.9627C118.65 54.2835 123.131 55.9273 123.188 60.1555C123.245 64.3838 118.802 66.1416 115.234 67.5479C113.817 68.1085 110.886 69.2677 110.61 69.9803C110.61 71.4341 111.143 72.0232 112.076 73.0969C113.818 74.8188 114.809 77.1578 114.835 79.6056C114.892 84.0714 109.317 85.5632 103.418 87.131C101.049 87.6785 98.7335 88.4385 96.5011 89.4019C98.4039 90.2665 102.79 91.1122 105.597 91.6538C113.37 93.1551 119.506 94.3333 119.554 98.8941C119.611 102.856 116.376 104.728 114.007 106.096C111.942 107.294 111.077 107.921 111.086 108.69C111.334 109.394 114.216 110.486 115.605 111.009C119.116 112.339 123.483 113.983 123.531 118.202C123.578 122.42 119.259 124.169 115.786 125.585C114.416 126.145 111.552 127.304 111.324 128.026C111.324 128.787 112.218 129.385 114.311 130.535C116.709 131.846 120.02 133.642 120.02 137.595C120.02 141.547 116.833 143.419 114.473 144.788C112.399 145.985 111.543 146.612 111.552 147.362C111.562 148.113 112.437 148.731 114.53 149.871C116.928 151.182 120.239 152.978 120.239 156.931C120.286 160.731 117.384 162.565 115.054 163.924L114.968 156.997Z" fill="#010101"/>
</g>
<defs>
<clipPath id="clip0_110_625">
<rect width="158" height="164" fill="white"/>
</clipPath>
</defs>
</svg>
