<svg width="706" height="78" viewBox="0 0 706 78" fill="none" xmlns="http://www.w3.org/2000/svg">
<path d="M0.0952238 35.3309V35.2227C0.162978 34.5613 0.482056 33.9482 0.990084 33.5033C1.49811 33.0584 2.15857 32.8137 2.84235 32.817C3.52941 32.8155 4.19299 33.0599 4.70651 33.5036C5.22003 33.9473 5.54755 34.5592 5.62659 35.2227C5.64758 35.8473 5.47779 36.4639 5.13864 36.9948C4.79949 37.5257 4.30617 37.9471 3.72093 38.2058C2.88012 38.6273 2.10174 39.1574 1.40691 39.7815C1.21518 39.983 1.06032 40.2149 0.949059 40.4671V40.9844H5.97308V41.67H0.00860284V41.5858C-0.0236078 41.1779 0.0348695 40.7681 0.180063 40.3841C0.325256 40.0001 0.553763 39.651 0.850064 39.3605C1.60262 38.6636 2.4327 38.0504 3.32495 37.5322C4.76038 36.63 4.78513 35.9324 4.78513 35.4392V35.3309C4.74959 34.8481 4.53375 34.3946 4.17823 34.0556C3.82271 33.7167 3.35202 33.5157 2.85472 33.4906C2.35039 33.5019 1.86901 33.6977 1.50662 34.0388C1.14422 34.3799 0.927452 34.8413 0.899562 35.3309H0.0952238Z" fill="#1D1D1B"/>
<path d="M14.5733 34.092C15.1228 35.0498 15.3924 36.1354 15.3529 37.2314C15.3968 38.347 15.1273 39.4531 14.5733 40.4311C14.3669 40.8237 14.0534 41.1537 13.6672 41.3849C13.2809 41.6162 12.8367 41.7397 12.383 41.7422C11.9294 41.7397 11.4852 41.6162 11.0989 41.3849C10.7126 41.1537 10.3992 40.8237 10.1928 40.4311C9.6388 39.4531 9.36929 38.347 9.41317 37.2314C9.37371 36.1354 9.64329 35.0498 10.1928 34.092C10.4045 33.7035 10.7192 33.3771 11.1043 33.1466C11.4894 32.916 11.9309 32.7898 12.383 32.7809C12.8367 32.7833 13.2809 32.9069 13.6672 33.1381C14.0534 33.3693 14.3669 33.6993 14.5733 34.092ZM10.861 34.5972C10.4605 35.4191 10.2695 36.3226 10.3041 37.2314C10.2674 38.1559 10.4583 39.0756 10.861 39.9138C10.9916 40.2092 11.202 40.4648 11.47 40.6533C11.738 40.8418 12.0535 40.9562 12.383 40.9844C12.7276 40.9633 13.0587 40.8468 13.3372 40.6485C13.6157 40.4503 13.8299 40.1786 13.9546 39.8657C14.3615 39.0285 14.5567 38.1088 14.5238 37.1833C14.5545 36.2735 14.3593 35.37 13.9546 34.5491C13.8195 34.2482 13.601 33.9899 13.3234 33.8029C13.0459 33.616 12.7202 33.5078 12.383 33.4906C12.0429 33.5156 11.7167 33.6324 11.4413 33.828C11.1658 34.0235 10.9519 34.2899 10.8239 34.5972H10.861Z" fill="#1D1D1B"/>
<path d="M18.1248 40.9844C18.1273 40.8269 18.178 40.6737 18.2703 40.5443C18.3627 40.4148 18.4925 40.3151 18.6434 40.2576C18.7943 40.2001 18.9593 40.1876 19.1176 40.2216C19.2758 40.2555 19.42 40.3345 19.5319 40.4484C19.6439 40.5623 19.7184 40.706 19.7461 40.8612C19.7738 41.0164 19.7533 41.1761 19.6874 41.3199C19.6214 41.4638 19.5129 41.5853 19.3757 41.6691C19.2384 41.7528 19.0787 41.795 18.9167 41.7903C18.7023 41.784 18.499 41.6959 18.3508 41.5451C18.2026 41.3943 18.1214 41.1929 18.1248 40.9844Z" fill="#1D1D1B"/>
<path d="M44.1482 33.6108H41.0298V41.6459H40.2255V33.6108H37.1319V32.8891H44.1482V33.6108Z" fill="#1D1D1B"/>
<path d="M51.9812 32.8891V38.5786C51.9812 40.5393 51.1397 41.7061 48.9495 41.7061C48.2227 41.7999 47.4869 41.6151 46.8979 41.1908C46.3089 40.7664 45.913 40.1359 45.794 39.4327L46.5859 39.156C46.6514 39.6912 46.9278 40.1808 47.3571 40.5218C47.7864 40.8628 48.3351 41.0286 48.8876 40.9844C50.5334 40.9844 51.1397 40.0341 51.1397 38.4704V32.8891H51.9812Z" fill="#1D1D1B"/>
<path d="M57.0423 34.0078C57.3756 33.6294 57.7894 33.3259 58.2552 33.1182C58.7209 32.9105 59.2275 32.8036 59.74 32.8049C60.2449 32.8058 60.7435 32.9139 61.2009 33.1216C61.6583 33.3294 62.0635 33.6318 62.3881 34.0078C63.1593 34.9242 63.5558 36.0848 63.5018 37.2675C63.5498 38.4512 63.159 39.6122 62.4005 40.5393C62.0718 40.9137 61.6641 41.2149 61.205 41.4225C60.7459 41.63 60.2463 41.7391 59.74 41.7422C59.2258 41.7428 58.7176 41.6357 58.25 41.4281C57.7823 41.2205 57.3662 40.9174 57.03 40.5393C56.2659 39.6191 55.8703 38.4612 55.9163 37.2796C55.8626 36.0912 56.2638 34.9256 57.0423 34.0078ZM57.6239 40.0221C57.8686 40.3361 58.1847 40.5907 58.5475 40.766C58.9104 40.9413 59.31 41.0325 59.7152 41.0325C60.1204 41.0325 60.5201 40.9413 60.8829 40.766C61.2457 40.5907 61.5619 40.3361 61.8065 40.0221C62.4074 39.2393 62.7132 38.2795 62.6727 37.3036C62.7092 36.3282 62.4038 35.3697 61.8065 34.5852C61.5634 34.269 61.2478 34.0124 60.8847 33.8356C60.5217 33.6588 60.1213 33.5667 59.7152 33.5667C59.3092 33.5667 58.9087 33.6588 58.5457 33.8356C58.1827 34.0124 57.867 34.269 57.6239 34.5852C57.0177 35.3659 56.7073 36.3261 56.7453 37.3036C56.7119 38.2694 57.0222 39.2168 57.6239 39.986V40.0221Z" fill="#1D1D1B"/>
<path d="M73.5622 40.1063C73.2854 40.5925 72.8902 41.0055 72.4114 41.3091C71.9265 41.6176 71.3573 41.7769 70.7779 41.7662C70.2655 41.7675 69.7589 41.6606 69.2932 41.453C68.8274 41.2453 68.4136 40.9417 68.0803 40.5634C67.3184 39.6374 66.9232 38.4766 66.9666 37.2916C66.903 36.1022 67.2954 34.9322 68.0679 34.0078C68.6482 33.3225 69.4832 32.8875 70.3915 32.7974C71.2999 32.7073 72.2081 32.9694 72.9187 33.5266C73.6059 34.0614 74.0929 34.8011 74.3047 35.6316H73.5127C73.3067 35.0155 72.9248 34.469 72.4114 34.0559C71.9455 33.7024 71.3688 33.5156 70.7779 33.5266C70.3717 33.5302 69.9715 33.6229 69.6072 33.7979C69.2429 33.9728 68.924 34.2255 68.6743 34.537C68.0655 35.3171 67.7509 36.2769 67.7833 37.2555C67.7452 38.2423 68.06 39.2115 68.6743 39.998C68.9247 40.308 69.244 40.5589 69.6083 40.7318C69.9726 40.9047 70.3725 40.9952 70.7779 40.9964C71.1398 40.9902 71.4965 40.9124 71.8263 40.7676C72.1561 40.6228 72.452 40.4142 72.696 40.1544C73.2739 39.5291 73.5993 38.7215 73.6117 37.881H70.8646V37.1593H74.3542V41.6459H73.5622V40.1063Z" fill="#1D1D1B"/>
<path d="M84.9467 33.6108H79.9103V36.8465H84.5507V37.5682H79.9103V40.9122H85.3922V41.6459H79.2049V32.8891H85.0333L84.9467 33.6108Z" fill="#1D1D1B"/>
<path d="M95.6629 33.6108H92.5446V41.6459H91.7526V33.6108H88.659V32.8891H95.6629V33.6108Z" fill="#1D1D1B"/>
<path d="M60.4824 25.1668H62.5861V25.4434C61.3486 25.3713 59.9998 25.2871 58.7129 25.251C58.3912 25.251 58.0694 25.4675 57.7353 25.5036C56.0153 25.7201 54.2828 25.9005 52.5628 26.1291C50.521 26.3937 48.4669 26.6583 46.4375 27.0192C44.4081 27.38 42.7251 27.789 40.8442 28.222C38.9633 28.6551 37.1319 29.1122 35.3623 29.6294C33.6011 30.0757 31.9284 30.8033 30.4126 31.7825C29.6454 32.3238 28.6925 32.6365 27.9377 33.1658C27.134 33.6443 26.4589 34.3018 25.9683 35.0841C25.4777 35.8663 25.1857 36.7508 25.1163 37.6645C25.0086 38.6733 25.2228 39.69 25.7297 40.5765C26.2366 41.463 27.0118 42.1765 27.9501 42.6203C28.7049 43.0172 29.3236 43.6427 30.0908 43.9795C31.0657 44.4012 32.0813 44.7276 33.1226 44.9538C34.4219 45.2425 35.7459 45.4109 37.0576 45.6394C38.3693 45.868 39.4335 46.0845 40.6338 46.2168C41.8342 46.3491 43.1087 46.4093 44.4452 46.4694C45.9796 46.5536 47.5017 46.6258 49.0361 46.6378C50.5705 46.6498 52.4886 46.5536 54.2086 46.5295C55.2233 46.5295 56.238 46.5295 57.2527 46.5295C58.6015 46.5295 59.938 46.3491 61.2868 46.2649C62.9326 46.1446 64.5784 46.0965 66.2365 45.9161C67.5482 45.7717 68.8352 45.447 70.1345 45.2425C70.5045 45.2008 70.8782 45.2008 71.2482 45.2425V45.4831C71.1244 45.5793 71.0007 45.7236 70.8646 45.7477C69.095 46.1085 67.3255 46.4814 65.5436 46.7701C63.4399 47.1069 61.3239 47.4197 59.2079 47.6121C57.0918 47.8046 54.9016 47.8647 52.7484 47.985C51.6842 47.985 50.62 48.1053 49.5682 48.1173C48.5164 48.1293 47.6502 48.0451 46.6849 48.0091C45.7197 47.973 44.8783 48.0091 43.9873 48.0091C42.6633 47.9249 41.3392 47.8046 40.0275 47.6602C38.357 47.4798 36.674 47.3475 35.0777 47.0347C33.6834 46.744 32.3109 46.3622 30.9694 45.892C29.9618 45.6061 28.9936 45.2022 28.0862 44.6892C27.0293 44.0293 26.0501 43.2589 25.1658 42.3917C24.448 41.8171 23.8834 41.0826 23.52 40.2506C23.0897 39.0639 23.039 37.7783 23.3748 36.5631C23.7105 35.3479 24.4169 34.2599 25.4009 33.4424C27.0982 32.0244 29.0259 30.8903 31.1055 30.0865C34.1773 28.7433 37.4124 27.7853 40.7328 27.2357C43.0592 26.7786 45.3609 26.2493 47.6749 25.7923C48.9123 25.5517 50.1498 25.3953 51.3872 25.2269C53.2805 24.9743 55.1738 24.6616 57.0671 24.5052C58.9604 24.3488 60.7794 24.3849 62.5737 24.3127L66.0757 24.1443C66.9048 24.1443 67.7462 24.012 68.5506 24C70.3201 24 72.0773 24 73.8468 24C75.6163 24 77.4478 24.1443 79.2421 24.2887C79.935 24.3488 80.5909 24.6736 81.2838 24.7939C82.1995 24.9623 83.1276 25.0224 84.0433 25.1668C86.3202 25.5036 88.5971 25.8524 90.8616 26.2373C92.7426 26.5621 94.574 26.8628 96.492 27.2958C98.1434 27.6792 99.7712 28.1531 101.368 28.7152C102.779 29.2128 104.148 29.8161 105.463 30.5195C106.54 31.1077 107.556 31.7966 108.495 32.5764C109.384 33.3479 109.923 34.4306 109.992 35.5872C110.062 36.7438 109.657 37.88 108.866 38.747C107.793 39.8031 106.536 40.6664 105.154 41.2971C103.162 42.2594 101.071 43.0413 98.9669 43.8833C97.7295 44.4005 96.492 44.9297 95.2546 45.3507C93.6335 45.9041 91.9753 46.3972 90.3048 46.8663C87.6072 47.6362 84.8848 48.3699 82.1748 49.1277C81.1972 49.4044 80.2444 49.7291 79.2544 49.9577C76.6929 50.5591 74.1067 51.1606 71.5328 51.6898C70.2953 51.9665 69.0579 52.3394 67.7462 52.5679C66.0262 52.8806 64.2938 53.0972 62.549 53.3137C60.4206 53.5783 58.2922 53.9271 56.1514 53.9993C54.581 54.0115 53.0136 53.8663 51.4739 53.5663C50.9665 53.4821 50.5581 52.9288 50.0384 52.5438C50.3426 52.2866 50.7149 52.1175 51.1131 52.0558C51.5112 51.9941 51.9192 52.0424 52.2906 52.195C54.3218 52.6222 56.4085 52.7439 58.4778 52.5559C61.2496 52.3273 64.0215 52.0386 66.7686 51.6176C68.9465 51.2929 71.0873 50.7275 73.2528 50.2464C78.3163 49.1933 83.322 47.8925 88.2506 46.3491C91.963 45.1463 95.8238 44.0877 99.5114 42.7405C102.245 41.9314 104.774 40.5752 106.936 38.7591C107.744 38.0329 108.25 37.0445 108.359 35.9805C108.361 35.4966 108.262 35.0175 108.066 34.5726C107.87 34.1278 107.582 33.7268 107.221 33.3943C106.246 32.312 105.008 31.4848 103.62 30.9886C102.382 30.4834 101.256 29.882 100.031 29.473C98.3632 28.8955 96.6606 28.4175 94.9328 28.0416C92.4579 27.5364 90.0573 27.1876 87.6072 26.8387C85.7386 26.5501 83.8948 26.3817 81.9768 26.093C81.024 25.9486 80.1206 25.6118 79.1678 25.4675C77.8314 25.275 76.4702 25.1547 75.109 25.0585C73.7478 24.9623 72.3495 24.9262 70.9636 24.9382C69.5776 24.9503 68.3154 25.0465 66.9914 25.1187C65.8777 25.1187 64.764 25.2389 63.6379 25.263C63.5018 25.263 63.3657 24.9503 63.2172 24.9382C62.2891 24.9382 61.3734 24.9382 60.4577 24.9382L60.4824 25.1668Z" fill="#1D1D1B"/>
<path d="M150 46.5074C151.64 46.4374 151.92 45.9774 151.92 45.0274V31.7274C151.92 30.7274 151.64 30.3074 150 30.2374V29.7074H157.92V30.2374C156.23 30.3074 155.98 30.7674 155.98 31.7274V46.3574H156.46C159.69 46.3574 160.37 44.8474 162.36 40.2774H163.05L162.84 47.0274H150V46.5074Z" fill="#1D1D1B"/>
<path d="M175.13 40.4574H177.96C178.18 37.7874 177.78 35.7174 176.7 35.7174C175.62 35.7174 175.16 37.4774 175.13 40.4874M171.37 41.3474C171.37 37.5574 173.59 35.0574 176.8 35.0574C180.01 35.0574 181.72 37.7574 181.54 41.1174H175.13V41.1674C175.13 44.3674 176.27 46.0374 178.13 46.0374C178.771 45.9702 179.381 45.7274 179.893 45.3357C180.404 44.944 180.798 44.4186 181.03 43.8174L181.51 44.0974C181.136 45.0332 180.492 45.8369 179.661 46.4066C178.83 46.9762 177.848 47.2863 176.84 47.2974C173.41 47.2974 171.34 44.9774 171.34 41.3474" fill="#1D1D1B"/>
<path d="M190.52 41.1874C190.52 38.2374 189.87 36.4974 188.52 36.4974C187.961 36.5777 187.451 36.8628 187.09 37.2974V44.8974C187.57 46.0274 188.09 46.5374 188.78 46.5374C190.06 46.5374 190.54 44.5974 190.54 41.1874M183.48 45.1274V31.0274C183.48 30.2474 183.33 29.7874 181.99 29.7674V29.2874L187.09 29.0874V36.5774C187.478 36.1108 187.96 35.7314 188.504 35.4643C189.049 35.1972 189.644 35.0483 190.25 35.0274C192.97 35.0274 194.31 37.5474 194.31 40.7574C194.31 44.3574 192.39 47.2174 189.13 47.2174C187.876 47.2117 186.657 46.8053 185.65 46.0574L183.96 47.4374H183.41L183.48 45.1274Z" fill="#1D1D1B"/>
<path d="M195.16 46.5574C196.35 46.5074 196.58 46.3074 196.58 45.5574V31.0274C196.58 30.2474 196.43 29.7874 195.11 29.7674V29.2874L200.19 29.0874V45.6074C200.19 46.3074 200.41 46.5074 201.63 46.6074V47.0274H195.16V46.5574Z" fill="#1D1D1B"/>
<path d="M209.45 46.5574C210.61 46.5074 210.83 46.3074 210.83 45.5574V37.1974C210.83 36.4474 210.68 35.9174 209.45 35.8874V35.4074L214.45 35.2074V37.3974C214.858 36.7489 215.412 36.2055 216.069 35.8112C216.726 35.4168 217.466 35.1826 218.23 35.1274C220.15 35.1274 220.96 36.3374 220.96 38.4074V45.6074C220.96 46.3074 221.19 46.5074 222.35 46.6074V47.0274H216.35V46.5474C217.03 46.5474 217.35 46.3274 217.35 45.5474V38.5474C217.35 37.5474 217.02 36.9874 216.21 36.9874C215.852 37.0194 215.507 37.1369 215.205 37.3301C214.902 37.5233 214.65 37.7864 214.47 38.0974V45.5674C214.47 46.2974 214.83 46.4974 215.47 46.5674V47.0274H209.47L209.45 46.5574Z" fill="#1D1D1B"/>
<path d="M229.3 39.0274C229.3 36.8574 228.88 35.7474 227.82 35.7474C226.76 35.7474 226.48 36.7474 226.48 39.0274C226.48 41.3074 226.91 42.3074 227.97 42.3074C229.03 42.3074 229.3 41.3074 229.3 39.0274ZM231.15 49.1474C231.15 48.2374 230.67 47.6574 228.45 47.6574H225.57C225.289 47.8232 225.057 48.0604 224.897 48.3449C224.737 48.6294 224.655 48.9511 224.66 49.2774C224.66 50.6874 225.87 51.3974 227.92 51.3974C229.97 51.3974 231.15 50.5874 231.15 49.1474ZM230.09 35.4774C230.64 34.3174 231.4 33.3274 232.64 33.3274C232.831 33.3067 233.024 33.3279 233.206 33.3894C233.387 33.451 233.553 33.5514 233.692 33.6837C233.831 33.816 233.94 33.9771 234.01 34.1556C234.081 34.3341 234.111 34.5259 234.1 34.7174C234.115 34.8832 234.096 35.0503 234.043 35.2081C233.99 35.366 233.905 35.5111 233.793 35.6343C233.681 35.7575 233.545 35.8561 233.393 35.9237C233.241 35.9914 233.076 36.0267 232.91 36.0274C232.21 36.0274 231.73 35.3974 231.73 34.5674C231.246 34.8126 230.857 35.2095 230.62 35.6974C231.232 35.9956 231.746 36.4631 232.1 37.0445C232.455 37.6258 232.635 38.2967 232.62 38.9774C232.62 41.3074 230.62 42.9174 227.85 42.9174C227.296 42.9318 226.744 42.8644 226.21 42.7174C225.47 43.0674 225.21 43.3974 225.21 43.8274C225.21 44.2574 225.59 44.6574 227.21 44.6574H229.21C232.04 44.6574 233.35 45.7174 233.35 47.8174C233.35 49.9174 231.05 52.0274 227.35 52.0274C224.45 52.0274 222.56 51.0274 222.56 49.5574C222.56 48.5574 223.47 47.8374 225.03 47.4874V47.3874C224.529 47.227 224.093 46.9123 223.782 46.4884C223.471 46.0644 223.302 45.553 223.3 45.0274C223.3 44.0274 224.03 43.1574 225.42 42.4474C224.731 42.1864 224.142 41.7161 223.735 41.1026C223.328 40.489 223.123 39.7633 223.15 39.0274C223.15 36.7074 225.15 35.0274 227.92 35.0274C228.659 35.0207 229.393 35.1425 230.09 35.3874" fill="#1D1D1B"/>
<path d="M202.22 46.5574C203.4 46.5074 203.71 46.3074 203.71 45.5574V37.1474C203.71 36.3674 203.48 35.9174 202.22 35.8874V35.4074L207.32 35.2074V45.6074C207.32 46.3074 207.52 46.5074 208.73 46.6074V47.0274H202.22V46.5574Z" fill="#1D1D1B"/>
<path d="M163.98 46.5574C165.16 46.5074 165.47 46.3074 165.47 45.5574V37.1474C165.47 36.3674 165.24 35.9174 163.98 35.8874V35.4074L169.08 35.2074V45.6074C169.08 46.3074 169.28 46.5074 170.49 46.6074V47.0274H163.98V46.5574Z" fill="#1D1D1B"/>
<path d="M168.38 26.2974C168.412 26.3228 168.45 26.34 168.49 26.3474L170.34 26.4074C170.67 26.4074 170.78 26.5674 170.77 26.8974C170.76 27.2274 170.77 27.4774 170.77 27.7674C170.77 28.4874 170.7 29.2174 170.71 29.9374C170.71 30.1074 170.78 30.2774 170.77 30.4374C170.752 30.6035 170.719 30.7676 170.67 30.9274C170.666 30.9639 170.666 31.0009 170.67 31.0374C170.67 31.4374 170.72 31.8374 170.73 32.2374C170.724 32.442 170.758 32.6458 170.83 32.8374C170.847 32.8826 170.855 32.9309 170.854 32.9793C170.852 33.0278 170.841 33.0754 170.82 33.1192C170.799 33.1631 170.77 33.2024 170.734 33.2348C170.698 33.2671 170.656 33.2918 170.61 33.3074C170.472 33.3615 170.318 33.3615 170.18 33.3074C170.052 33.2776 169.918 33.2776 169.79 33.3074L168.08 33.4074C167.598 33.3985 167.117 33.4557 166.65 33.5774C166.59 33.5873 166.53 33.5873 166.47 33.5774C166.134 33.5541 165.796 33.5845 165.47 33.6674C164.978 33.8002 164.477 33.8938 163.97 33.9474C163.8 33.968 163.633 34.0049 163.47 34.0574L163.31 34.0274C163.249 34.0005 163.198 33.9553 163.164 33.8979C163.13 33.8405 163.114 33.7739 163.12 33.7074C163.12 32.7074 163.02 31.7674 163.06 30.7974C163.062 29.6704 162.988 28.5446 162.84 27.4274C162.845 27.3675 162.845 27.3073 162.84 27.2474C162.823 27.1989 162.816 27.1474 162.819 27.0961C162.823 27.0448 162.837 26.9947 162.86 26.9489C162.883 26.9031 162.916 26.8625 162.955 26.8296C162.995 26.7967 163.041 26.7721 163.09 26.7574C163.186 26.738 163.284 26.738 163.38 26.7574C163.572 26.7728 163.765 26.7524 163.95 26.6974C164.17 26.6974 164.41 26.6374 164.63 26.6174H164.85L164.91 26.5574C164.889 26.5316 164.866 26.5082 164.84 26.4874C164.509 26.2648 164.201 26.0103 163.92 25.7274C163.591 25.4376 163.366 25.0476 163.28 24.6174C163.26 24.4941 163.281 24.3676 163.34 24.2574C163.396 24.1186 163.48 23.9928 163.587 23.8879C163.693 23.783 163.82 23.7011 163.96 23.6474C164.27 23.4954 164.62 23.4464 164.96 23.5074C165.312 23.5152 165.655 23.6252 165.946 23.824C166.237 24.0228 166.464 24.3019 166.6 24.6274C166.6 24.6874 166.67 24.7474 166.72 24.8374L166.86 24.6574C166.985 24.4105 167.143 24.1818 167.33 23.9774C167.481 23.8282 167.661 23.7106 167.859 23.6316C168.056 23.5526 168.267 23.5138 168.48 23.5174C168.646 23.4972 168.814 23.4972 168.98 23.5174C169.148 23.5717 169.303 23.659 169.437 23.774C169.571 23.889 169.681 24.0296 169.76 24.1874C169.769 24.2303 169.769 24.2745 169.76 24.3174C169.816 24.5929 169.802 24.8781 169.72 25.147C169.638 25.4159 169.49 25.6601 169.29 25.8574C169.181 25.9504 169.056 26.0217 168.92 26.0674L168.42 26.2774L168.38 26.2974ZM170.09 26.8974C169.129 26.8486 168.165 26.8854 167.21 27.0074C167.175 27.1486 167.175 27.2962 167.21 27.4374C167.259 27.7683 167.279 28.103 167.27 28.4374C167.27 28.6174 167.27 28.8074 167.27 28.9874C167.27 29.1674 167.32 29.2274 167.54 29.2274C167.793 29.2124 168.047 29.2124 168.3 29.2274C168.879 29.2672 169.462 29.2268 170.03 29.1074C170.03 29.1074 170.03 29.1074 170.08 29.1074C170.155 28.3728 170.159 27.6326 170.09 26.8974ZM166.51 27.0274C166.437 27.0223 166.363 27.0223 166.29 27.0274C166.15 27.0274 166.1 27.1074 166.1 27.2474C166.09 27.2969 166.09 27.3479 166.1 27.3974C166.22 28.0974 166.18 28.8174 166.31 29.5174V29.5974C166.311 29.642 166.304 29.6864 166.287 29.7278C166.27 29.7692 166.245 29.8066 166.213 29.8377C166.181 29.8688 166.143 29.8928 166.101 29.9082C166.059 29.9237 166.015 29.9302 165.97 29.9274C165.874 29.9123 165.776 29.9123 165.68 29.9274C165.475 30.0021 165.258 30.0426 165.04 30.0474L164.39 30.1174C164.134 30.1331 163.885 30.2048 163.66 30.3274C163.6 30.4853 163.6 30.6596 163.66 30.8174C163.998 30.8361 164.336 30.7954 164.66 30.6974C164.751 30.6679 164.845 30.6478 164.94 30.6374C165.255 30.6079 165.564 30.5373 165.86 30.4274H166C166.035 30.4168 166.071 30.4133 166.108 30.4172C166.144 30.4211 166.179 30.4322 166.21 30.45C166.242 30.4677 166.27 30.4917 166.292 30.5205C166.315 30.5492 166.331 30.5822 166.34 30.6174C166.35 30.7004 166.35 30.7844 166.34 30.8674C166.34 31.1074 166.34 31.3474 166.42 31.5874C166.484 32.042 166.598 32.4881 166.76 32.9174L166.87 33.0374C166.939 32.8314 166.966 32.6139 166.95 32.3974C166.95 32.1774 166.95 31.9574 166.95 31.7374C166.955 31.3532 166.935 30.969 166.89 30.5874C166.87 30.5325 166.87 30.4723 166.89 30.4174C166.937 30.3551 166.997 30.304 167.067 30.2677C167.136 30.2314 167.212 30.2108 167.29 30.2074C167.445 30.2037 167.6 30.2205 167.75 30.2574C168.155 30.3338 168.57 30.3507 168.98 30.3074L169.74 30.2474H169.97C169.974 30.1741 169.974 30.1007 169.97 30.0274C169.97 29.8974 169.9 29.8074 169.77 29.8374C169.49 29.8374 169.22 29.8374 168.94 29.8374C168.66 29.8374 168.38 29.8374 168.1 29.8374C167.731 29.7925 167.359 29.7925 166.99 29.8374C166.71 29.9174 166.49 29.6474 166.52 29.3474C166.541 29.0144 166.541 28.6804 166.52 28.3474C166.52 27.9974 166.52 27.6474 166.44 27.2974C166.47 27.2094 166.494 27.1191 166.51 27.0274ZM170.05 30.7074L168.05 30.7874C167.905 30.7787 167.761 30.8173 167.64 30.8974C167.565 31.1674 167.545 31.4495 167.58 31.7274C167.571 32.1315 167.632 32.5341 167.76 32.9174C168.547 32.9858 169.341 32.9284 170.11 32.7474C170.11 32.6574 170.11 32.5774 170.11 32.4974C170.11 31.8674 170.08 31.2774 170.05 30.6674V30.7074ZM165.51 29.5274C165.61 29.3769 165.659 29.1981 165.65 29.0174L165.53 27.2774C165.53 27.2074 165.53 27.1474 165.53 27.0874C164.826 27.0064 164.113 27.0956 163.45 27.3474C163.51 28.1274 163.59 28.9174 163.69 29.7174C164.3 29.6897 164.908 29.6263 165.51 29.5274ZM163.64 31.4474C163.627 32.1162 163.668 32.7849 163.76 33.4474C164.025 33.5227 164.305 33.5227 164.57 33.4474L165.13 33.3174L166.01 33.1074C166.07 32.8881 166.07 32.6567 166.01 32.4374C165.948 32.1669 165.901 31.8932 165.87 31.6174C165.879 31.5343 165.879 31.4505 165.87 31.3674C165.81 31.1474 165.67 31.0574 165.47 31.1474C165.169 31.2459 164.856 31.2998 164.54 31.3074C164.234 31.2944 163.928 31.342 163.64 31.4474ZM168.88 25.4474H168.97C169.083 25.3099 169.163 25.148 169.203 24.9745C169.243 24.801 169.242 24.6205 169.2 24.4474C169.167 24.3299 169.104 24.2234 169.016 24.1389C168.928 24.0545 168.819 23.9952 168.7 23.9674C168.517 23.9262 168.327 23.9372 168.15 23.9991C167.973 24.061 167.817 24.1713 167.7 24.3174C167.7 24.3174 167.7 24.3774 167.7 24.4174H167.78C168.01 24.4174 168.23 24.4174 168.46 24.4174C168.69 24.4174 168.81 24.5374 168.87 24.7974C168.918 24.9709 168.918 25.154 168.87 25.3274C168.863 25.3743 168.867 25.422 168.88 25.4674V25.4474ZM164.59 25.4474L164.64 25.3874C164.524 25.272 164.42 25.1446 164.33 25.0074C164.275 24.8384 164.275 24.6564 164.33 24.4874C164.59 24.2574 164.66 24.1474 165.07 24.1674C165.216 24.1679 165.361 24.1442 165.5 24.0974C165.3 23.8974 165.28 23.8874 165.1 23.8474C164.827 23.7824 164.543 23.7824 164.27 23.8474C164.2 23.8648 164.134 23.8972 164.078 23.9424C164.022 23.9876 163.976 24.0444 163.943 24.1091C163.911 24.1737 163.893 24.2446 163.891 24.3168C163.888 24.389 163.902 24.4609 163.93 24.5274C164.04 24.9132 164.272 25.2533 164.59 25.4974V25.4474ZM164.98 24.7474C165.154 24.9607 165.314 25.1845 165.46 25.4174C165.55 25.5974 165.7 25.6474 165.9 25.7274C165.896 25.5589 165.858 25.3929 165.787 25.2398C165.717 25.0867 165.616 24.9498 165.49 24.8374C165.406 24.7693 165.311 24.7153 165.21 24.6774C165.16 24.7174 165.09 24.7674 164.98 24.7974V24.7474ZM167.33 25.7474C167.61 25.681 167.873 25.5548 168.1 25.3774C168.168 25.3062 168.225 25.2254 168.27 25.1374C168.289 25.1074 168.298 25.0727 168.298 25.0374C168.298 25.0021 168.289 24.9675 168.27 24.9374C168.244 24.9135 168.21 24.9003 168.175 24.9003C168.14 24.9003 168.106 24.9135 168.08 24.9374C167.998 24.9647 167.923 25.009 167.86 25.0674C167.643 25.2789 167.464 25.5258 167.33 25.7974V25.7474Z" fill="#1D1D1B"/>
<path d="M211.96 18.1074C211.762 18.2632 211.511 18.3382 211.26 18.3174C211.028 18.0059 210.843 17.6623 210.71 17.2974C210.693 17.2173 210.652 17.1441 210.593 17.0873C210.534 17.0305 210.46 16.9927 210.379 16.9787C210.298 16.9647 210.215 16.9752 210.141 17.0088C210.066 17.0425 210.003 17.0977 209.96 17.1674C209.876 17.2625 209.809 17.3705 209.76 17.4874C209.746 17.5341 209.723 17.5775 209.693 17.6153C209.662 17.6531 209.625 17.6845 209.582 17.7078C209.539 17.731 209.492 17.7455 209.444 17.7506C209.396 17.7557 209.347 17.7512 209.3 17.7374C209.021 17.6991 208.747 17.6355 208.48 17.5474C208.323 17.5029 208.157 17.5029 208 17.5474C207.961 17.5478 207.923 17.5578 207.888 17.5764C207.854 17.595 207.824 17.6218 207.803 17.6543C207.781 17.6868 207.768 17.7241 207.764 17.763C207.76 17.8019 207.765 17.8412 207.78 17.8774C207.822 18.0005 207.88 18.1188 207.95 18.2282C208.11 18.518 208.27 18.8077 208.44 19.0974C208.308 19.4205 208.137 19.7261 207.93 20.0074C207.871 20.0673 207.838 20.1482 207.838 20.2324C207.838 20.3167 207.871 20.3975 207.93 20.4574C207.98 20.5237 208.048 20.5742 208.126 20.6026C208.204 20.6309 208.289 20.6361 208.37 20.6174C208.508 20.5908 208.643 20.5471 208.77 20.4874C208.841 20.4416 208.927 20.4225 209.011 20.4334C209.095 20.4444 209.173 20.4848 209.23 20.5474C209.512 20.79 209.703 21.1217 209.77 21.4874C209.785 21.5397 209.785 21.5951 209.77 21.6474C209.689 21.8756 209.559 22.0837 209.39 22.2574C209.287 22.3712 209.143 22.4395 208.99 22.4474C208.784 22.4624 208.576 22.4624 208.37 22.4474C207.685 22.37 206.991 22.4879 206.37 22.7874C206.233 22.8429 206.109 22.9282 206.009 23.0372C205.909 23.1461 205.834 23.276 205.79 23.4174C205.64 23.841 205.539 24.2806 205.49 24.7274C205.488 24.9193 205.44 25.1078 205.35 25.2774C205.06 25.2874 204.76 25.0574 204.51 25.3774C204.507 25.8325 204.473 26.2868 204.41 26.7374C204.29 26.8074 204.2 26.8074 204.12 26.8074C203.83 26.9043 203.547 27.0178 203.27 27.1474C202.779 27.4094 202.376 27.8091 202.11 28.2974C201.964 28.5244 201.85 28.7699 201.77 29.0274C201.67 29.4313 201.67 29.8535 201.77 30.2574C201.891 30.8213 202.062 31.3735 202.28 31.9074C202.486 32.4093 202.861 32.8233 203.34 33.0774C203.547 33.204 203.779 33.2826 204.02 33.3074C204.096 33.3098 204.171 33.3268 204.24 33.3574C204.597 33.4986 204.976 33.5731 205.36 33.5774C205.499 33.6021 205.641 33.6021 205.78 33.5774C206.24 33.5259 206.678 33.3534 207.05 33.0774C207.25 32.9074 207.46 32.7674 207.67 32.6074C208.204 32.2208 208.578 31.6514 208.72 31.0074C208.795 30.5908 208.845 30.17 208.87 29.7474C208.879 29.671 208.879 29.5938 208.87 29.5174C208.81 29.3174 208.75 29.0974 208.67 28.8974C208.61 28.7152 208.522 28.5432 208.41 28.3874C208.127 27.936 207.791 27.5197 207.41 27.1474C207.333 27.0764 207.266 26.9957 207.21 26.9074C207.295 26.6887 207.295 26.4461 207.21 26.2274C207.2 26.1143 207.2 26.0005 207.21 25.8874C207.19 25.5474 207.11 25.4674 206.77 25.4174L206.28 25.3574V24.4474C206.339 24.0525 206.501 23.68 206.75 23.3674C206.803 23.2985 206.871 23.2436 206.95 23.2074C207.36 23.0085 207.822 22.9454 208.27 23.0274C208.612 23.096 208.963 23.1128 209.31 23.0774C209.49 23.0692 209.662 22.9944 209.79 22.8674L209.94 22.7474C210.027 22.7071 210.103 22.6458 210.16 22.569C210.218 22.4922 210.256 22.4023 210.27 22.3074C210.34 22.0674 210.43 21.8374 210.49 21.6074C210.537 21.4402 210.62 21.285 210.732 21.1522C210.844 21.0194 210.983 20.9121 211.14 20.8374C211.22 20.8974 211.28 20.9674 211.36 21.0174C211.53 21.149 211.711 21.2661 211.9 21.3674C211.958 21.3947 212.023 21.4059 212.087 21.3998C212.151 21.3937 212.212 21.3706 212.264 21.3328C212.316 21.295 212.357 21.244 212.383 21.185C212.408 21.126 212.418 21.0613 212.41 20.9974C212.419 20.9479 212.419 20.897 212.41 20.8474C212.33 20.5374 212.24 20.2274 212.15 19.9174C212.121 19.8339 212.11 19.745 212.119 19.6569C212.127 19.5688 212.155 19.4837 212.2 19.4074C212.308 19.187 212.401 18.9599 212.48 18.7274C212.511 18.6667 212.527 18.5994 212.527 18.5313C212.526 18.4632 212.51 18.3961 212.479 18.3355C212.447 18.275 212.402 18.2227 212.347 18.183C212.291 18.1434 212.227 18.1175 212.16 18.1074H211.96Z" fill="#1D1D1B"/>
<path d="M303.16 58.1082C303.156 58.3597 303.068 58.6024 302.91 58.7977C302.734 58.9454 302.507 59.0169 302.279 58.9966C302.153 59.0072 302.026 58.9889 301.907 58.943C301.789 58.8971 301.682 58.8247 301.595 58.7314C301.417 58.4708 301.325 58.1597 301.332 57.843L301.188 55.2705V55.0716C301.158 54.8017 301.234 54.5307 301.398 54.3158C301.488 54.2329 301.594 54.17 301.71 54.1311C301.825 54.0923 301.948 54.0784 302.069 54.0904C302.507 54.0904 302.823 54.4086 303.016 55.0451C303.082 55.2938 303.166 55.5374 303.266 55.7744C303.531 56.2979 303.961 56.7177 304.489 56.9678C305.108 57.2641 305.788 57.4095 306.474 57.3921C307.294 57.4298 308.104 57.192 308.776 56.7159C309.052 56.5209 309.277 56.2607 309.43 55.9579C309.584 55.655 309.662 55.3189 309.657 54.9788C309.67 54.7194 309.629 54.4601 309.536 54.2179C309.443 53.9757 309.3 53.756 309.117 53.5732C308.672 53.1812 308.115 52.9401 307.526 52.8837L305.896 52.6583C304.698 52.5699 303.548 52.1526 302.569 51.4516C302.219 51.1433 301.943 50.7585 301.763 50.3264C301.583 49.8944 301.503 49.4266 301.53 48.9587C301.525 48.4067 301.648 47.8611 301.89 47.3659C302.132 46.8708 302.486 46.4398 302.924 46.1078C303.907 45.3171 305.139 44.9079 306.395 44.9542C306.838 44.9541 307.28 45.0075 307.71 45.1133C308.226 45.2448 308.731 45.4132 309.223 45.6172C309.222 45.5334 309.238 45.4503 309.269 45.3728C309.301 45.2954 309.348 45.2251 309.407 45.1663C309.565 45.0721 309.749 45.0304 309.933 45.047C310.166 45.027 310.399 45.0778 310.603 45.1928C310.76 45.3878 310.843 45.6317 310.84 45.8824L310.985 48.2029V48.309C310.993 48.4198 310.979 48.5311 310.943 48.636C310.906 48.741 310.849 48.8373 310.774 48.9189C310.604 49.0693 310.382 49.1456 310.156 49.1311C309.762 49.1311 309.459 48.8659 309.249 48.309C309.173 48.069 309.071 47.8378 308.946 47.6194C308.687 47.2343 308.321 46.9346 307.894 46.7575C307.403 46.553 306.874 46.4537 306.343 46.4658C305.569 46.427 304.807 46.6615 304.186 47.1288C303.921 47.3311 303.708 47.5942 303.563 47.8963C303.419 48.1984 303.349 48.5308 303.358 48.8659C303.349 49.1205 303.4 49.3736 303.508 49.6042C303.615 49.8348 303.776 50.0362 303.976 50.1919C304.541 50.571 305.193 50.7991 305.869 50.8549L307.631 51.0671C308.69 51.1488 309.696 51.5614 310.511 52.2472C310.838 52.5731 311.094 52.9646 311.261 53.3962C311.429 53.8279 311.505 54.2903 311.484 54.7534C311.51 55.3215 311.405 55.8878 311.177 56.4078C310.949 56.9279 310.604 57.3874 310.169 57.7502C309.113 58.5434 307.816 58.9418 306.501 58.8773C305.969 58.8744 305.44 58.8122 304.922 58.6916C304.319 58.5518 303.729 58.3566 303.16 58.1082Z" fill="#1D1D1B"/>
<path d="M284.369 46.9299C283.851 46.2967 283.197 45.7908 282.456 45.4508C281.716 45.1107 280.908 44.9454 280.095 44.9674C279.276 44.9409 278.461 45.1013 277.712 45.4365C276.963 45.7717 276.298 46.2731 275.768 46.9034C274.626 48.3082 274.036 50.0875 274.111 51.9025C274.041 53.7172 274.641 55.4939 275.795 56.8883C276.328 57.5 276.984 57.9901 277.72 58.3258C278.456 58.6615 279.254 58.8352 280.062 58.8352C280.87 58.8352 281.668 58.6615 282.404 58.3258C283.14 57.9901 283.796 57.5 284.329 56.8883C285.485 55.4951 286.085 53.7176 286.012 51.9025C286.092 50.0972 285.506 48.326 284.369 46.9299ZM283.054 55.854C282.706 56.2957 282.265 56.6526 281.761 56.8979C281.258 57.1432 280.706 57.2706 280.147 57.2706C279.588 57.2706 279.037 57.1432 278.533 56.8979C278.03 56.6526 277.588 56.2957 277.241 55.854C276.475 54.6768 276.106 53.2816 276.189 51.8759C276.099 50.4696 276.469 49.0723 277.241 47.8979C277.587 47.454 278.028 47.095 278.532 46.8482C279.035 46.6014 279.588 46.4731 280.147 46.4731C280.707 46.4731 281.26 46.6014 281.763 46.8482C282.267 47.095 282.708 47.454 283.054 47.8979C283.832 49.0702 284.206 50.468 284.119 51.8759C284.19 53.2898 283.797 54.6877 283.001 55.854H283.054Z" fill="#1D1D1B"/>
<path d="M304.12 30.5935H304.87C305.179 30.569 305.489 30.6333 305.764 30.7791C305.855 30.8442 305.928 30.9325 305.974 31.035C306.02 31.1375 306.038 31.2505 306.027 31.3626C306.038 31.4767 306.024 31.5919 305.985 31.6997C305.947 31.8075 305.885 31.9053 305.804 31.9858C305.537 32.1277 305.235 32.1876 304.936 32.1582H301.227C301.125 32.1652 301.022 32.1512 300.924 32.117C300.827 32.0828 300.738 32.0292 300.662 31.9593C300.591 31.8781 300.537 31.7835 300.503 31.681C300.469 31.5786 300.456 31.4703 300.465 31.3626C300.471 31.2599 300.5 31.1599 300.55 31.0703C300.6 30.9806 300.67 30.9037 300.754 30.8454C300.968 30.7038 301.222 30.6384 301.477 30.6598H302.477V20.5025H301.832C301.47 20.5352 301.105 20.4807 300.767 20.3434C300.681 20.2753 300.613 20.1856 300.572 20.0833C300.53 19.981 300.516 19.8696 300.53 19.76C300.518 19.5533 300.584 19.3497 300.714 19.1898C300.878 19.0575 301.084 18.9913 301.293 19.0041H305.935C306.78 18.984 307.624 19.0372 308.46 19.1633C308.958 19.2483 309.433 19.438 309.854 19.7202C310.35 20.0544 310.753 20.5108 311.024 21.0462C311.302 21.5918 311.446 22.1965 311.445 22.8098C311.46 23.6102 311.184 24.3885 310.669 24.9977C310.105 25.6626 309.345 26.1274 308.499 26.3237C308.689 26.4302 308.862 26.5643 309.012 26.7215C309.18 26.8775 309.326 27.056 309.446 27.2519L311.669 30.6598H312.024C312.319 30.638 312.614 30.6975 312.878 30.8322C312.958 30.908 313.02 31.0012 313.058 31.1046C313.097 31.2079 313.112 31.3188 313.102 31.4289C313.117 31.644 313.051 31.8569 312.918 32.0256C312.842 32.0955 312.752 32.1491 312.655 32.1833C312.558 32.2175 312.455 32.2315 312.352 32.2245H311.037C310.682 32.2245 310.327 31.9593 309.985 31.4289C309.947 31.397 309.912 31.3615 309.88 31.3228L307.763 28.0873C307.486 27.587 307.126 27.1385 306.698 26.7613C306.361 26.5575 305.973 26.4562 305.58 26.4696H304.12V30.5935ZM304.12 20.5025V24.9845H306.395C307.205 25.0434 308.014 24.8489 308.71 24.4275C308.968 24.237 309.174 23.9841 309.309 23.6921C309.445 23.4001 309.506 23.0785 309.486 22.7568C309.509 22.434 309.452 22.1105 309.319 21.8161C309.185 21.5217 308.98 21.266 308.723 21.0727C308.049 20.6433 307.256 20.4434 306.461 20.5025H304.12Z" fill="#1D1D1B"/>
<path d="M275.466 32.1714H274.953C274.846 32.1798 274.739 32.1665 274.637 32.1324C274.535 32.0982 274.442 32.0438 274.361 31.9725C274.286 31.8938 274.229 31.7999 274.192 31.697C274.156 31.5941 274.142 31.4846 274.151 31.3758C274.137 31.2643 274.151 31.151 274.193 31.0466C274.234 30.9422 274.301 30.8502 274.387 30.7791C274.727 30.6327 275.098 30.5734 275.466 30.6067H276.176V20.5954H275.466C275.103 20.628 274.738 20.5735 274.401 20.4362C274.31 20.3596 274.239 20.2612 274.195 20.1501C274.152 20.0389 274.136 19.9184 274.151 19.7998C274.14 19.6908 274.153 19.5808 274.19 19.4776C274.226 19.3745 274.285 19.2807 274.361 19.203C274.533 19.0574 274.755 18.986 274.979 19.0041H284.566C284.671 18.9981 284.776 19.0151 284.873 19.054C284.971 19.093 285.059 19.1529 285.131 19.2296C285.269 19.4214 285.334 19.6565 285.315 19.8926V22.5446C285.34 22.8238 285.285 23.1043 285.158 23.3535C285.081 23.4314 284.988 23.491 284.886 23.5277C284.783 23.5644 284.674 23.5774 284.566 23.5656C284.449 23.5794 284.331 23.5649 284.222 23.5234C284.112 23.4819 284.013 23.4145 283.935 23.3269C283.79 22.9795 283.731 22.6018 283.764 22.2264V20.5954H277.912V24.3347H280.792V23.7513C280.786 23.4469 280.868 23.1473 281.028 22.8894C281.096 22.8097 281.181 22.7477 281.277 22.7084C281.373 22.6692 281.477 22.6539 281.581 22.6639C281.683 22.6524 281.786 22.6698 281.879 22.7143C281.972 22.7588 282.051 22.8286 282.107 22.9159C282.243 23.2515 282.297 23.6154 282.265 23.9767V26.0718C282.301 26.4331 282.246 26.7978 282.107 27.1326C282.042 27.2165 281.958 27.2824 281.861 27.3242C281.765 27.3659 281.659 27.3821 281.554 27.3713C281.449 27.3825 281.342 27.3636 281.247 27.3167C281.152 27.2698 281.071 27.1968 281.015 27.1061C280.883 26.7784 280.829 26.4242 280.857 26.0718V25.6872H277.978V30.5935H283.829V28.8034C283.797 28.4279 283.856 28.0502 284 27.7028C284.079 27.6152 284.178 27.5478 284.287 27.5063C284.397 27.4648 284.515 27.4503 284.632 27.4641C284.739 27.4495 284.848 27.4626 284.95 27.502C285.051 27.5414 285.14 27.6059 285.21 27.6895C285.353 27.9526 285.413 28.2533 285.381 28.5514V31.3493C285.396 31.5706 285.325 31.7891 285.184 31.9593C285.11 32.0282 285.023 32.0813 284.928 32.1154C284.833 32.1496 284.732 32.1642 284.632 32.1582L275.466 32.1714Z" fill="#1D1D1B"/>
<path d="M384.036 32.3563C384.091 33.0101 383.974 33.6668 383.699 34.2623C383.423 34.8579 382.997 35.372 382.463 35.7543C381.998 36.0818 381.916 36.423 382.244 36.9689C383.243 38.5928 384.159 40.2714 385.103 41.9362C385.527 42.6595 385.335 42.9597 384.474 43.0553C384.142 43.1248 383.797 43.0787 383.496 42.9247C383.195 42.7706 382.956 42.518 382.819 42.2092C382.08 40.8445 381.287 39.4799 380.48 38.1834C380.218 37.7563 379.911 37.3583 379.564 36.9962C379.4 36.8696 379.275 36.6985 379.206 36.5034C379.137 36.3083 379.125 36.0974 379.173 35.8959C379.22 35.6944 379.325 35.5109 379.474 35.3672C379.624 35.2235 379.811 35.1258 380.015 35.0856C380.354 35.0015 380.671 34.8472 380.946 34.6328C381.221 34.4183 381.448 34.1486 381.612 33.841C381.776 33.5334 381.873 33.1949 381.897 32.8474C381.921 32.5 381.872 32.1513 381.752 31.8241C381.602 31.1993 381.214 30.6574 380.67 30.3134C380.126 29.9695 379.469 29.8505 378.839 29.9818C376.883 30.2411 376.869 30.2411 377.17 32.2062C377.334 33.3252 377.54 34.4579 377.649 35.5496C377.799 36.9143 378.1 37.8695 378.292 39.2206C378.483 40.5716 378.62 41.7179 378.825 42.9461C378.921 43.5602 378.702 43.8604 378.1 43.9423C377.157 44.0788 376.869 43.9423 376.733 43.26C376.418 41.5268 376.131 39.7937 375.844 38.0606C375.392 35.3313 374.955 32.602 374.476 29.8726C374.437 29.7646 374.425 29.6491 374.439 29.5353C374.453 29.4215 374.494 29.3126 374.557 29.2172C374.621 29.1218 374.706 29.0425 374.806 28.9857C374.906 28.929 375.018 28.8962 375.132 28.8901C376.647 28.5952 378.177 28.3811 379.714 28.2487C380.281 28.1758 380.858 28.2302 381.401 28.4078C381.945 28.5854 382.441 28.8818 382.856 29.2753C383.27 29.6689 383.591 30.1497 383.795 30.6827C383.999 31.2157 384.081 31.7875 384.036 32.3563Z" fill="#1D1D1B"/>
<path d="M411.855 28.3033C410.555 28.2077 410.487 28.3033 410.391 29.6679C410.309 32.6975 410.2 35.7134 410.104 38.7429C410.104 39.5344 409.994 40.3259 409.94 41.1174C409.885 41.9089 409.434 41.9226 408.859 41.8953C408.285 41.868 407.902 41.636 407.916 41.0356C407.916 38.9476 408.011 36.8733 408.052 34.7991C408.052 32.37 408.148 29.9545 408.203 27.5391C408.203 26.7339 408.463 26.4746 409.256 26.5019C410.555 26.5019 411.882 26.5019 413.167 26.7203C414.371 26.801 415.51 27.2906 416.396 28.1074C417.282 28.9243 417.861 30.0192 418.036 31.21C418.737 34.0356 418.29 37.023 416.792 39.5208C416.364 40.2318 415.764 40.8243 415.047 41.2439C414.33 41.6636 413.52 41.8969 412.689 41.9226C412.501 41.9145 412.318 41.8606 412.156 41.7654C411.993 41.6702 411.857 41.5367 411.759 41.3767C411.716 41.2687 411.698 41.153 411.703 41.0371C411.709 40.9213 411.74 40.808 411.793 40.7048C411.846 40.6016 411.92 40.5108 412.011 40.4384C412.102 40.366 412.207 40.3137 412.32 40.285C414.986 39.6436 415.698 37.5557 415.999 35.2221C416.135 34.1188 416.108 33.0012 415.916 31.906C415.836 30.8986 415.368 29.9612 414.611 29.2897C413.854 28.6183 412.867 28.2649 411.855 28.3033Z" fill="#1D1D1B"/>
<path d="M456.468 33.8984C457.188 33.8784 457.904 34.0004 458.576 34.2572C459.249 34.5141 459.864 34.9008 460.386 35.3952C460.908 35.8897 461.327 36.4821 461.62 37.1385C461.912 37.7949 462.071 38.5025 462.089 39.2206C462.171 40.8108 461.934 42.4013 461.391 43.8987C460.849 45.3962 460.012 46.7704 458.93 47.9407C458.273 48.7656 457.371 49.3608 456.353 49.6404C455.335 49.9201 454.255 49.8697 453.268 49.4965C452.322 49.143 451.502 48.5173 450.913 47.6985C450.324 46.8798 449.991 45.905 449.958 44.8976C449.717 42.5572 450.129 40.1959 451.148 38.0743C451.449 37.4056 451.873 37.3783 452.365 37.9514C452.639 38.2219 452.824 38.5685 452.897 38.9458C452.971 39.3232 452.928 39.7138 452.775 40.0667C452.029 41.7843 451.815 43.6852 452.16 45.5253C452.237 46.0065 452.429 46.4622 452.719 46.854C453.009 47.2459 453.39 47.5624 453.828 47.777C454.379 48.017 454.993 48.0695 455.577 47.9265C456.16 47.7834 456.68 47.4528 457.056 46.9855C458.535 45.3191 459.486 43.2538 459.791 41.0492C460.044 39.9572 459.977 38.8159 459.6 37.7604C459.461 37.3394 459.226 36.9564 458.914 36.6418C458.601 36.3272 458.219 36.0896 457.798 35.9479C457.378 35.8062 456.93 35.7642 456.49 35.8254C456.05 35.8865 455.63 36.0491 455.264 36.3002C455.014 36.5294 454.696 36.6708 454.357 36.7028C454.019 36.7348 453.68 36.6558 453.391 36.4776C452.762 36.0682 452.707 35.6179 453.295 35.1129C454.169 34.3356 455.297 33.9036 456.468 33.8984Z" fill="#1D1D1B"/>
<path d="M362.126 34.0349C361.825 34.0349 361.962 35.6452 361.975 36.3548C361.975 39.6027 362.057 42.8369 362.098 46.0848C362.098 47.1629 361.88 47.4495 360.826 47.6678C360.334 47.777 360.033 47.5586 360.033 47.1083C360.033 45.4298 360.033 43.7649 360.033 42.1C360.033 40.4351 360.033 38.3608 360.033 36.5049C360.033 35.2221 360.115 33.9393 360.17 32.6565C360.149 32.5621 360.149 32.4644 360.17 32.37C360.703 31.4284 361.715 31.5648 362.55 31.3874C362.823 31.3874 363.357 31.7013 363.534 32.0152C365.354 35.3722 367.131 38.7702 368.923 42.1409C369.279 42.8096 369.607 43.5056 369.935 44.1606C370.154 44.5837 370.51 45.0204 369.935 45.4161C369.79 45.5251 369.625 45.6041 369.449 45.6487C369.273 45.6933 369.09 45.7026 368.911 45.6759C368.731 45.6492 368.559 45.5872 368.404 45.4934C368.249 45.3996 368.114 45.2759 368.007 45.1295C367.542 44.2835 367.159 43.3964 366.721 42.5367C365.354 39.8074 364.123 37.078 362.618 34.4579C362.427 34.0485 362.427 34.0485 362.126 34.0349Z" fill="#1D1D1B"/>
<path d="M395.347 29.2449C395.128 30.2684 394.895 31.2919 394.676 32.3154C394.102 35.0447 393.532 37.774 392.967 40.5033C392.967 40.749 392.898 41.1174 392.844 41.3631C392.789 41.6087 392.721 42.1409 392.529 42.2092C392.08 42.3164 391.611 42.3164 391.162 42.2092C390.861 42.2092 390.929 41.636 390.984 41.3631C391.873 36.7915 392.803 32.2335 393.719 27.7165C393.726 27.5841 393.759 27.4546 393.818 27.3358C393.877 27.217 393.96 27.1115 394.061 27.0258C394.162 26.9401 394.28 26.8761 394.407 26.8376C394.534 26.7991 394.668 26.7871 394.8 26.8021C397.043 26.8021 396.865 26.3109 397.535 28.7946C398.738 32.8067 399.947 36.8097 401.159 40.8036C401.31 41.2812 401.433 41.7315 400.831 41.9499C400.675 42.0304 400.503 42.077 400.327 42.0865C400.152 42.096 399.976 42.0683 399.812 42.0051C399.648 41.9419 399.499 41.8447 399.375 41.7199C399.251 41.5952 399.156 41.4456 399.094 41.2812C398.629 39.5344 398.205 37.7877 397.726 36.0545C397.097 33.8984 396.359 31.7559 395.73 29.6133C395.674 29.5094 395.605 29.4131 395.524 29.3268L395.347 29.2449Z" fill="#1D1D1B"/>
<path d="M348.75 35.4677C349.696 35.4554 350.616 35.7775 351.347 36.3769C352.078 36.9763 352.573 37.8145 352.744 38.7429C353.05 39.7744 352.964 40.8824 352.502 41.8544C352.04 42.8265 351.235 43.5943 350.241 44.0105C349.653 44.2562 349.16 44.2835 348.873 43.6284C348.586 42.9734 348.969 42.7141 349.434 42.4275C349.89 42.2306 350.27 41.8914 350.516 41.4608C350.763 41.0302 350.863 40.5315 350.801 40.0394C350.596 38.7839 350.172 37.4874 348.668 37.4056C347.72 37.4735 346.793 37.714 345.933 38.1152C345.809 38.1152 345.768 38.7702 345.864 39.0705C347.109 42.7277 348.381 46.3714 349.653 49.9877C349.926 50.8065 349.817 51.0658 349.106 51.3524C348.394 51.639 347.943 51.5435 347.642 50.7519L343.197 38.47C343.019 38.006 343.074 37.1053 343.58 36.9552C345.303 36.3957 346.876 35.9317 348.613 35.4132C348.66 35.4279 348.706 35.4462 348.75 35.4677Z" fill="#1D1D1B"/>
<path d="M440.275 29.8726C441.08 29.8159 441.888 29.9287 442.647 30.2038C443.406 30.4788 444.098 30.91 444.679 31.4693C445.007 31.7968 445.171 32.138 444.802 32.5474C444.433 32.9568 443.749 33.2433 443.297 32.8885C443.007 32.6285 442.701 32.3869 442.381 32.1653C441.872 31.7865 441.236 31.6186 440.606 31.6966C439.976 31.7746 439.4 32.0926 439 32.584C438.599 33.0755 438.404 33.7024 438.455 34.3339C438.507 34.9653 438.801 35.5525 439.276 35.9727C439.933 36.6414 440.712 37.1872 441.424 37.815C441.924 38.2144 442.332 38.717 442.619 39.2884C442.907 39.8598 443.067 40.4865 443.089 41.1255C443.111 41.7645 442.995 42.4008 442.747 42.9906C442.5 43.5804 442.128 44.1099 441.656 44.5427C440.971 45.1664 440.11 45.565 439.19 45.6846C438.271 45.8042 437.336 45.639 436.514 45.2114C435.789 44.8354 435.11 44.3775 434.489 43.8468C434.011 43.4783 434.052 43.028 434.489 42.6186C434.927 42.2092 435.296 41.9772 435.857 42.4548C436.41 42.9498 437.038 43.355 437.717 43.6557C438.138 43.8597 438.617 43.9127 439.073 43.8058C439.529 43.699 439.934 43.4387 440.22 43.0689C440.581 42.6833 440.805 42.1895 440.857 41.6641C440.909 41.1387 440.786 40.6108 440.507 40.1622C439.964 39.4587 439.335 38.826 438.634 38.2789C437.517 37.5521 436.686 36.4626 436.281 35.1948C435.748 32.6838 437.43 29.7225 440.275 29.8726Z" fill="#1D1D1B"/>
<path d="M426.119 43.2054C425.162 43.2054 424.929 42.8779 425.053 41.8407C425.518 38.1288 425.955 34.4033 426.42 30.6914C426.502 29.9409 426.584 29.204 426.707 28.467C426.831 27.7301 427.255 27.7574 427.747 27.8529C428.239 27.9485 428.991 27.8529 428.923 28.7263C428.786 30.0227 428.608 31.3055 428.431 32.602C428.002 35.7134 427.583 38.8248 427.172 41.9362C427.036 43.0143 426.899 43.219 426.119 43.2054Z" fill="#1D1D1B"/>
<path d="M493.646 18.6164L492.171 37.1497C492.083 38.3766 492.083 39.6084 492.171 40.8354L493.646 59.3687C493.712 60.218 494.09 61.011 494.704 61.5909C495.318 62.1707 496.124 62.4952 496.962 62.5H499.439C500.276 62.4918 501.081 62.1662 501.694 61.587C502.308 61.0078 502.686 60.2167 502.756 59.3687L504.23 40.8354C504.23 40.6256 504.23 40.4158 504.23 40.2061H515.375C515.714 40.3409 516.216 41.7043 516.466 42.3636C517.085 44.0266 517.867 46.0942 519.798 46.0942C521.729 46.0942 522.51 44.0266 523.13 42.3636C523.38 41.7193 523.881 40.3409 524.206 40.2211C524.484 40.2115 524.762 40.2657 525.017 40.3799C525.272 40.494 525.499 40.665 525.68 40.8803C526.467 41.6675 527.524 42.1133 528.628 42.1238C530.663 42.1238 531.311 39.5319 532.004 36.7901C532.255 35.6637 532.57 34.5532 532.948 33.464C533.454 34.8581 533.829 36.2979 534.068 37.7639C534.805 41.3597 535.365 44.1914 537.459 44.1914C539.257 44.1914 540.098 42.6932 540.717 41.5845C541.336 40.4758 541.528 40.2211 541.881 40.2211C542.235 40.2211 542.707 41.7193 542.958 42.2886C543.591 43.9068 544.358 45.9294 546.289 45.9294C548.22 45.9294 548.987 43.9068 549.606 42.3036C549.857 41.6594 550.373 40.3259 550.697 40.2211C551.021 40.1162 551.331 40.6256 551.862 41.5845C552.392 42.5434 553.336 44.1914 555.12 44.1914C556.903 44.1914 557.759 42.6932 558.363 41.5845C558.967 40.4758 559.189 40.2211 559.528 40.2211C559.867 40.2211 560.147 40.6256 560.692 41.5845C561.238 42.5434 562.166 44.1914 563.95 44.1914C564.648 44.1253 565.314 43.8614 565.872 43.4297C566.43 42.9979 566.857 42.4157 567.105 41.7493H563.95C563.596 41.7493 563.316 41.3448 562.786 40.3859C562.255 39.427 561.311 37.7789 559.528 37.7789C557.744 37.7789 556.889 39.2772 556.27 40.3859C555.65 41.4946 555.459 41.7493 555.12 41.7493C554.781 41.7493 554.486 41.3448 553.955 40.3859C553.424 39.427 552.481 37.7789 550.697 37.7789C548.913 37.7789 547.999 39.7866 547.38 41.4047C547.13 42.0489 546.614 43.3674 546.289 43.4872C545.965 43.3674 545.449 41.989 545.198 41.4047C544.564 39.7866 543.798 37.7789 541.867 37.7789C539.935 37.7789 539.228 39.2772 538.623 40.3859C538.181 41.1799 537.901 41.5845 537.636 41.7193C537.059 40.2751 536.653 38.7662 536.427 37.2246C535.704 33.6438 535.13 30.8121 533.036 30.8121C530.943 30.8121 530.353 33.3891 529.675 36.1309C529.43 37.3369 529.085 38.5198 528.643 39.6667C528.363 39.6734 528.086 39.6163 527.831 39.4997C527.576 39.383 527.349 39.2097 527.169 38.9925C526.381 38.2081 525.323 37.7673 524.22 37.7639C522.289 37.7639 521.523 39.8315 520.904 41.4796C520.653 42.1388 520.137 43.5022 519.827 43.6371C519.488 43.5022 518.972 42.1388 518.722 41.4796C518.102 39.8165 517.336 37.7639 515.405 37.7639H504.23C504.23 37.5542 504.23 37.3444 504.23 37.1497L502.756 18.6164C502.683 17.771 502.303 16.9836 501.689 16.4075C501.076 15.8314 500.274 15.5079 499.439 15.5H496.962C496.127 15.5045 495.322 15.8269 494.709 16.4036C494.095 16.9803 493.715 17.7697 493.646 18.6164ZM499.439 17.9272C499.671 17.9302 499.893 18.0209 500.062 18.1817C500.231 18.3424 500.335 18.5616 500.353 18.7961L501.827 37.3295C501.916 38.4363 501.916 39.5487 501.827 40.6556L500.353 59.1889C500.335 59.4234 500.231 59.6426 500.062 59.8033C499.893 59.9641 499.671 60.0549 499.439 60.0579H496.962C496.731 60.0549 496.509 59.9641 496.34 59.8033C496.171 59.6426 496.067 59.4234 496.048 59.1889L494.574 40.6556C494.574 40.1012 494.501 39.5469 494.501 38.9925C494.501 38.4382 494.501 37.8838 494.574 37.3295L496.048 18.7961C496.067 18.5616 496.171 18.3424 496.34 18.1817C496.509 18.0209 496.731 17.9302 496.962 17.9272H499.439Z" fill="#1D1D1B"/>
<path d="M601.7 48.9884C602.239 49.3353 602.952 49.3353 602.952 49.6822C602.952 50.0292 602.664 50.0911 602.001 50.0911H598.119C597.443 50.0911 597.13 50.0292 597.13 49.6822C597.13 49.3353 597.794 49.3353 598.382 48.9884C598.633 48.8273 598.708 48.3936 598.708 47.5759V30.1427C598.708 29.3249 598.633 28.9036 598.357 28.7302C597.806 28.3832 597.105 28.3832 597.105 28.0363C597.105 27.6894 598.182 27.5283 600.486 27.5283C602.609 27.4032 604.737 27.6937 606.746 28.3832C608.266 28.9567 609.572 29.9761 610.49 31.3049C611.407 32.6336 611.892 34.2081 611.88 35.8174C611.892 39.6461 609.038 42.1241 604.28 42.1241C603.296 42.1703 602.312 42.0401 601.375 41.74V47.5759C601.375 48.3193 601.412 48.8273 601.7 48.9884ZM603.603 41.3311C606.922 41.3311 608.925 39.2248 608.925 35.6316C608.925 31.2206 606.421 28.3213 602.664 28.3213C601.575 28.3213 601.35 28.5319 601.35 29.5603V39.931C601.375 40.8851 602.076 41.3311 603.603 41.3311Z" fill="#1D1D1B"/>
<path d="M619.894 38.0601C620.798 38.8014 621.521 39.7365 622.007 40.7947C622.493 41.8529 622.729 43.0066 622.698 44.1685C622.698 47.8856 620.344 50.438 617.126 50.438C613.908 50.438 611.041 47.5139 611.041 43.3756C611.041 39.5717 613.545 36.5733 616.2 36.5733C617.571 36.6146 618.882 37.1422 619.894 38.0601ZM618.641 39.0637C618.419 38.5535 618.063 38.1118 617.609 37.7848C617.155 37.4578 616.621 37.2576 616.062 37.2052C614.434 37.2052 613.483 38.754 613.483 41.6533C613.483 46.6094 615.323 49.7442 617.527 49.7442C619.28 49.7442 620.269 48.3936 620.269 45.9032C620.257 43.5323 619.705 41.1946 618.654 39.0637H618.641Z" fill="#1D1D1B"/>
<path d="M623.637 46.7209C623.564 46.5961 623.521 46.4561 623.512 46.3121C623.512 46.089 623.637 45.9651 623.8 45.9651C623.963 45.9651 624.313 46.4731 624.789 47.1298C626.041 48.8645 627.369 49.7442 628.546 49.7442C628.868 49.7346 629.185 49.6584 629.476 49.5205C629.767 49.3826 630.026 49.186 630.236 48.9434C630.446 48.7007 630.602 48.4174 630.695 48.1115C630.788 47.8056 630.815 47.4839 630.774 47.167C630.772 46.4995 630.569 45.8478 630.189 45.2958C629.81 44.7437 629.272 44.3166 628.646 44.0694C625.904 42.8304 623.938 42.2728 623.938 39.9186C623.914 39.4906 623.979 39.0622 624.13 38.6604C624.281 38.2586 624.514 37.892 624.815 37.5837C625.116 37.2754 625.479 37.0319 625.879 36.8687C626.28 36.7055 626.71 36.626 627.143 36.6352C627.836 36.688 628.52 36.8169 629.184 37.0193C629.535 37.0193 629.76 36.6352 629.948 36.6352C630.136 36.6352 630.211 36.7591 630.336 37.0193L631.588 39.6584C631.665 39.7758 631.721 39.9059 631.751 40.0425C631.751 40.1665 631.588 40.2904 631.426 40.2904C631.263 40.2904 630.987 39.9186 630.474 39.3115C629.36 38.0725 628.496 37.2299 627.256 37.2299C627.021 37.2126 626.784 37.2442 626.562 37.3228C626.339 37.4014 626.136 37.5252 625.965 37.6863C625.794 37.8474 625.659 38.0422 625.568 38.2581C625.478 38.474 625.435 38.7062 625.44 38.9398C625.468 39.4192 625.651 39.8772 625.962 40.2455C626.273 40.6139 626.696 40.8729 627.168 40.9842C628.4 41.3403 629.586 41.8394 630.699 42.4711C631.314 42.8985 631.812 43.4691 632.151 44.1326C632.489 44.7961 632.657 45.5319 632.64 46.2749C632.659 46.8161 632.567 47.3555 632.37 47.8607C632.173 48.3659 631.875 48.8266 631.494 49.2153C631.113 49.604 630.656 49.9126 630.152 50.1227C629.647 50.3328 629.105 50.44 628.558 50.438C627.836 50.3736 627.123 50.2366 626.43 50.0292C626.016 50.0292 625.791 50.5 625.603 50.5C625.415 50.5 625.378 50.3761 625.253 50.1283L623.637 46.7209Z" fill="#1D1D1B"/>
<path d="M637.699 49.1495C637.962 49.4344 638.688 49.4592 638.688 49.8061C638.688 50.1531 638.462 50.0911 638.049 50.0911H634.518C634.105 50.0911 633.88 50.0044 633.88 49.8061C633.88 49.6079 634.618 49.4344 634.869 49.1495C635.146 48.6284 635.255 48.0361 635.182 47.452V40.0178C635.182 39.2248 635.119 39.0389 634.706 38.9398C634.293 38.8407 633.917 38.9398 633.917 38.5929C633.917 38.2459 634.293 38.2212 634.869 37.899C636.334 37.1184 637.035 36.5485 637.198 36.5485C637.361 36.5485 637.386 36.7343 637.386 37.0813V47.452C637.318 48.036 637.427 48.6267 637.699 49.1495ZM634.706 32.3853C634.784 31.9766 635.007 31.6091 635.336 31.3498C635.665 31.0905 636.077 30.9567 636.497 30.9728C636.641 30.9574 636.788 30.9716 636.927 31.0145C637.066 31.0574 637.195 31.1281 637.305 31.2221C637.415 31.3162 637.505 31.4317 637.568 31.5614C637.632 31.6912 637.668 31.8324 637.674 31.9764C637.638 32.4168 637.432 32.8266 637.098 33.1199C636.765 33.4133 636.329 33.5674 635.883 33.55C635.726 33.561 635.568 33.5385 635.42 33.4839C635.272 33.4292 635.138 33.3438 635.026 33.2334C634.914 33.1229 634.828 32.9901 634.773 32.8438C634.718 32.6974 634.695 32.5411 634.706 32.3853Z" fill="#1D1D1B"/>
<path d="M641.455 38.0601H640.403C640.053 38.0601 639.865 37.961 639.865 37.7751C639.865 37.391 641.117 37.0813 642.056 35.4086C642.995 33.7359 643.008 32.1871 643.421 32.1871C643.584 32.1871 643.646 32.3853 643.646 32.7322V36.9574H646.288V38.0601H643.646V47.2909C643.646 48.7034 643.834 49.3973 644.898 49.3973C646.15 49.3973 646.338 47.9228 646.751 47.9228C646.877 47.9228 646.939 48.0095 646.939 48.2078C646.807 48.8723 646.433 49.4659 645.889 49.8767C645.344 50.2875 644.667 50.4872 643.984 50.438C643.632 50.468 643.276 50.4237 642.942 50.3079C642.608 50.1921 642.303 50.0075 642.046 49.7663C641.789 49.5251 641.587 49.2328 641.453 48.9086C641.319 48.5844 641.255 48.2358 641.267 47.8856C641.267 47.1298 641.467 46.1882 641.467 45.0482L641.455 38.0601Z" fill="#1D1D1B"/>
<path d="M652.223 50.3513C651.653 50.3686 651.086 50.27 650.556 50.0618C650.027 49.8535 649.546 49.54 649.143 49.1405C648.741 48.7411 648.425 48.2642 648.216 47.7393C648.007 47.2145 647.909 46.6528 647.928 46.089C647.954 44.9221 648.418 43.8064 649.231 42.9607C650.044 42.115 651.147 41.6001 652.323 41.517C652.781 41.5149 653.233 41.6101 653.65 41.7961C654.067 41.9821 654.439 42.2545 654.74 42.595C654.577 39.1628 654.039 37.6388 652.236 37.6388C651.826 37.6286 651.42 37.7182 651.053 37.8997C650.686 38.0811 650.37 38.349 650.132 38.6796C649.744 39.1876 649.744 39.9186 649.431 39.9186C649.118 39.9186 649.181 39.7824 649.181 39.5717C649.181 38.2707 650.733 36.6724 653.062 36.6724C653.656 36.6439 654.247 36.7641 654.781 37.0219C655.315 37.2796 655.775 37.6665 656.117 38.1468C656.663 39.2448 656.937 40.4549 656.919 41.6781L657.482 47.5139C657.62 48.6786 657.833 49.1495 658.509 49.1495C659.435 49.1495 659.235 48.1087 659.623 48.1087C659.786 48.1087 659.849 48.1954 659.849 48.4184C659.874 48.6866 659.839 48.9569 659.746 49.2102C659.654 49.4635 659.506 49.6935 659.314 49.884C659.121 50.0744 658.889 50.2205 658.633 50.312C658.377 50.4035 658.104 50.4381 657.833 50.4133C657.315 50.4622 656.796 50.3305 656.366 50.0408C655.936 49.7512 655.622 49.3219 655.479 48.8273C655.108 49.3308 654.616 49.7343 654.048 50.0006C653.479 50.2668 652.851 50.3875 652.223 50.3513ZM655.216 46.8448C655.216 43.7597 654.364 42.2109 652.712 42.2109C651.284 42.2109 650.295 43.4499 650.295 45.6182C650.295 48.0095 651.472 49.4964 653.025 49.4964C654.577 49.4964 655.216 48.6167 655.216 46.8448Z" fill="#1D1D1B"/>
<path d="M664.131 49.1495C664.381 49.4344 665.12 49.4592 665.12 49.8061C665.12 50.1531 664.895 50.0911 664.481 50.0911H660.975C660.562 50.0911 660.337 50.0044 660.337 49.8061C660.337 49.6079 661.076 49.4344 661.326 49.1495C661.594 48.6256 661.699 48.0348 661.627 47.452V40.0178C661.627 39.2248 661.627 39.0389 661.176 38.9398C660.725 38.8407 660.349 38.9398 660.349 38.5929C660.349 38.2459 660.763 38.2212 661.339 37.899C662.804 37.1184 663.48 36.5485 663.63 36.5485C663.78 36.5485 663.855 36.7343 663.855 37.0813V39.3859C664.067 38.6312 664.506 37.9585 665.115 37.458C665.724 36.9576 666.473 36.6532 667.261 36.5856C669.427 36.5856 670.229 37.899 670.542 40.6497L671.243 46.8448C671.368 48.0839 671.431 48.8273 671.944 49.2362C672.232 49.4592 672.745 49.4964 672.745 49.8061C672.745 50.1159 672.52 50.0911 672.069 50.0911H668.576C668.125 50.0911 667.937 50.0292 667.937 49.8061C667.937 49.3353 669.114 49.5212 669.114 48.3317C669.101 47.942 669.068 47.5533 669.014 47.167L668.25 40.3523C668.025 38.5309 667.674 37.7999 666.497 37.7999C665.32 37.7999 663.855 39.3487 663.855 42.31V47.452C663.781 48.0322 663.876 48.6215 664.131 49.1495Z" fill="#1D1D1B"/>
<path d="M681.873 38.0601C682.776 38.8032 683.497 39.7386 683.983 40.7964C684.468 41.8542 684.706 43.007 684.678 44.1685C684.678 47.8856 682.312 50.438 679.094 50.438C675.876 50.438 673.021 47.5139 673.021 43.3756C673.021 39.5717 675.525 36.5733 678.18 36.5733C679.551 36.6168 680.861 37.1441 681.873 38.0601ZM680.621 39.0637C680.401 38.552 680.046 38.1088 679.591 37.7815C679.137 37.4542 678.601 37.255 678.042 37.2052C676.427 37.2052 675.463 38.754 675.463 41.6533C675.463 46.6094 677.316 49.7442 679.507 49.7442C681.26 49.7442 682.249 48.3936 682.249 45.9032C682.233 43.5313 681.676 41.1936 680.621 39.0637Z" fill="#1D1D1B"/>
<path d="M687.07 37.9486C687.06 36.5533 687.499 35.191 688.322 34.058V33.9713L687.721 33.5376V33.6243C686.804 34.8882 686.31 36.405 686.31 37.961C686.31 39.517 686.804 41.0338 687.721 42.2976V42.3843L688.322 41.9507V41.8763C687.495 40.7311 687.057 39.3559 687.07 37.9486Z" fill="#1D1D1B"/>
<path d="M691.74 38.1344V40.7984H691.039V38.1344L688.998 34.6156H689.799L691.389 37.3786L693.005 34.6156H693.819L691.74 38.1344Z" fill="#1D1D1B"/>
<path d="M693.844 39.0018C693.835 39.1696 693.861 39.3374 693.92 39.495C693.979 39.6525 694.07 39.7965 694.187 39.9182C694.305 40.0399 694.445 40.1368 694.602 40.2029C694.758 40.269 694.926 40.303 695.096 40.3027C695.361 40.3093 695.621 40.2373 695.844 40.096C696.068 39.9547 696.243 39.7505 696.348 39.5098L696.911 39.8195C696.752 40.1513 696.5 40.4306 696.185 40.624C695.869 40.8174 695.504 40.9167 695.133 40.9099C694.87 40.9142 694.608 40.8639 694.365 40.7622C694.123 40.6606 693.904 40.5098 693.724 40.3196C693.543 40.1295 693.405 39.904 693.318 39.6579C693.231 39.4117 693.197 39.1503 693.218 38.8902C693.195 38.6324 693.227 38.3727 693.311 38.1276C693.395 37.8826 693.53 37.6574 693.706 37.4664C693.883 37.2755 694.097 37.1228 694.336 37.0181C694.576 36.9134 694.834 36.859 695.096 36.8582C695.356 36.8569 695.613 36.9097 695.851 37.0133C696.089 37.1168 696.302 37.2688 696.477 37.4593C696.652 37.6498 696.784 37.8745 696.866 38.1189C696.947 38.3633 696.975 38.6219 696.949 38.8779V39.0018H693.844ZM695.033 37.4654C694.758 37.4818 694.495 37.5879 694.287 37.7672C694.078 37.9464 693.936 38.1888 693.881 38.4566H696.173C696.134 38.1839 695.997 37.934 695.788 37.7522C695.579 37.5703 695.311 37.4686 695.033 37.4654Z" fill="#1D1D1B"/>
<path d="M698.94 40.8851C698.637 40.8897 698.342 40.7966 698.098 40.62C697.854 40.4433 697.675 40.1928 697.587 39.9063L698.163 39.6584C698.326 40.0054 698.539 40.278 698.952 40.278C699.034 40.283 699.116 40.2714 699.194 40.2438C699.271 40.2162 699.342 40.1732 699.402 40.1175C699.462 40.0617 699.509 39.9944 699.542 39.9198C699.574 39.8451 699.591 39.7646 699.591 39.6832C699.591 38.8407 697.838 39.1009 697.838 37.9114C697.838 37.7656 697.867 37.6212 697.925 37.4871C697.983 37.353 698.068 37.2319 698.174 37.1311C698.281 37.0303 698.407 36.952 698.545 36.9008C698.683 36.8497 698.83 36.8267 698.977 36.8334C699.203 36.8358 699.424 36.9024 699.613 37.0255C699.801 37.1485 699.95 37.3227 700.042 37.5273L699.491 37.8123C699.445 37.7044 699.368 37.6119 699.271 37.5459C699.173 37.48 699.058 37.4434 698.94 37.4406C698.822 37.4372 698.708 37.4793 698.621 37.558C698.535 37.6367 698.483 37.7457 698.476 37.8618C698.476 38.5433 700.279 38.3575 700.279 39.6213C700.283 39.7936 700.251 39.9649 700.184 40.1241C700.117 40.2833 700.018 40.427 699.892 40.546C699.766 40.6649 699.616 40.7565 699.452 40.8149C699.288 40.8733 699.113 40.8972 698.94 40.8851Z" fill="#1D1D1B"/>
<path d="M701.694 33.6243V33.5376L701.093 33.9713V34.058C701.923 35.1914 702.37 36.5552 702.37 37.9548C702.37 39.3544 701.923 40.7182 701.093 41.8515V41.9259L701.694 42.3595V42.2728C702.612 41.009 703.105 39.4922 703.105 37.9362C703.105 36.3802 702.612 34.8634 701.694 33.5996V33.6243Z" fill="#1D1D1B"/>
</svg>
