<?xml version="1.0" encoding="UTF-8"?>
<svg id="Lager_1" data-name="Lager 1" xmlns="http://www.w3.org/2000/svg" viewBox="0 0 50 50">
  <path d="M44.07,25c-3.79,4.06-9.18,6.76-14.75,7.06-8.18.43-16.54-4.09-19.99-11.65-2.6-5.69-2.12-12.69,1.7-17.76,4.11-5.45,12-8.5,18.71-7.42,7.5,1.21,12.36,7.94,12.7,15.3.16,3.49-.66,7.07-2.72,9.94s-5.47,4.68-9,5.31c-6.31,1.11-13.37-2.55-16.12-8.35-1.65-3.47-1.14-7.6,1.08-10.7,2.45-3.43,7.04-5.41,11.22-5.09,3.26.25,6.67,2.28,7.94,5.39s.49,6.99-1.51,9.62c-2.19,2.89-6.08,3.67-9.22,1.76-3.57-2.18-3.02-8.15,1.77-7.94,1.98.09,3.16,1.45,3.07,3.41-.05,1.13,1.7,1.12,1.75,0,.2-4.36-4.47-6.38-8.05-4.41-3.91,2.15-3.23,7.73.05,10.1s7.63,2.19,10.58-.32,4.36-6.88,3.77-10.68-3.21-6.43-6.53-7.82c-4.46-1.87-9.89-.61-13.64,2.28-3.43,2.64-5.42,6.98-4.94,11.32s3.53,8.25,7.25,10.6c2.86,1.81,6.37,3.02,9.79,2.8,3.88-.25,7.76-1.66,10.57-4.41,5.93-5.79,5.92-15.92,1.55-22.59-4.97-7.59-14.53-8.99-22.53-5.72-3.71,1.52-7.16,3.94-9.44,7.28-2.08,3.05-3.19,6.92-3.23,10.6-.1,8.71,5.99,16.23,13.86,19.34s17.06,1.35,23.61-4.17c.68-.57,1.32-1.17,1.92-1.82.77-.82-.47-2.06-1.24-1.24h0Z"/>
</svg> 