<?xml version="1.0" encoding="UTF-8"?>
<svg id="Lager_1" data-name="Lager 1" xmlns="http://www.w3.org/2000/svg" viewBox="0 0 50 50">
  <path d="M25,5.93c-4.06,3.79-6.76,9.18-7.06,14.75-.43,8.18,4.09,16.54,11.65,19.99,5.69,2.6,12.69,2.12,17.76-1.7,5.45-4.11,8.5-12,7.42-18.71-1.21-7.5-7.94-12.36-15.3-12.7-3.49-.16-7.07.66-9.94,2.72s-4.68,5.47-5.31,9c-1.11,6.31,2.55,13.37,8.35,16.12,3.47,1.65,7.6,1.14,10.7-1.08,3.43-2.45,5.41-7.04,5.09-11.22-.25-3.26-2.28-6.67-5.39-7.94s-6.99-.49-9.62,1.51c-2.89,2.19-3.67,6.08-1.76,9.22,2.18,3.57,8.15,3.02,7.94-1.77-.09-1.98-1.45-3.16-3.41-3.07-1.13.05-1.12-1.7,0-1.75,4.36-.2,6.38,4.47,4.41,8.05-2.15,3.91-7.73,3.23-10.1-.05s-2.19-7.63.32-10.58,6.88-4.36,10.68-3.77,6.43,3.21,7.82,6.53c1.87,4.46.61,9.89-2.28,13.64-2.64,3.43-6.98,5.42-11.32,4.94s-8.25-3.53-10.6-7.25c-1.81-2.86-3.02-6.37-2.8-9.79.25-3.88,1.66-7.76,4.41-10.57,5.79-5.93,15.92-5.92,22.59-1.55,7.59,4.97,8.99,14.53,5.72,22.53-1.52,3.71-3.94,7.16-7.28,9.44-3.05,2.08-6.92,3.19-10.6,3.23-8.71.1-16.23-5.99-19.34-13.86s-1.35-17.06,4.17-23.61c.57-.68,1.17-1.32,1.82-1.92.82-.77,2.06.47,1.24,1.24h0Z"/>
</svg> 