<?xml version="1.0" encoding="UTF-8"?>
<svg id="Lager_1" data-name="Lager 1" xmlns="http://www.w3.org/2000/svg" viewBox="0 0 50 50">
  <path d="M20.87,8.52c-.45-.97-1.35-1.56-2.21-2.16-.95-.66-2-1.11-3.17-1.18-2.17-.14-4.31,1.21-5.11,3.23-.91,2.27.32,4.53,1.84,6.21.78.86,1.78,1.55,2.96,1.65s2.24-.45,3.13-1.12c1.85-1.4,3.52-4.09,2.62-6.47-.28-.75-1.49-.42-1.21.33.62,1.63-.38,3.5-1.54,4.62-.63.61-1.41,1.16-2.27,1.35s-1.69-.19-2.32-.76c-1.25-1.12-2.6-3-2.22-4.77.36-1.67,1.91-2.92,3.6-3.01,1.01-.06,1.97.28,2.81.84.77.51,1.61,1.02,2.01,1.89.34.73,1.42.09,1.08-.63Z"/>
  <path d="M29.94,11.37c.35.77.08,1.55-.32,2.24s-.92,1.46-1.55,1.98c-1.39,1.16-3.22.02-4.32-1s-1.71-2.33-1.46-3.8c.11-.67.39-1.32.86-1.82.61-.65,1.34-.85,2.21-.68,1.72.35,3.94,1.06,4.51,2.92.24.77,1.44.44,1.21-.33-.69-2.24-2.91-3.17-5-3.71-1.12-.29-2.27-.3-3.24.41-.77.56-1.31,1.37-1.6,2.28-.61,1.88-.03,3.9,1.32,5.3s3.78,2.89,5.77,1.76c1.02-.58,1.8-1.7,2.37-2.69.65-1.12.87-2.3.32-3.5-.33-.73-1.41-.1-1.08.63h0Z"/>
  <path d="M34.93,19.95c-.16-.97-.87-1.85-1.57-2.49-.75-.69-1.66-1.17-2.68-1.31-2.22-.31-3.91,1.24-4.98,3.02-.61,1.01-1.07,2.13-.74,3.32.28.98.95,1.82,1.76,2.41,1.59,1.15,3.59,1.16,5.25.16s3.2-2.92,2.98-4.94c-.04-.34-.26-.62-.62-.62-.31,0-.66.29-.62.62.15,1.35-.72,2.56-1.7,3.39-1.07.9-2.42,1.33-3.76.8-.69-.28-1.31-.77-1.71-1.4-.51-.81-.52-1.62-.1-2.47.66-1.33,1.77-2.91,3.38-3.08.89-.09,1.81.25,2.49.82.64.53,1.29,1.26,1.43,2.1.13.79,1.34.46,1.21-.33h0Z"/>
  <path d="M25.43,23.69c-1.03-.26-2.22-.44-3.24-.06s-1.72,1.31-2.33,2.14c-1.28,1.76-1.19,4.07.17,5.76,1.19,1.47,3.21,2.25,5.07,1.87,2.1-.43,3.1-2.49,3.32-4.45.12-1.09.06-2.24-.4-3.25-.5-1.1-1.46-1.7-2.59-2.01-.78-.21-1.11.99-.33,1.21.73.2,1.36.51,1.73,1.2s.42,1.5.39,2.26c-.06,1.38-.54,3.19-1.99,3.72-2.84,1.04-6.21-2.23-4.69-5.05.23-.43.53-.8.84-1.17.27-.31.54-.65.89-.88.81-.52,1.94-.29,2.81-.07.78.19,1.11-1.01.33-1.21Z"/>
  <path d="M24.99,17.67c-.3-1.07-1.15-1.87-2-2.52-.93-.71-2.01-1.33-3.21-1.35-2.43-.04-4.02,2.65-4.54,4.73-.32,1.31.05,2.51.84,3.57.69.93,1.56,1.92,2.58,2.48,1.8.99,3.89.18,5.17-1.26,1.37-1.54,2.12-3.87,1.1-5.79-.38-.71-1.46-.08-1.08.63,1.21,2.26-1.22,6-3.83,5.6-.92-.14-1.62-.89-2.22-1.54-.63-.69-1.34-1.49-1.44-2.47s.45-2.01.92-2.84c.4-.7.93-1.43,1.71-1.72,1.03-.39,2.06.14,2.9.71.75.51,1.63,1.2,1.89,2.11.22.77,1.43.44,1.21-.33h0Z"/>
  <path d="M14.25,15.7c-1.15-1.78-3.4-3.47-5.64-2.89-1.18.3-1.95,1.26-2.56,2.26s-1.18,2.08-1.23,3.27c-.05,1.1.4,2.12,1.12,2.93.66.75,1.59,1.45,2.52,1.82,1.98.78,4.57.03,5.89-1.63s.98-4.01-.1-5.75c-.42-.68-1.5-.06-1.08.63.68,1.1,1.14,2.56.55,3.8-.69,1.45-2.63,2.22-4.17,1.97-.8-.13-1.48-.6-2.09-1.11s-1.14-1.12-1.32-1.91c-.21-.91.12-1.81.55-2.61s.87-1.65,1.59-2.16c1.71-1.21,3.98.61,4.9,2.02.44.67,1.52.05,1.08-.63Z"/>
  <path d="M16.57,22.43c-1.64-1.57-4.05-.22-5.53.9-.82.63-1.54,1.4-1.85,2.41-.34,1.1.02,2.2.5,3.2.44.94,1.06,1.84,1.97,2.39.83.5,1.85.69,2.81.58,1.98-.22,3.76-1.7,4.59-3.48.51-1.1.55-2.27-.02-3.35s-1.65-1.75-2.47-2.65c-.55-.59-1.43.29-.88.88,1,1.08,2.8,2.05,2.51,3.78-.25,1.47-1.64,2.91-3.02,3.39s-2.99.09-3.84-1.17c-.46-.68-.9-1.52-1-2.34s.29-1.53.84-2.09c.66-.67,1.49-1.16,2.34-1.56.7-.33,1.55-.61,2.19,0,.58.56,1.47-.33.88-.88h0Z"/>
  <path d="M9.27,24.51c-.13-1.02-.46-2.03-1.24-2.74-.68-.62-1.59-.95-2.51-.9-2.19.1-3.93,1.79-4.74,3.73-.68,1.62-.82,3.71.11,5.27,1.1,1.85,3.43,1.88,5.21,1.08,1.11-.5,2.04-1.34,2.54-2.46.55-1.24.63-2.63.63-3.97,0-.8-1.25-.81-1.25,0,0,1.77-.13,3.82-1.74,4.91-1.09.74-3.02,1.3-4.06.17-.86-.93-.87-2.52-.58-3.67.38-1.52,1.41-3.05,2.94-3.6.74-.26,1.56-.3,2.25.12s1.07,1.27,1.17,2.08c.04.34.26.62.62.62.31,0,.67-.29.62-.62h0Z"/>
  <path d="M9.72,36.21c-.93-1.29-2.46-1.98-4.04-1.74s-2.8,1.49-3.11,3.03.23,3.21,1.27,4.41c.52.59,1.22,1.13,1.99,1.32,1.06.27,2.01-.18,2.82-.84s1.48-1.49,1.69-2.49c.27-1.21-.14-2.42-.56-3.54-.12-.32-.42-.53-.77-.44-.3.08-.56.45-.44.77.31.83.64,1.69.6,2.58-.03.66-.41,1.25-.86,1.72s-1.08,1.05-1.77,1.07c-.61.02-1.16-.37-1.57-.78-.82-.8-1.3-1.94-1.25-3.07s.74-2.12,1.79-2.44c1.1-.33,2.41.07,3.12,1.06.2.27.54.41.86.22.27-.16.42-.58.22-.86h0Z"/>
  <path d="M30.32,16.39c1.03-1.11,3.04-.86,4.42-.93,1.58-.07,3.24-.28,4.8-.03,1.46.24,2.86.86,4.24,1.36,1.65.59,3.3,1.18,4.95,1.77.76.27,1.09-.94.33-1.21-1.88-.67-3.77-1.35-5.65-2.02-1.56-.56-3.08-1.15-4.75-1.24-1.78-.09-3.6.1-5.38.18-1.39.07-2.84.14-3.85,1.23-.55.59.33,1.47.88.88h0Z"/>
</svg>