<svg width="58" height="61" viewBox="0 0 58 61" fill="none" xmlns="http://www.w3.org/2000/svg">
<path d="M43.2882 59.64C43.2815 60.0235 43.1517 60.3937 42.9198 60.6915C42.66 60.9167 42.3254 61.0258 41.9888 60.9948C41.8022 61.011 41.6146 60.9831 41.4399 60.9131C41.2653 60.8431 41.108 60.7327 40.9802 60.5904C40.7166 60.193 40.5809 59.7185 40.5922 59.2356L40.3788 55.3125V55.0092C40.335 54.5976 40.4464 54.1843 40.6891 53.8566C40.8217 53.7302 40.9782 53.6342 41.1486 53.5749C41.3191 53.5158 41.4995 53.4946 41.6784 53.5129C42.3249 53.5129 42.7904 53.9981 43.075 54.9688C43.1729 55.348 43.2961 55.7195 43.4434 56.081C43.8347 56.8793 44.4693 57.5195 45.2473 57.9009C46.1615 58.3528 47.1648 58.5745 48.1762 58.548C49.386 58.6054 50.5799 58.2428 51.5707 57.5167C51.9784 57.2194 52.3101 56.8226 52.5365 56.3608C52.7631 55.8989 52.8777 55.3863 52.8703 54.8677C52.89 54.4721 52.8294 54.0766 52.6924 53.7073C52.5554 53.3379 52.3449 53.0029 52.075 52.7241C51.4174 52.1263 50.5966 51.7587 49.7279 51.6726L47.3228 51.3289C45.5565 51.1941 43.8594 50.5577 42.4155 49.4887C41.8992 49.0185 41.4927 48.4317 41.2271 47.7728C40.9616 47.114 40.8439 46.4006 40.8831 45.687C40.8756 44.8452 41.0576 44.0132 41.4147 43.2581C41.7718 42.503 42.2939 41.8457 42.9391 41.3394C44.3895 40.1336 46.2061 39.5095 48.0599 39.5802C48.7134 39.58 49.3646 39.6614 49.9995 39.8228C50.7597 40.0233 51.505 40.2801 52.2301 40.5912C52.2288 40.4634 52.2521 40.3367 52.2987 40.2185C52.3455 40.1005 52.4145 39.9933 52.5017 39.9036C52.7358 39.76 53.007 39.6964 53.2775 39.7217C53.6212 39.6912 53.9658 39.7686 54.2668 39.944C54.4974 40.2414 54.6208 40.6133 54.6159 40.9957L54.8294 44.5344V44.6962C54.8416 44.8652 54.8204 45.0349 54.767 45.1949C54.7136 45.355 54.6292 45.5019 54.519 45.6263C54.2681 45.8557 53.9402 45.972 53.6073 45.9499C53.0255 45.9499 52.5793 45.5455 52.2689 44.6962C52.1564 44.3302 52.0068 43.9776 51.8229 43.6446C51.4404 43.0573 50.9007 42.6003 50.271 42.3302C49.5459 42.0183 48.7665 41.8669 47.9823 41.8853C46.8414 41.8262 45.7164 42.1838 44.8013 42.8964C44.4103 43.2049 44.0954 43.6062 43.8828 44.0669C43.6704 44.5276 43.5663 45.0345 43.5793 45.5455C43.5663 45.9338 43.6422 46.3197 43.8008 46.6714C43.9592 47.0231 44.1958 47.3302 44.491 47.5676C45.3248 48.1458 46.2859 48.4936 47.284 48.5787L49.8831 48.9023C51.4443 49.0269 52.9291 49.6561 54.1311 50.702C54.6133 51.199 54.9903 51.796 55.2375 52.4542C55.4847 53.1125 55.5968 53.8177 55.5664 54.5239C55.6045 55.3903 55.4492 56.2539 55.1126 57.0469C54.776 57.84 54.2673 58.5408 53.6268 59.0941C52.0685 60.3037 50.1555 60.9112 48.215 60.8129C47.4315 60.8085 46.6509 60.7136 45.8875 60.5297C44.9969 60.3165 44.1268 60.0188 43.2882 59.64Z" fill="#1D1D1B"/>
<path d="M15.5705 42.5931C14.807 41.6275 13.8425 40.856 12.7501 40.3375C11.6578 39.8188 10.4664 39.5667 9.26649 39.6003C8.05825 39.5599 6.85684 39.8045 5.75188 40.3157C4.64692 40.8268 3.66693 41.5915 2.88499 42.5527C1.20032 44.695 0.330435 47.4084 0.441026 50.1763C0.33689 52.9437 1.22159 55.6532 2.9238 57.7797C3.71021 58.7125 4.67839 59.4599 5.76375 59.9718C6.84911 60.4838 8.02671 60.7487 9.21801 60.7487C10.4093 60.7487 11.5869 60.4838 12.6723 59.9718C13.7576 59.4599 14.7258 58.7125 15.5122 57.7797C17.2178 55.655 18.1029 52.9443 17.9949 50.1763C18.1123 47.4232 17.2487 44.7221 15.5705 42.5931ZM13.6307 56.2023C13.1186 56.8759 12.467 57.4202 11.7247 57.7943C10.9824 58.1684 10.1686 58.3627 9.34409 58.3627C8.5196 58.3627 7.70578 58.1684 6.96346 57.7943C6.22115 57.4202 5.56955 56.8759 5.05742 56.2023C3.92695 54.4071 3.38272 52.2794 3.5057 50.1357C3.37279 47.9911 3.91783 45.8603 5.05742 44.0693C5.5674 43.3923 6.21826 42.8449 6.96086 42.4685C7.70345 42.0921 8.51839 41.8965 9.34409 41.8965C10.1698 41.8965 10.9847 42.0921 11.7273 42.4685C12.4699 42.8449 13.1208 43.3923 13.6307 44.0693C14.7785 45.8571 15.3305 47.9887 15.2019 50.1357C15.3063 52.2919 14.7269 54.4237 13.5532 56.2023H13.6307Z" fill="#1D1D1B"/>
<path d="M44.7042 17.6801H45.8099C46.2664 17.6427 46.7237 17.7408 47.1288 17.9631C47.2632 18.0624 47.3699 18.1971 47.438 18.3534C47.5061 18.5097 47.5334 18.682 47.5168 18.853C47.5333 19.027 47.5122 19.2027 47.4551 19.367C47.398 19.5314 47.3064 19.6806 47.187 19.8033C46.7942 20.0197 46.349 20.1111 45.9068 20.0663H40.4369C40.2856 20.0769 40.1335 20.0556 39.9903 20.0034C39.8469 19.9513 39.7151 19.8695 39.603 19.7629C39.4985 19.6391 39.4192 19.4948 39.3692 19.3385C39.3192 19.1824 39.2997 19.0172 39.3119 18.853C39.3209 18.6964 39.364 18.5438 39.4379 18.4072C39.5118 18.2704 39.6148 18.1531 39.7387 18.0642C40.054 17.8483 40.4295 17.7486 40.8055 17.7812H42.2796V2.29137H41.3293C40.7945 2.34115 40.2561 2.25799 39.7581 2.04872C39.6308 1.94477 39.5317 1.80807 39.4705 1.65206C39.4093 1.49605 39.388 1.3261 39.409 1.15896C39.3913 0.84381 39.4882 0.533293 39.6805 0.289428C39.9213 0.087634 40.2255 -0.0133087 40.534 0.00632557H47.3811C48.6267 -0.02439 49.8728 0.0567963 51.1051 0.248985C51.84 0.378653 52.5406 0.66802 53.1612 1.09829C53.8926 1.6079 54.4869 2.304 54.8875 3.12046C55.2971 3.95253 55.5099 4.87468 55.5082 5.80995C55.5307 7.03057 55.1236 8.21751 54.3637 9.14651C53.5323 10.1605 52.4104 10.8694 51.1634 11.1687C51.4426 11.3311 51.6977 11.5355 51.9198 11.7753C52.1676 12.0132 52.3829 12.2853 52.5599 12.5842L55.838 17.7812H56.3616C56.797 17.7479 57.2329 17.8387 57.6224 18.0441C57.74 18.1597 57.8307 18.3018 57.8878 18.4595C57.9449 18.617 57.967 18.7862 57.9522 18.9541C57.9741 19.2821 57.8772 19.6068 57.6807 19.864C57.5685 19.9706 57.4367 20.0524 57.2934 20.1045C57.15 20.1567 56.9981 20.178 56.8466 20.1674H54.907C54.3832 20.1674 53.8596 19.7629 53.3551 18.9541C53.2986 18.9054 53.2467 18.8513 53.1999 18.7923L50.0771 13.8582C49.6685 13.0952 49.1371 12.4112 48.5061 11.836C48.0091 11.5251 47.4365 11.3706 46.8573 11.3911H44.7042V17.6801ZM44.7042 2.29137V9.12629H48.0599C49.2545 9.21623 50.4467 8.91963 51.4738 8.27698C51.854 7.98635 52.1581 7.60069 52.3582 7.15545C52.5582 6.71023 52.6476 6.21971 52.6181 5.72906C52.653 5.23687 52.5682 4.74345 52.3716 4.29452C52.175 3.84559 51.8727 3.45568 51.4931 3.1609C50.4991 2.506 49.3295 2.2012 48.1569 2.29137H44.7042Z" fill="#1D1D1B"/>
<path d="M2.43888 20.0864H1.68241C1.52487 20.0992 1.36644 20.0789 1.21653 20.0269C1.06661 19.9747 0.928227 19.8918 0.809539 19.783C0.69881 19.663 0.613872 19.5198 0.560362 19.3629C0.506851 19.206 0.486015 19.039 0.499215 18.8731C0.478634 18.703 0.499878 18.5302 0.560954 18.371C0.622029 18.2118 0.720915 18.0715 0.84834 17.9631C1.34953 17.7398 1.89602 17.6494 2.43888 17.7002H3.48629V2.43289H2.43888C1.90413 2.48269 1.36569 2.39951 0.867757 2.19024C0.733476 2.07339 0.629383 1.92335 0.565009 1.7538C0.500634 1.58425 0.478022 1.4006 0.499215 1.2196C0.483397 1.05345 0.503008 0.885704 0.556662 0.728387C0.610316 0.571068 0.69666 0.428066 0.809539 0.30962C1.06338 0.0875396 1.39088 -0.0214256 1.72119 0.00629622H15.8614C16.0161 -0.0029574 16.1707 0.0230003 16.3148 0.0823655C16.4587 0.141731 16.5887 0.233079 16.6955 0.350063C16.8986 0.642633 16.9949 1.00116 16.967 1.36115V5.40547C17.0026 5.83131 16.9219 6.25897 16.7343 6.639C16.6214 6.75787 16.4844 6.84868 16.3332 6.9047C16.1822 6.96071 16.0208 6.98049 15.8614 6.96254C15.6897 6.98352 15.5155 6.96144 15.3535 6.89814C15.1916 6.83482 15.0466 6.73211 14.9304 6.59855C14.7168 6.06874 14.6303 5.49267 14.6782 4.92015V2.43289H6.04667V8.1354H10.2946V7.24564C10.2858 6.78143 10.4071 6.32463 10.6437 5.93124C10.7429 5.80981 10.8688 5.71514 11.0106 5.6553C11.1524 5.59544 11.306 5.57218 11.4583 5.58748C11.6091 5.56982 11.7617 5.59643 11.8988 5.66431C12.0359 5.7322 12.1521 5.83866 12.2342 5.97169C12.4355 6.48355 12.5154 7.0385 12.467 7.58942V10.7844C12.5202 11.3355 12.4401 11.8916 12.2342 12.4022C12.1393 12.5301 12.0147 12.6306 11.8722 12.6943C11.7296 12.758 11.5738 12.7827 11.4195 12.7662C11.2639 12.7833 11.1069 12.7545 10.9662 12.683C10.8256 12.6114 10.7071 12.5001 10.6243 12.3617C10.4298 11.8621 10.3501 11.3219 10.3915 10.7844V10.198H6.14362V17.6801H14.7752V14.9501C14.7273 14.3776 14.8138 13.8015 15.0274 13.2717C15.1435 13.1381 15.2886 13.0354 15.4506 12.9721C15.6125 12.9088 15.7866 12.8867 15.9584 12.9077C16.1168 12.8855 16.2782 12.9054 16.4273 12.9655C16.5766 13.0256 16.7087 13.1239 16.8118 13.2515C17.0223 13.6526 17.1102 14.1112 17.0639 14.5659V18.8327C17.0855 19.1701 16.9812 19.5033 16.773 19.7629C16.6638 19.868 16.5353 19.949 16.3953 20.001C16.2553 20.0531 16.1068 20.0754 15.9584 20.0662L2.43888 20.0864Z" fill="#1D1D1B"/>
</svg>
