<svg width="115" height="73" viewBox="0 0 115 73" fill="none" xmlns="http://www.w3.org/2000/svg">
<path d="M3.25492 5.49989L1.02422 33.686C0.890363 35.5519 0.890363 37.4253 1.02422 39.2914L3.25492 67.4774C3.35549 68.7691 3.92692 69.9751 4.85634 70.857C5.78576 71.7388 7.0055 72.2323 8.27401 72.2396H12.0216C13.2886 72.2271 14.5053 71.7319 15.4337 70.8511C16.362 69.9702 16.9352 68.7671 17.0407 67.4774L19.2714 39.2914C19.2714 38.9723 19.2714 38.6532 19.2714 38.3343H36.1355C36.6485 38.5393 37.4068 40.6128 37.7862 41.6155C38.723 44.1446 39.9054 47.2891 42.8276 47.2891C45.7498 47.2891 46.932 44.1446 47.869 41.6155C48.2482 40.6356 49.0066 38.5393 49.4973 38.3571C49.919 38.3425 50.3384 38.4249 50.7246 38.5986C51.1108 38.7721 51.4536 39.0322 51.728 39.3596C52.919 40.5568 54.5185 41.2348 56.1894 41.2508C59.2677 41.2508 60.2492 37.3089 61.2976 33.1391C61.6771 31.4261 62.1539 29.7372 62.7253 28.0807C63.4913 30.2009 64.059 32.3906 64.4207 34.6201C65.536 40.0887 66.3837 44.3953 69.5513 44.3953C72.2727 44.3953 73.5442 42.1168 74.4812 40.4306C75.4181 38.7445 75.7081 38.3571 76.2434 38.3571C76.7788 38.3571 77.4925 40.6356 77.8717 41.5014C78.8309 43.9624 79.9909 47.0385 82.9131 47.0385C85.8355 47.0385 86.9953 43.9624 87.9323 41.5242C88.3114 40.5445 89.0922 38.5165 89.583 38.3571C90.0737 38.1976 90.5423 38.9723 91.3453 40.4306C92.1484 41.8889 93.5759 44.3953 96.275 44.3953C98.9742 44.3953 100.268 42.1168 101.183 40.4306C102.097 38.7445 102.432 38.3571 102.945 38.3571C103.458 38.3571 103.882 38.9723 104.707 40.4306C105.533 41.8889 106.938 44.3953 109.637 44.3953C110.693 44.2947 111.701 43.8934 112.545 43.2369C113.389 42.5802 114.035 41.6947 114.411 40.6812H109.637C109.102 40.6812 108.678 40.0661 107.875 38.6077C107.072 37.1494 105.644 34.6429 102.945 34.6429C100.246 34.6429 98.952 36.9216 98.015 38.6077C97.0782 40.2939 96.7882 40.6812 96.275 40.6812C95.7619 40.6812 95.3159 40.0661 94.5128 38.6077C93.7098 37.1494 92.2821 34.6429 89.583 34.6429C86.8838 34.6429 85.5008 37.6963 84.5638 40.1572C84.1846 41.1369 83.404 43.1421 82.9131 43.3243C82.4224 43.1421 81.6417 41.0458 81.2626 40.1572C80.3032 37.6963 79.1432 34.6429 76.221 34.6429C73.2988 34.6429 72.2281 36.9216 71.3135 38.6077C70.6443 39.8153 70.2204 40.4306 69.819 40.6356C68.9461 38.4392 68.332 36.1444 67.9897 33.7999C66.8968 28.3541 66.0267 24.0476 62.8592 24.0476C59.6916 24.0476 58.7994 27.9668 57.7732 32.1366C57.4022 33.9707 56.8797 35.7697 56.2118 37.514C55.7885 37.5241 55.3685 37.4373 54.9825 37.26C54.5965 37.0825 54.2542 36.8189 53.9811 36.4886C52.7892 35.2957 51.1884 34.6253 49.5197 34.6201C46.5975 34.6201 45.4375 37.7646 44.5005 40.2711C44.1213 41.2736 43.3405 43.3471 42.8721 43.5523C42.359 43.3471 41.5783 41.2736 41.199 40.2711C40.2622 37.7418 39.1022 34.6201 36.18 34.6201H19.2714C19.2714 34.3012 19.2714 33.9821 19.2714 33.686L17.0407 5.49989C16.9299 4.2142 16.3546 3.01668 15.4267 2.14056C14.4989 1.26443 13.285 0.772449 12.0216 0.760437H8.27401C7.00904 0.767288 5.79229 1.25752 4.86341 2.13465C3.93453 3.01179 3.36078 4.21229 3.25492 5.49989ZM12.0216 4.45174C12.3719 4.45629 12.7079 4.59435 12.9637 4.83883C13.2196 5.0833 13.3768 5.41657 13.4046 5.77332L15.6353 33.9595C15.7692 35.6427 15.7692 37.3345 15.6353 39.0179L13.4046 67.204C13.3768 67.5606 13.2196 67.894 12.9637 68.1384C12.7079 68.3829 12.3719 68.521 12.0216 68.5256H8.27401C7.92368 68.521 7.58755 68.3829 7.3317 68.1384C7.07586 67.894 6.91876 67.5606 6.89098 67.204L4.66028 39.0179C4.66028 38.1748 4.54863 37.3318 4.54863 36.4886C4.54863 35.6456 4.54875 34.8025 4.66028 33.9595L6.89098 5.77332C6.91876 5.41657 7.07586 5.0833 7.3317 4.83883C7.58755 4.59435 7.92368 4.45629 8.27401 4.45174H12.0216Z" fill="#1D1D1B"/>
</svg>
