<svg width="148" height="63" viewBox="0 0 148 63" fill="none" xmlns="http://www.w3.org/2000/svg">
<path d="M0 52.9186C2.87482 52.7937 3.36565 51.9732 3.36565 50.2786V26.5543C3.36565 24.7705 2.87482 24.0213 0 23.8964V22.951H13.8833V23.8964C10.9208 24.0213 10.4826 24.8418 10.4826 26.5543V52.651H11.324C16.986 52.651 18.178 49.9575 21.6664 41.8056H22.8759L22.5078 53.8461H0V52.9186Z" fill="#1D1D1B"/>
<path d="M44.0514 42.1267H49.0122C49.3979 37.364 48.6967 33.6716 46.8035 33.6716C44.9104 33.6716 44.104 36.811 44.0514 42.1802M37.4604 43.7143C37.4604 36.9537 41.3519 32.4943 46.9788 32.4943C52.6058 32.4943 55.6033 37.3105 55.2878 43.304H44.0514V43.3932C44.0514 49.1013 46.0498 52.0802 49.3102 52.0802C50.4337 51.9603 51.5028 51.5272 52.3998 50.8285C53.2968 50.1296 53.9869 49.1926 54.3938 48.1202L55.2352 48.6197C54.5792 50.2889 53.4512 51.7226 51.9938 52.7388C50.5364 53.7548 48.8156 54.308 47.0489 54.3278C41.0364 54.3278 37.4078 50.1894 37.4078 43.7143" fill="#1D1D1B"/>
<path d="M71.0292 43.4289C71.0292 38.1667 69.8898 35.0629 67.5233 35.0629C66.5429 35.2061 65.6496 35.7147 65.0166 36.4899V50.0467C65.858 52.0624 66.7695 52.9721 67.9791 52.9721C70.2228 52.9721 71.0642 49.5116 71.0642 43.4289M58.6885 50.457V25.3056C58.6885 23.9143 58.4255 23.0937 56.0766 23.058V22.2018L65.0166 21.8451V35.2056C65.696 34.3733 66.5408 33.6965 67.4956 33.2201C68.4502 32.7436 69.4931 32.478 70.5559 32.4407C75.3239 32.4407 77.6728 36.9359 77.6728 42.6618C77.6728 49.0834 74.3072 54.1851 68.5926 54.1851C66.3944 54.1749 64.2569 53.45 62.4924 52.1159L59.5299 54.5775H58.5658L58.6885 50.457Z" fill="#1D1D1B"/>
<path d="M79.1628 53.0078C81.2488 52.9186 81.652 52.5618 81.652 51.224V25.3056C81.652 23.9143 81.3891 23.0937 79.0752 23.058V22.2018L87.9801 21.8451V51.3132C87.9801 52.5618 88.3658 52.9186 90.5044 53.097V53.8461H79.1628V53.0078Z" fill="#1D1D1B"/>
<path d="M104.212 53.0078C106.246 52.9186 106.631 52.5618 106.631 51.224V36.3116C106.631 34.9737 106.368 34.0283 104.212 33.9748V33.1186L112.977 32.7618V36.6683C113.692 35.5115 114.664 34.5422 115.815 33.8389C116.966 33.1353 118.264 32.7176 119.603 32.6191C122.969 32.6191 124.389 34.7775 124.389 38.4699V51.3132C124.389 52.5618 124.792 52.9186 126.825 53.097V53.8461H116.308V52.9899C117.5 52.9899 118.061 52.5975 118.061 51.2062V38.7197C118.061 36.9359 117.482 35.937 116.062 35.937C115.435 35.994 114.831 36.2036 114.3 36.5483C113.769 36.8929 113.327 37.3622 113.012 37.917V51.2418C113.012 52.544 113.643 52.9007 114.765 53.0256V53.8461H104.247L104.212 53.0078Z" fill="#1D1D1B"/>
<path d="M139.008 39.5759C139.008 35.7051 138.272 33.7251 136.414 33.7251C134.556 33.7251 134.065 35.5089 134.065 39.5759C134.065 43.6429 134.819 45.4267 136.677 45.4267C138.535 45.4267 139.008 43.6429 139.008 39.5759ZM142.251 57.6278C142.251 56.0045 141.41 54.9699 137.518 54.9699H132.47C131.977 55.2657 131.57 55.6888 131.29 56.1963C131.01 56.7038 130.866 57.2776 130.875 57.8597C130.875 60.3748 132.996 61.6413 136.589 61.6413C140.183 61.6413 142.251 60.1964 142.251 57.6278ZM140.393 33.2435C141.357 31.1743 142.689 29.4083 144.863 29.4083C145.198 29.3714 145.536 29.4092 145.855 29.5189C146.173 29.6288 146.464 29.8079 146.708 30.0439C146.952 30.2799 147.142 30.5672 147.265 30.8856C147.389 31.204 147.442 31.5462 147.422 31.8878C147.449 32.1835 147.415 32.4816 147.323 32.7631C147.23 33.0447 147.081 33.3036 146.885 33.5233C146.689 33.7431 146.45 33.919 146.183 34.0396C145.916 34.1603 145.628 34.2233 145.336 34.2245C144.109 34.2245 143.268 33.1007 143.268 31.6202C142.42 32.0576 141.737 32.7656 141.322 33.6359C142.395 34.1678 143.296 35.0017 143.917 36.0388C144.539 37.0757 144.855 38.2725 144.828 39.4867C144.828 43.6429 141.322 46.5148 136.466 46.5148C135.496 46.5405 134.528 46.4203 133.592 46.158C132.294 46.7824 131.839 47.371 131.839 48.138C131.839 48.9051 132.505 49.6186 135.345 49.6186H138.85C143.811 49.6186 146.108 51.5094 146.108 55.2553C146.108 59.0013 142.076 62.7651 135.59 62.7651C130.506 62.7651 127.193 60.9813 127.193 58.3591C127.193 56.5753 128.789 55.291 131.523 54.6667V54.4883C130.646 54.2022 129.88 53.6408 129.335 52.8847C128.79 52.1284 128.495 51.2161 128.491 50.2786C128.491 48.4948 129.77 46.9429 132.207 45.6764C131 45.2109 129.967 44.3719 129.253 43.2776C128.539 42.1831 128.18 40.8886 128.228 39.5759C128.228 35.4375 131.734 32.4407 136.589 32.4407C137.884 32.4288 139.171 32.6461 140.393 33.0829" fill="#1D1D1B"/>
<path d="M91.5386 53.0078C93.6071 52.9186 94.1505 52.5618 94.1505 51.224V36.2224C94.1505 34.831 93.7473 34.0283 91.5386 33.9748V33.1186L100.479 32.7618V51.3132C100.479 52.5618 100.829 52.9186 102.95 53.097V53.8461H91.5386V53.0078Z" fill="#1D1D1B"/>
<path d="M24.5061 53.0078C26.5746 52.9186 27.118 52.5618 27.118 51.224V36.2224C27.118 34.831 26.7148 34.0283 24.5061 33.9748V33.1186L33.4461 32.7618V51.3132C33.4461 52.5618 33.7967 52.9186 35.9178 53.097V53.8461H24.5061V53.0078Z" fill="#1D1D1B"/>
<path d="M32.2191 16.8683C32.2751 16.9136 32.3414 16.9443 32.4119 16.9575L35.6548 17.0645C36.2333 17.0645 36.4261 17.3499 36.4086 17.9386C36.3911 18.5272 36.4086 18.9732 36.4086 19.4905C36.4086 20.7748 36.2859 22.077 36.3034 23.3613C36.3034 23.6645 36.4261 23.9678 36.4086 24.2532C36.3772 24.5495 36.3187 24.8422 36.2333 25.1272C36.2254 25.1923 36.2254 25.2583 36.2333 25.3235C36.2333 26.037 36.3209 26.7505 36.3385 27.464C36.3283 27.829 36.3877 28.1925 36.5138 28.5343C36.5443 28.6149 36.5585 28.701 36.5555 28.7874C36.5523 28.8739 36.5323 28.9588 36.4962 29.0369C36.4603 29.1152 36.4091 29.1853 36.3458 29.2431C36.2826 29.3008 36.2086 29.3448 36.1281 29.3726C35.8859 29.4691 35.6166 29.4691 35.3744 29.3726C35.1494 29.3195 34.9156 29.3195 34.6907 29.3726L31.6932 29.551C30.8479 29.5351 30.0046 29.6372 29.1865 29.8543C29.082 29.8719 28.9754 29.8719 28.8709 29.8543C28.282 29.8127 27.6902 29.8669 27.118 30.0148C26.2559 30.2517 25.3766 30.4186 24.4886 30.5143C24.1909 30.551 23.8975 30.6168 23.6121 30.7105L23.3316 30.657C23.2245 30.609 23.135 30.5284 23.0752 30.426C23.0154 30.3236 22.9888 30.2048 22.9986 30.0862C22.9986 28.3024 22.8233 26.6256 22.8934 24.8953C22.8964 22.885 22.7675 20.8768 22.5078 18.884C22.5162 18.7771 22.5162 18.6698 22.5078 18.5629C22.478 18.4764 22.4657 18.3845 22.4717 18.293C22.4778 18.2015 22.502 18.1121 22.543 18.0304C22.5838 17.9488 22.6408 17.8763 22.7101 17.8176C22.7793 17.759 22.8596 17.7151 22.946 17.6889C23.1138 17.6542 23.2866 17.6542 23.4544 17.6889C23.7911 17.7163 24.1298 17.6799 24.4535 17.5818C24.8392 17.5818 25.2599 17.4748 25.6455 17.4391H26.0312L26.1364 17.3321C26.1001 17.2861 26.0589 17.2443 26.0136 17.2072C25.4338 16.8102 24.8935 16.3562 24.4009 15.8516C23.8237 15.3346 23.4295 14.6389 23.2791 13.8716C23.244 13.6516 23.281 13.426 23.3842 13.2294C23.4822 12.9819 23.6295 12.7575 23.8163 12.5703C24.0034 12.3831 24.2262 12.2371 24.4711 12.1413C25.0143 11.8702 25.6285 11.7827 26.224 11.8916C26.8419 11.9055 27.4425 12.1017 27.9527 12.4563C28.4632 12.811 28.8613 13.3089 29.0988 13.8894C29.0988 13.9965 29.2215 14.1035 29.3092 14.264L29.5546 13.9429C29.7741 13.5026 30.0512 13.0945 30.3785 12.73C30.644 12.4637 30.959 12.254 31.3052 12.1132C31.6513 11.9723 32.0217 11.903 32.3944 11.9094C32.6855 11.8734 32.9798 11.8734 33.2708 11.9094C33.5653 12.0063 33.8379 12.1619 34.0726 12.3671C34.3073 12.5723 34.4996 12.823 34.6381 13.1046C34.6532 13.1811 34.6532 13.2599 34.6381 13.3365C34.7361 13.8279 34.7123 14.3366 34.5683 14.8162C34.4244 15.2959 34.1653 15.7315 33.8142 16.0835C33.6235 16.2494 33.4033 16.3765 33.1656 16.458L32.2892 16.8326L32.2191 16.8683ZM35.2166 17.9386C33.5313 17.8515 31.8418 17.9172 30.1681 18.1348C30.1066 18.3867 30.1066 18.65 30.1681 18.9018C30.2545 19.4921 30.2896 20.0891 30.2733 20.6856C30.2733 21.0067 30.2733 21.3456 30.2733 21.6667C30.2733 21.9878 30.3609 22.0948 30.7466 22.0948C31.1903 22.068 31.6351 22.068 32.0788 22.0948C33.0945 22.1658 34.115 22.0937 35.1114 21.8807C35.1114 21.8807 35.1114 21.8807 35.1991 21.8807C35.3312 20.5704 35.3372 19.25 35.2166 17.9386ZM28.9411 18.1705C28.8127 18.1614 28.6839 18.1614 28.5554 18.1705C28.31 18.1705 28.2224 18.3132 28.2224 18.5629C28.2048 18.6512 28.2048 18.7422 28.2224 18.8305C28.4327 20.0791 28.3626 21.3634 28.5905 22.6121V22.7548C28.5931 22.8344 28.5793 22.9136 28.55 22.9874C28.5207 23.0613 28.4767 23.128 28.4206 23.1834C28.3643 23.2389 28.2976 23.2817 28.2241 23.3092C28.1508 23.3368 28.0725 23.3484 27.9945 23.3434C27.826 23.3165 27.6546 23.3165 27.4861 23.3434C27.1262 23.4767 26.7473 23.5489 26.3642 23.5575L25.2248 23.6824C24.7764 23.7104 24.3396 23.8383 23.9452 24.057C23.84 24.3384 23.84 24.6495 23.9452 24.931C24.5373 24.9642 25.1305 24.8918 25.6981 24.717C25.8576 24.6643 26.0222 24.6285 26.1889 24.6099C26.7402 24.5573 27.2824 24.4314 27.8016 24.2353H28.0471C28.1081 24.2164 28.1722 24.2102 28.2355 24.2171C28.299 24.2241 28.3603 24.2439 28.4161 24.2757C28.4716 24.3072 28.5205 24.35 28.5594 24.4014C28.5985 24.4526 28.6269 24.5115 28.6431 24.5743C28.6615 24.7223 28.6615 24.8722 28.6431 25.0202C28.6431 25.4483 28.6431 25.8764 28.7833 26.3045C28.895 27.1154 29.0948 27.9112 29.3793 28.677L29.5721 28.891C29.6922 28.5236 29.7399 28.1356 29.7124 27.7494C29.7124 27.357 29.7124 26.9645 29.7124 26.5721C29.7211 25.8868 29.6859 25.2014 29.6072 24.5207C29.5723 24.4228 29.5723 24.3154 29.6072 24.2175C29.6897 24.1064 29.7954 24.0152 29.9166 23.9505C30.0379 23.8857 30.1716 23.849 30.3084 23.8429C30.5799 23.8363 30.8511 23.8663 31.1147 23.9321C31.8253 24.0684 32.5518 24.0985 33.2708 24.0213L34.6031 23.9143H35.0062C35.0131 23.7835 35.0131 23.6526 35.0062 23.5218C35.0062 23.2899 34.8835 23.1294 34.6556 23.1829C34.1648 23.1829 33.6915 23.1829 33.2007 23.1829C32.7099 23.1829 32.2191 23.1829 31.7282 23.1829C31.0821 23.1028 30.4286 23.1028 29.7825 23.1829C29.2916 23.3256 28.906 22.844 28.9586 22.3089C28.9957 21.7149 28.9957 21.1191 28.9586 20.5251C28.9586 19.9007 28.9586 19.2764 28.8184 18.6521C28.8718 18.4951 28.9128 18.334 28.9411 18.1705ZM35.1465 24.7348L31.6406 24.8775C31.3864 24.862 31.1342 24.9308 30.9219 25.0737C30.7911 25.5553 30.7554 26.0585 30.8167 26.5543C30.8009 27.2751 30.9077 27.9932 31.1322 28.677C32.5125 28.799 33.9029 28.6966 35.2516 28.3737C35.2516 28.2132 35.2516 28.0705 35.2516 27.9278C35.2516 26.804 35.1991 25.7516 35.1465 24.6635V24.7348ZM27.1881 22.6299C27.3641 22.3615 27.4502 22.0425 27.4335 21.7202L27.2232 18.6164C27.2232 18.4916 27.2232 18.3845 27.2232 18.2775C25.9889 18.133 24.7384 18.2921 23.5771 18.7413C23.6822 20.1326 23.8225 21.5418 23.9978 22.9689C25.0669 22.9194 26.1321 22.8064 27.1881 22.6299ZM23.9101 26.0548C23.888 27.2478 23.9585 28.4406 24.1205 29.6224C24.5845 29.7567 25.0763 29.7567 25.5404 29.6224L26.522 29.3905L28.0646 29.0159C28.1698 28.6247 28.1698 28.2119 28.0646 27.8207C27.9559 27.3382 27.8739 26.85 27.8192 26.358C27.8357 26.2098 27.8357 26.0603 27.8192 25.9121C27.714 25.5197 27.4686 25.3591 27.118 25.5197C26.5912 25.6954 26.0419 25.7915 25.4878 25.8051C24.9508 25.7819 24.4148 25.8668 23.9101 26.0548ZM33.0955 15.3521H33.2533C33.4515 15.1069 33.5913 14.8181 33.6612 14.5085C33.7311 14.199 33.7296 13.8771 33.6565 13.5683C33.5993 13.3588 33.4877 13.1687 33.3334 13.0181C33.1793 12.8674 32.9881 12.7618 32.78 12.7121C32.4597 12.6387 32.1254 12.6583 31.8155 12.7686C31.5056 12.879 31.2325 13.0758 31.0271 13.3365C31.0271 13.3365 31.0271 13.4435 31.0271 13.5148H31.1673C31.5705 13.5148 31.9561 13.5148 32.3593 13.5148C32.7625 13.5148 32.9728 13.7289 33.078 14.1927C33.1616 14.5021 33.1616 14.8287 33.078 15.1381C33.0663 15.2216 33.0722 15.3068 33.0955 15.3878V15.3521ZM25.5754 15.3521L25.6631 15.2451C25.459 15.0392 25.2769 14.812 25.1196 14.5673C25.0232 14.2659 25.0232 13.9411 25.1196 13.6397C25.5754 13.2294 25.6981 13.0332 26.4168 13.0689C26.6731 13.0697 26.9278 13.0275 27.1706 12.944C26.82 12.5873 26.7849 12.5694 26.4694 12.4981C25.9912 12.3821 25.4927 12.3821 25.0145 12.4981C24.8916 12.5291 24.7768 12.5869 24.6779 12.6675C24.579 12.7481 24.4984 12.8495 24.4418 12.9648C24.3852 13.0801 24.3538 13.2065 24.3498 13.3353C24.3457 13.4641 24.3692 13.5923 24.4185 13.7111C24.6116 14.3992 25.0173 15.0058 25.5754 15.4413V15.3521ZM26.2591 14.1035C26.5634 14.4839 26.8444 14.8831 27.1005 15.2986C27.2582 15.6197 27.5212 15.7089 27.8718 15.8516C27.8653 15.551 27.7981 15.2549 27.6746 14.9818C27.5508 14.7087 27.3734 14.4644 27.1531 14.264C27.0056 14.1425 26.84 14.0461 26.6622 13.9786C26.5746 14.05 26.4519 14.1392 26.2591 14.1927V14.1035ZM30.3785 15.8873C30.8698 15.7688 31.3303 15.5436 31.7282 15.2273C31.8478 15.1003 31.9482 14.956 32.0262 14.7992C32.0588 14.7456 32.076 14.6838 32.076 14.6208C32.076 14.5578 32.0588 14.496 32.0262 14.4424C31.9808 14.3998 31.9214 14.3761 31.8597 14.3761C31.798 14.3761 31.7386 14.3998 31.6932 14.4424C31.55 14.4911 31.4185 14.5702 31.3075 14.6743C30.9275 15.0516 30.6134 15.4919 30.3785 15.9765V15.8873Z" fill="#1D1D1B"/>
<path d="M108.612 2.25916C108.264 2.53709 107.826 2.67089 107.385 2.63375C106.979 2.0781 106.654 1.46518 106.421 0.814294C106.391 0.671377 106.32 0.540858 106.217 0.439521C106.113 0.338184 105.982 0.270682 105.841 0.245731C105.699 0.220779 105.554 0.239514 105.423 0.299512C105.292 0.359518 105.182 0.458055 105.106 0.582402C104.96 0.751915 104.841 0.944742 104.756 1.15321C104.732 1.23639 104.692 1.31391 104.638 1.38136C104.584 1.4488 104.518 1.50483 104.443 1.54625C104.369 1.58767 104.286 1.61366 104.202 1.62274C104.117 1.63182 104.031 1.62379 103.949 1.59916C103.461 1.53073 102.98 1.41728 102.512 1.26024C102.237 1.1809 101.946 1.1809 101.671 1.26024C101.602 1.26095 101.535 1.2787 101.475 1.31192C101.414 1.34513 101.363 1.39283 101.325 1.45085C101.287 1.50886 101.263 1.57545 101.256 1.64482C101.25 1.7142 101.259 1.78424 101.285 1.84889C101.359 2.06842 101.46 2.27951 101.584 2.47469C101.864 2.99149 102.144 3.50829 102.442 4.0251C102.21 4.60141 101.91 5.14657 101.548 5.64835C101.444 5.7552 101.386 5.89942 101.386 6.0497C101.386 6.19997 101.444 6.34418 101.548 6.45105C101.636 6.56937 101.755 6.65929 101.892 6.70993C102.029 6.76059 102.177 6.76979 102.319 6.73646C102.561 6.68899 102.797 6.61109 103.02 6.50456C103.146 6.4228 103.295 6.38871 103.443 6.40829C103.59 6.42786 103.726 6.49987 103.827 6.61159C104.321 7.04423 104.655 7.63589 104.773 8.28835C104.8 8.3816 104.8 8.4805 104.773 8.57375C104.63 8.98085 104.403 9.35195 104.107 9.66186C103.927 9.86475 103.675 9.98662 103.406 10.0008C103.044 10.0275 102.681 10.0275 102.319 10.0008C101.118 9.86273 99.9024 10.073 98.8133 10.6073C98.5726 10.7063 98.3567 10.8585 98.1808 11.0528C98.005 11.2471 97.8737 11.4788 97.7966 11.731C97.5329 12.4866 97.3564 13.2708 97.2707 14.0678C97.2665 14.41 97.1824 14.7463 97.0253 15.0489C96.5169 15.0667 95.9911 14.6565 95.5528 15.2273C95.5469 16.0389 95.4881 16.8494 95.3775 17.6532C95.1672 17.778 95.0094 17.778 94.8692 17.778C94.3615 17.9509 93.8639 18.1533 93.3792 18.3845C92.5192 18.8519 91.8124 19.5649 91.3458 20.4359C91.0905 20.8408 90.89 21.2787 90.7498 21.738C90.5745 22.4585 90.5745 23.2116 90.7498 23.9321C90.9622 24.938 91.2614 25.923 91.6438 26.8753C92.0043 27.7706 92.6619 28.5091 93.5019 28.9624C93.864 29.1882 94.2714 29.3284 94.6939 29.3726C94.8269 29.3769 94.9579 29.4072 95.0795 29.4618C95.705 29.7137 96.3704 29.8466 97.0428 29.8543C97.2863 29.8983 97.5356 29.8983 97.7791 29.8543C98.5856 29.7624 99.3537 29.4547 100.005 28.9624C100.356 28.6591 100.724 28.4094 101.092 28.124C102.029 27.4344 102.684 26.4187 102.933 25.2699C103.065 24.5268 103.152 23.7762 103.196 23.0224C103.211 22.8861 103.211 22.7484 103.196 22.6121C103.09 22.2553 102.985 21.8629 102.845 21.5061C102.739 21.1811 102.586 20.8743 102.389 20.5964C101.893 19.7912 101.305 19.0486 100.636 18.3845C100.502 18.2579 100.384 18.1139 100.286 17.9564C100.435 17.5663 100.435 17.1336 100.286 16.7434C100.269 16.5417 100.269 16.3387 100.286 16.137C100.251 15.5305 100.11 15.3878 99.5145 15.2986L98.6555 15.1916V13.5683C98.7597 12.8638 99.0436 12.1995 99.4794 11.6419C99.5716 11.519 99.692 11.421 99.83 11.3565C100.548 11.0016 101.359 10.8891 102.144 11.0354C102.744 11.1577 103.358 11.1878 103.967 11.1246C104.283 11.1099 104.583 10.9765 104.808 10.75L105.071 10.5359C105.224 10.464 105.357 10.3547 105.458 10.2177C105.559 10.0807 105.625 9.92037 105.65 9.75105C105.772 9.32294 105.93 8.91267 106.035 8.5024C106.118 8.20408 106.263 7.92722 106.459 7.69033C106.656 7.45347 106.9 7.26203 107.175 7.12889C107.315 7.23592 107.42 7.36078 107.56 7.44997C107.858 7.68466 108.175 7.89351 108.507 8.07429C108.609 8.12296 108.722 8.1429 108.835 8.13203C108.947 8.12117 109.054 8.07991 109.145 8.01254C109.237 7.94517 109.309 7.85414 109.353 7.74893C109.398 7.64371 109.415 7.52817 109.401 7.41429C109.418 7.32589 109.418 7.23511 109.401 7.14673C109.261 6.59375 109.103 6.04078 108.945 5.48781C108.894 5.33877 108.876 5.18021 108.891 5.02311C108.906 4.86603 108.954 4.71416 109.033 4.57808C109.222 4.18488 109.386 3.77973 109.524 3.3651C109.578 3.25672 109.606 3.13682 109.605 3.01527C109.605 2.89372 109.576 2.77401 109.521 2.666C109.467 2.558 109.388 2.46478 109.29 2.39405C109.193 2.3233 109.081 2.27707 108.963 2.25916H108.612Z" fill="#1D1D1B"/>
</svg>
