<svg width="181" height="39" viewBox="0 0 181 39" fill="none" xmlns="http://www.w3.org/2000/svg">
<path d="M62.6925 9.53448C62.7751 10.5151 62.5998 11.5002 62.1839 12.3935C61.7682 13.2869 61.126 14.0579 60.3202 14.6315C59.6189 15.1227 59.495 15.6345 59.9902 16.4534C61.4961 18.8892 62.8782 21.4071 64.3016 23.9043C64.9412 24.9893 64.6523 25.4396 63.3527 25.583C62.8532 25.6872 62.3325 25.618 61.8782 25.3871C61.4237 25.1559 61.0632 24.777 60.8566 24.3138C59.7427 22.2668 58.5461 20.2199 57.3291 18.2751C56.9336 17.6345 56.4702 17.0374 55.947 16.4943C55.6993 16.3044 55.5121 16.0478 55.4076 15.7551C55.3031 15.4625 55.2857 15.1461 55.3575 14.8439C55.4293 14.5417 55.5872 14.2664 55.8124 14.0508C56.0376 13.8353 56.3207 13.6887 56.6277 13.6285C57.1386 13.5022 57.617 13.2708 58.0319 12.9491C58.4469 12.6275 58.789 12.2229 59.036 11.7615C59.2831 11.3001 59.4297 10.7924 59.4661 10.2711C59.5026 9.74994 59.4281 9.22695 59.2475 8.73615C59.0213 7.79894 58.4357 6.9861 57.6153 6.47016C56.7951 5.95424 55.8043 5.7758 54.8536 5.97272C51.9036 6.36164 51.8829 6.36164 52.3368 9.30932C52.5843 10.9878 52.8938 12.6869 53.0588 14.3244C53.2858 16.3715 53.7397 17.8044 54.0284 19.8309C54.3172 21.8574 54.5234 23.5769 54.8329 25.4192C54.9773 26.3403 54.6472 26.7906 53.7395 26.9135C52.3161 27.1182 51.8829 26.9135 51.6767 25.89C51.2022 23.2902 50.769 20.6906 50.3358 18.0909C49.655 13.9969 48.9949 9.90294 48.2729 5.80895C48.2148 5.64689 48.1958 5.47362 48.2171 5.30294C48.2385 5.13227 48.2996 4.96887 48.3957 4.82577C48.4919 4.68266 48.6204 4.5638 48.7709 4.47861C48.9215 4.39344 49.0901 4.3443 49.2631 4.33512C51.5478 3.8928 53.8546 3.57164 56.1738 3.37304C57.0294 3.26372 57.8988 3.34524 58.7184 3.61167C59.5382 3.87809 60.2877 4.32267 60.9123 4.91303C61.5369 5.50337 62.0207 6.2246 62.3287 7.0241C62.6367 7.82361 62.761 8.68125 62.6925 9.53448Z" fill="#1D1D1B"/>
<path d="M104.652 3.45491C102.692 3.31163 102.589 3.45492 102.445 5.50191C102.321 10.0462 102.156 14.5701 102.012 19.1144C102.012 20.3016 101.847 21.4889 101.764 22.6761C101.682 23.8634 101.001 23.8839 100.135 23.843C99.2681 23.802 98.6904 23.454 98.7111 22.5534C98.7111 19.4214 98.8554 16.31 98.9173 13.1986C98.9173 9.55494 99.0618 5.93177 99.1443 2.30859C99.1443 1.10087 99.5363 0.711944 100.733 0.752884C102.692 0.752884 104.694 0.752884 106.633 1.0804C108.448 1.20152 110.167 1.93584 111.503 3.16115C112.839 4.38645 113.712 6.02885 113.977 7.815C115.034 12.0534 114.359 16.5345 112.099 20.2812C111.454 21.3477 110.549 22.2365 109.468 22.8659C108.387 23.4954 107.164 23.8454 105.911 23.8839C105.627 23.8718 105.351 23.7909 105.106 23.6481C104.862 23.5053 104.656 23.3051 104.508 23.0651C104.444 22.9031 104.415 22.7295 104.424 22.5557C104.433 22.382 104.479 22.212 104.559 22.0572C104.639 21.9024 104.751 21.7662 104.888 21.6576C105.025 21.549 105.184 21.4706 105.354 21.4275C109.376 20.4654 110.449 17.3336 110.903 13.8332C111.109 12.1781 111.068 10.5019 110.779 8.85897C110.658 7.34784 109.953 5.94173 108.811 4.93461C107.669 3.92748 106.179 3.39731 104.652 3.45491Z" fill="#1D1D1B"/>
<path d="M171.944 11.8476C173.03 11.8176 174.11 12.0005 175.124 12.3858C176.139 12.7711 177.067 13.3512 177.854 14.0929C178.641 14.8345 179.273 15.7232 179.715 16.7078C180.156 17.6923 180.395 18.7538 180.423 19.8309C180.546 22.2162 180.189 24.602 179.37 26.8481C178.552 29.0943 177.29 31.1556 175.658 32.911C174.667 34.1484 173.306 35.0412 171.771 35.4606C170.235 35.8801 168.606 35.8046 167.118 35.2448C165.691 34.7145 164.454 33.7759 163.566 32.5477C162.677 31.3197 162.175 29.8575 162.125 28.3464C161.762 24.8358 162.383 21.2939 163.92 18.1115C164.374 17.1084 165.013 17.0674 165.756 17.9271C166.169 18.3328 166.448 18.8527 166.558 19.4187C166.67 19.9848 166.605 20.5707 166.374 21.1C165.249 23.6764 164.926 26.5278 165.446 29.2879C165.563 30.0097 165.852 30.6933 166.29 31.281C166.727 31.8688 167.302 32.3436 167.962 32.6655C168.793 33.0255 169.72 33.1044 170.6 32.8898C171.48 32.6751 172.264 32.1792 172.831 31.4782C175.062 28.9786 176.496 25.8807 176.956 22.5738C177.338 20.9358 177.237 19.2238 176.668 17.6406C176.459 17.0091 176.104 16.4346 175.634 15.9627C175.162 15.4908 174.585 15.1344 173.95 14.9218C173.317 14.7092 172.641 14.6463 171.977 14.7381C171.314 14.8298 170.68 15.0737 170.128 15.4503C169.751 15.7941 169.272 16.0062 168.76 16.0542C168.25 16.1022 167.739 15.9837 167.303 15.7164C166.354 15.1023 166.271 14.4268 167.158 13.6694C168.477 12.5034 170.178 11.8555 171.944 11.8476Z" fill="#1D1D1B"/>
<path d="M29.6448 12.0523C29.191 12.0523 29.3973 14.4677 29.418 15.5322C29.418 20.4041 29.5416 25.2554 29.6036 30.1272C29.6036 31.7444 29.2735 32.1743 27.685 32.5017C26.9423 32.6655 26.4886 32.3379 26.4886 31.6624C26.4886 29.1447 26.4886 26.6474 26.4886 24.15C26.4886 21.6527 26.4886 18.5412 26.4886 15.7573C26.4886 13.8332 26.6123 11.909 26.6948 9.98481C26.6636 9.84321 26.6636 9.69655 26.6948 9.55495C27.4994 8.14252 29.0259 8.34723 30.2843 8.08112C30.6969 8.08112 31.5014 8.55192 31.7696 9.02273C34.5133 14.0583 37.1951 19.1553 39.8974 24.2113C40.4338 25.2144 40.929 26.2584 41.424 27.2409C41.754 27.8756 42.2904 28.5306 41.424 29.1241C41.2054 29.2876 40.9563 29.4062 40.6909 29.4731C40.4256 29.54 40.1496 29.5539 39.8789 29.5138C39.6083 29.4738 39.3482 29.3808 39.1141 29.2401C38.88 29.0994 38.6764 28.9138 38.5153 28.6943C37.8139 27.4252 37.2364 26.0946 36.5762 24.805C34.5133 20.7111 32.6567 16.617 30.3875 12.6869C30.0987 12.0728 30.0987 12.0728 29.6448 12.0523Z" fill="#1D1D1B"/>
<path d="M79.7529 4.86734C79.4228 6.40259 79.0721 7.93782 78.742 9.47307C77.8756 13.5671 77.0161 17.661 76.1635 21.755C76.1635 22.1235 76.0603 22.6761 75.9778 23.0447C75.8953 23.4131 75.7921 24.2114 75.5033 24.3138C74.8253 24.4746 74.1185 24.4746 73.4405 24.3138C72.9866 24.3138 73.0896 23.454 73.1723 23.0447C74.5131 16.1873 75.916 9.35025 77.298 2.57471C77.308 2.37623 77.3588 2.18189 77.4475 2.0037C77.5362 1.8255 77.6608 1.66725 77.8136 1.53872C77.9662 1.41017 78.1439 1.31408 78.3356 1.25638C78.5272 1.19867 78.7289 1.18058 78.9278 1.20322C82.311 1.20322 82.0428 0.466304 83.0536 4.19183C84.869 10.21 86.6912 16.2146 88.5204 22.2054C88.7472 22.9218 88.9329 23.5973 88.0252 23.9249C87.7894 24.0456 87.5304 24.1155 87.2656 24.1298C87.0006 24.144 86.7355 24.1025 86.488 24.0077C86.2405 23.9129 86.0159 23.7671 85.8293 23.5799C85.6427 23.3928 85.4981 23.1684 85.4053 22.9218C84.7038 20.3016 84.0644 17.6816 83.3424 15.0817C82.3933 11.8476 81.2794 8.63381 80.3306 5.42003C80.2465 5.26407 80.1425 5.11958 80.021 4.99016L79.7529 4.86734Z" fill="#1D1D1B"/>
<path d="M9.46956 14.2016C10.8965 14.1831 12.284 14.6662 13.3865 15.5654C14.4889 16.4645 15.2353 17.7218 15.4933 19.1144C15.9553 20.6616 15.8256 22.3236 15.1289 23.7816C14.4322 25.2398 13.2177 26.3915 11.7181 27.0158C10.8311 27.3843 10.0884 27.4253 9.65521 26.4426C9.222 25.4601 9.79961 25.0712 10.501 24.6413C11.1891 24.3459 11.762 23.8371 12.134 23.1912C12.5059 22.5453 12.6568 21.7973 12.5639 21.0591C12.2545 19.1759 11.615 17.2311 9.34579 17.1084C7.91656 17.2103 6.51823 17.571 5.21997 18.1728C5.0343 18.1728 4.97243 19.1553 5.11684 19.6058C6.9941 25.0916 8.91258 30.5571 10.8311 35.9816C11.2437 37.2098 11.0786 37.5987 10.0059 38.0286C8.93321 38.4585 8.25244 38.3153 7.7986 37.1278L1.09414 18.705C0.825965 18.009 0.908478 16.658 1.67175 16.4328C4.27103 15.5936 6.64335 14.8976 9.26325 14.1197C9.33398 14.1419 9.40295 14.1693 9.46956 14.2016Z" fill="#1D1D1B"/>
<path d="M147.52 5.80895C148.734 5.72382 149.953 5.89305 151.097 6.30566C152.242 6.71825 153.286 7.365 154.163 8.20394C154.657 8.69522 154.905 9.20696 154.348 9.82106C153.792 10.4352 152.76 10.865 152.078 10.3328C151.641 9.94269 151.18 9.58035 150.696 9.24791C149.929 8.67971 148.969 8.42784 148.019 8.54489C147.069 8.66193 146.2 9.13884 145.596 9.87602C144.992 10.6132 144.698 11.5536 144.775 12.5008C144.853 13.448 145.297 14.3287 146.014 14.959C147.004 15.9621 148.18 16.7808 149.252 17.7225C150.007 18.3216 150.622 19.0755 151.056 19.9326C151.49 20.7897 151.731 21.7298 151.764 22.6882C151.797 23.6468 151.622 24.6012 151.249 25.4859C150.876 26.3706 150.314 27.1649 149.603 27.8141C148.569 28.7496 147.271 29.3475 145.884 29.5269C144.497 29.7063 143.087 29.4585 141.847 28.8171C140.753 28.2531 139.729 27.5662 138.793 26.7702C138.071 26.2175 138.133 25.542 138.793 24.9279C139.453 24.3138 140.01 23.9658 140.856 24.6822C141.691 25.4247 142.637 26.0325 143.662 26.4836C144.297 26.7896 145.02 26.8691 145.707 26.7087C146.394 26.5485 147.005 26.1581 147.437 25.6033C147.982 25.025 148.32 24.2843 148.398 23.4962C148.477 22.708 148.291 21.9162 147.87 21.2433C147.051 20.1881 146.101 19.239 145.044 18.4184C143.359 17.3282 142.106 15.6939 141.496 13.7922C140.691 10.0258 143.229 5.58378 147.52 5.80895Z" fill="#1D1D1B"/>
<path d="M126.168 25.8081C124.724 25.8081 124.374 25.3169 124.559 23.7611C125.261 18.1932 125.921 12.605 126.622 7.03715C126.746 5.91131 126.87 4.80593 127.055 3.70055C127.241 2.59518 127.881 2.63612 128.623 2.77941C129.366 2.92269 130.5 2.77941 130.397 4.08948C130.191 6.03413 129.923 7.9583 129.655 9.90294C129.008 14.5701 128.376 19.2372 127.757 23.9043C127.551 25.5215 127.344 25.8285 126.168 25.8081Z" fill="#1D1D1B"/>
</svg>
