<svg width="162" height="35" viewBox="0 0 162 35" fill="none" xmlns="http://www.w3.org/2000/svg">
<path d="M7.44761 32.4826C8.26781 33.003 9.35505 33.003 9.35505 33.5233C9.35505 34.0438 8.91632 34.1367 7.90538 34.1367H1.99228C0.962268 34.1367 0.485452 34.0438 0.485452 33.5233C0.485452 33.003 1.49639 33.003 2.39288 32.4826C2.77437 32.241 2.88884 31.5904 2.88884 30.3639V4.21399C2.88884 2.98733 2.77433 2.35543 2.3547 2.09524C1.51543 1.57484 0.447266 1.57484 0.447266 1.05445C0.447266 0.534051 2.08769 0.29244 5.59735 0.29244C8.83202 0.104807 12.0729 0.540587 15.1345 1.57484C17.4494 2.43502 19.4391 3.96416 20.8369 5.95727C22.2346 7.95039 22.9736 10.3122 22.9549 12.7262C22.974 18.4692 18.6251 22.1862 11.3769 22.1862C9.87826 22.2555 8.37909 22.0602 6.95167 21.61V30.3639C6.95167 31.479 7.00891 32.241 7.44761 32.4826ZM10.3468 20.9967C15.4015 20.9967 18.4535 17.8372 18.4535 12.4474C18.4535 5.83093 14.6385 1.48192 8.91626 1.48192C7.2568 1.48192 6.91348 1.79786 6.91348 3.34046V18.8965C6.95164 20.3277 8.01977 20.9967 10.3468 20.9967Z" fill="#1D1D1B"/>
<path d="M35.1625 16.0901C36.5407 17.2021 37.6415 18.6047 38.3817 20.192C39.1219 21.7793 39.4821 23.5099 39.4352 25.2528C39.4352 30.8284 35.8492 34.657 30.947 34.657C26.045 34.657 21.6769 30.2709 21.6769 24.0634C21.6769 18.3576 25.4919 13.8599 29.5356 13.8599C31.6249 13.9219 33.6221 14.7133 35.1625 16.0901ZM33.2551 17.5955C32.9169 16.8302 32.3737 16.1677 31.6824 15.6772C30.9911 15.1867 30.1771 14.8864 29.3257 14.8078C26.8461 14.8078 25.3965 17.131 25.3965 21.4799C25.3965 28.9141 28.2004 33.6163 31.5574 33.6163C34.2279 33.6163 35.7348 31.5904 35.7348 27.8548C35.7158 24.2984 34.8747 20.7919 33.2743 17.5955H33.2551Z" fill="#1D1D1B"/>
<path d="M40.8658 29.0814C40.7541 28.8942 40.6889 28.6841 40.6751 28.4681C40.6751 28.1335 40.8658 27.9476 41.1137 27.9476C41.3617 27.9476 41.8958 28.7097 42.6206 29.6947C44.528 32.2968 46.5498 33.6163 48.3428 33.6163C48.8342 33.6019 49.3173 33.4876 49.7607 33.2808C50.2042 33.0739 50.5983 32.779 50.9179 32.4151C51.2376 32.0511 51.4757 31.6261 51.617 31.1672C51.7582 30.7084 51.7995 30.2258 51.7381 29.7505C51.735 28.7492 51.4247 27.7717 50.8467 26.9437C50.2689 26.1155 49.45 25.4749 48.4954 25.1041C44.3182 23.2456 41.3236 22.4092 41.3236 18.8779C41.2866 18.2359 41.3862 17.5933 41.6164 16.9906C41.8464 16.3879 42.2018 15.838 42.6603 15.3755C43.1189 14.9131 43.6706 14.5478 44.2809 14.3031C44.8911 14.0582 45.5467 13.939 46.2066 13.9528C47.2617 14.0321 48.3044 14.2253 49.3156 14.5289C49.8497 14.5289 50.1932 13.9528 50.4793 13.9528C50.7654 13.9528 50.8798 14.1386 51.0705 14.5289L52.9779 18.4876C53.0955 18.6637 53.1795 18.8588 53.2259 19.0637C53.2259 19.2497 52.9779 19.4356 52.7301 19.4356C52.4821 19.4356 52.0624 18.8779 51.2803 17.9672C49.5828 16.1087 48.2666 14.8448 46.3783 14.8448C46.0195 14.8189 45.6592 14.8663 45.3204 14.9842C44.9816 15.1021 44.6721 15.2878 44.4114 15.5294C44.1509 15.7711 43.9451 16.0633 43.8076 16.3871C43.67 16.711 43.6034 17.0593 43.6124 17.4097C43.6539 18.1288 43.9325 18.8158 44.4067 19.3682C44.8811 19.9208 45.5256 20.3093 46.2447 20.4763C48.1217 21.0104 49.9272 21.7591 51.6237 22.7066C52.5598 23.3477 53.3192 24.2037 53.8348 25.1989C54.3505 26.1942 54.6066 27.2979 54.5802 28.4124C54.6084 29.2242 54.4682 30.0333 54.1681 30.7911C53.868 31.5489 53.4142 32.2399 52.8338 32.823C52.2533 33.406 51.558 33.8689 50.7896 34.1841C50.0212 34.4992 49.1956 34.66 48.362 34.657C47.2624 34.5604 46.1761 34.3549 45.1193 34.0438C44.4899 34.0438 44.1465 34.75 43.8604 34.75C43.5744 34.75 43.5171 34.5642 43.3263 34.1925L40.8658 29.0814Z" fill="#1D1D1B"/>
<path d="M62.2863 32.7242C62.6868 33.1516 63.7931 33.1888 63.7931 33.7091C63.7931 34.2296 63.4497 34.1367 62.8202 34.1367H57.4414C56.8119 34.1367 56.4686 34.0066 56.4686 33.7091C56.4686 33.4118 57.594 33.1516 57.9755 32.7242C58.3971 31.9426 58.5635 31.0541 58.4523 30.178V19.0267C58.4523 17.8372 58.3569 17.5583 57.7275 17.4097C57.098 17.261 56.5258 17.4097 56.5258 16.8893C56.5258 16.3688 57.098 16.3318 57.9755 15.8485C60.2072 14.6776 61.2752 13.8227 61.5232 13.8227C61.7712 13.8227 61.8095 14.1015 61.8095 14.6219V30.178C61.7067 31.054 61.8726 31.94 62.2863 32.7242ZM57.7275 7.57796C57.8458 6.96484 58.1865 6.41357 58.6872 6.02467C59.1878 5.63576 59.8152 5.43508 60.4551 5.45921C60.6756 5.43614 60.8988 5.45743 61.1107 5.52176C61.3225 5.58608 61.5184 5.69209 61.6864 5.83321C61.8546 5.97433 61.9912 6.14755 62.0878 6.34217C62.1844 6.53678 62.2389 6.74864 62.2481 6.96464C62.1944 7.6252 61.8803 8.23987 61.372 8.67988C60.8635 9.11989 60.2 9.35108 59.5205 9.325C59.2807 9.34156 59.04 9.30772 58.8147 9.22579C58.5895 9.14384 58.385 9.01571 58.215 8.85005C58.0449 8.68441 57.9133 8.4851 57.8292 8.26562C57.7451 8.04616 57.7104 7.81165 57.7275 7.57796Z" fill="#1D1D1B"/>
<path d="M68.0085 16.0901H66.4062C65.8721 16.0901 65.5861 15.9415 65.5861 15.6626C65.5861 15.0865 67.4935 14.6219 68.9241 12.1128C70.3546 9.60379 70.3737 7.2806 71.0031 7.2806C71.2511 7.2806 71.3465 7.57796 71.3465 8.09836V14.436H75.3712V16.0901H71.3465V29.9363C71.3465 32.0551 71.6328 33.096 73.2541 33.096C75.1615 33.096 75.4476 30.8842 76.077 30.8842C76.2677 30.8842 76.3629 31.0142 76.3629 31.3117C76.1609 32.3084 75.5917 33.1988 74.7625 33.815C73.9333 34.4312 72.9016 34.7308 71.8616 34.657C71.3241 34.702 70.7832 34.6355 70.2742 34.4618C69.7653 34.2881 69.2997 34.0113 68.9087 33.6495C68.5175 33.2877 68.2096 32.8492 68.005 32.3629C67.8006 31.8766 67.7043 31.3537 67.7224 30.8284C67.7224 29.6947 68.0275 28.2823 68.0275 26.5723L68.0085 16.0901Z" fill="#1D1D1B"/>
<path d="M84.4124 34.5269C83.5444 34.5529 82.6802 34.405 81.8731 34.0927C81.0662 33.7802 80.3333 33.31 79.7201 32.7107C79.107 32.1116 78.6265 31.3963 78.3083 30.6089C77.99 29.8217 77.8409 28.9792 77.87 28.1335C77.9081 26.3831 78.6157 24.7096 79.8542 23.441C81.0927 22.1725 82.7726 21.4001 84.565 21.2755C85.2617 21.2723 85.9508 21.4151 86.5859 21.6941C87.2212 21.9731 87.7874 22.3818 88.2464 22.8925C87.9984 17.7442 87.1782 15.4582 84.4314 15.4582C83.807 15.4429 83.1882 15.5773 82.6294 15.8496C82.0707 16.1217 81.5891 16.5235 81.227 17.0194C80.6357 17.7814 80.6357 18.8779 80.1589 18.8779C79.682 18.8779 79.7774 18.6736 79.7774 18.3575C79.7774 16.406 82.1426 14.0086 85.6903 14.0086C86.5945 13.9659 87.4949 14.1462 88.3086 14.5329C89.122 14.9194 89.8223 15.4997 90.3445 16.2202C91.1751 17.8672 91.5934 19.6823 91.5652 21.5171L92.4236 30.2708C92.6334 32.0179 92.9577 32.7242 93.9878 32.7242C95.3992 32.7242 95.0941 31.163 95.6854 31.163C95.9333 31.163 96.0287 31.2931 96.0287 31.6276C96.0669 32.0299 96.0136 32.4353 95.8728 32.8153C95.7321 33.1952 95.5071 33.5403 95.2138 33.826C94.9207 34.1116 94.5665 34.3307 94.1766 34.468C93.7866 34.6052 93.3705 34.6571 92.9577 34.6199C92.1689 34.6933 91.3787 34.4958 90.7238 34.0612C90.069 33.6268 89.5906 32.9828 89.3717 32.2409C88.8078 32.9962 88.0581 33.6015 87.1916 34.0009C86.3251 34.4002 85.3694 34.5812 84.4124 34.5269ZM88.9712 29.2672C88.9712 24.6396 87.6741 22.3163 85.1562 22.3163C82.9818 22.3163 81.475 24.1749 81.475 27.4273C81.475 31.0142 83.268 33.2446 85.6332 33.2446C87.9984 33.2446 88.9712 31.925 88.9712 29.2672Z" fill="#1D1D1B"/>
<path d="M102.552 32.7242C102.934 33.1516 104.059 33.1888 104.059 33.7091C104.059 34.2296 103.716 34.1367 103.086 34.1367H97.7453C97.1159 34.1367 96.7725 34.0066 96.7725 33.7091C96.7725 33.4118 97.898 33.1516 98.2794 32.7242C98.6877 31.9384 98.847 31.0522 98.7372 30.178V19.0267C98.7372 17.8372 98.7372 17.5584 98.0506 17.4097C97.3639 17.2611 96.7916 17.4097 96.7916 16.8893C96.7916 16.3688 97.4212 16.3318 98.2986 15.8485C100.53 14.6776 101.56 13.8227 101.789 13.8227C102.018 13.8227 102.132 14.1015 102.132 14.6219V18.0788C102.455 16.9468 103.124 15.9377 104.052 15.187C104.979 14.4363 106.12 13.9797 107.321 13.8785C110.621 13.8785 111.841 15.8485 112.318 19.9745L113.386 29.2672C113.577 31.1259 113.672 32.2409 114.455 32.8543C114.893 33.1888 115.675 33.2446 115.675 33.7091C115.675 34.1738 115.332 34.1367 114.645 34.1367H109.324C108.637 34.1367 108.351 34.0438 108.351 33.7091C108.351 33.0029 110.144 33.2818 110.144 31.4975C110.123 30.913 110.073 30.3299 109.991 29.7505L108.828 19.5284C108.484 16.7963 107.95 15.6998 106.157 15.6998C104.364 15.6998 102.132 18.0231 102.132 22.465V30.178C102.019 31.0483 102.164 31.9322 102.552 32.7242Z" fill="#1D1D1B"/>
<path d="M129.58 16.0901C130.955 17.2048 132.054 18.6079 132.794 20.1946C133.534 21.7813 133.896 23.5105 133.853 25.2528C133.853 30.8284 130.248 34.657 125.346 34.657C120.444 34.657 116.095 30.2709 116.095 24.0634C116.095 18.3576 119.91 13.8599 123.953 13.8599C126.042 13.9251 128.038 14.7161 129.58 16.0901ZM127.673 17.5955C127.338 16.828 126.796 16.1632 126.104 15.6722C125.412 15.1813 124.596 14.8825 123.744 14.8078C121.283 14.8078 119.814 17.131 119.814 21.4799C119.814 28.9141 122.637 33.6163 125.975 33.6163C128.646 33.6163 130.153 31.5904 130.153 27.8548C130.128 24.2969 129.28 20.7904 127.673 17.5955Z" fill="#1D1D1B"/>
<path d="M137.496 15.9229C137.482 13.8299 138.15 11.7866 139.404 10.087V9.95692L138.488 9.30641V9.43653C137.091 11.3323 136.339 13.6075 136.339 15.9415C136.339 18.2755 137.091 20.5507 138.488 22.4464V22.5765L139.404 21.9261V21.8144C138.144 20.0966 137.477 18.0338 137.496 15.9229Z" fill="#1D1D1B"/>
<path d="M144.611 16.2016V20.1976H143.543V16.2016L140.434 10.9234H141.654L144.077 15.0679L146.537 10.9234H147.777L144.611 16.2016Z" fill="#1D1D1B"/>
<path d="M147.815 17.5027C147.803 17.7544 147.842 18.0061 147.932 18.2425C148.022 18.4787 148.161 18.6947 148.339 18.8773C148.518 19.0598 148.732 19.2052 148.97 19.3043C149.208 19.4035 149.464 19.4545 149.723 19.454C150.126 19.4639 150.524 19.3559 150.864 19.144C151.203 18.932 151.47 18.6257 151.63 18.2647L152.489 18.7292C152.246 19.2269 151.862 19.6459 151.382 19.936C150.901 20.2261 150.345 20.375 149.78 20.3648C149.379 20.3713 148.98 20.2958 148.611 20.1433C148.241 19.9909 147.908 19.7647 147.633 19.4794C147.358 19.1942 147.147 18.856 147.015 18.4868C146.882 18.1175 146.83 17.7254 146.862 17.3353C146.827 16.9486 146.876 16.559 147.004 16.1914C147.132 15.8239 147.337 15.4861 147.606 15.1996C147.875 14.9132 148.202 14.6842 148.566 14.5271C148.931 14.3701 149.324 14.2885 149.723 14.2873C150.119 14.2853 150.511 14.3646 150.874 14.5199C151.236 14.6752 151.561 14.9032 151.827 15.1889C152.094 15.4747 152.295 15.8117 152.419 16.1783C152.543 16.5449 152.586 16.9328 152.546 17.3168V17.5027H147.815ZM149.628 15.1981C149.208 15.2227 148.808 15.3818 148.491 15.6508C148.173 15.9196 147.956 16.2832 147.873 16.6849H151.363C151.304 16.2758 151.096 15.901 150.778 15.6283C150.46 15.3554 150.051 15.2029 149.628 15.1981Z" fill="#1D1D1B"/>
<path d="M155.579 20.3277C155.118 20.3345 154.668 20.1949 154.296 19.93C153.925 19.6649 153.652 19.2892 153.518 18.8594L154.395 18.4876C154.644 19.0081 154.968 19.417 155.597 19.417C155.722 19.4245 155.847 19.4071 155.966 19.3657C156.083 19.3243 156.192 19.2598 156.283 19.1763C156.374 19.0926 156.446 18.9916 156.496 18.8797C156.545 18.7676 156.571 18.6469 156.571 18.5248C156.571 17.261 153.9 17.6513 153.9 15.8671C153.9 15.6484 153.945 15.4318 154.033 15.2306C154.121 15.0295 154.251 14.8478 154.412 14.6966C154.575 14.5454 154.767 14.428 154.977 14.3512C155.188 14.2745 155.412 14.2401 155.635 14.2502C155.98 14.2537 156.316 14.3537 156.604 14.5382C156.891 14.7227 157.118 14.984 157.258 15.2909L156.418 15.7184C156.348 15.5566 156.231 15.4179 156.083 15.3189C155.934 15.22 155.759 15.1651 155.579 15.1609C155.399 15.1558 155.226 15.2189 155.093 15.337C154.962 15.455 154.883 15.6185 154.872 15.7927C154.872 16.8149 157.619 16.5362 157.619 18.4319C157.625 18.6904 157.576 18.9473 157.474 19.1861C157.372 19.4249 157.221 19.6405 157.029 19.819C156.837 19.9973 156.609 20.1347 156.359 20.2223C156.109 20.3099 155.843 20.3458 155.579 20.3277Z" fill="#1D1D1B"/>
<path d="M159.774 9.43653V9.30641L158.859 9.95692V10.087C160.123 11.787 160.804 13.8328 160.804 15.9322C160.804 18.0316 160.123 20.0773 158.859 21.7773V21.8889L159.774 22.5392V22.4092C161.173 20.5135 161.924 18.2383 161.924 15.9043C161.924 13.5703 161.173 11.2951 159.774 9.39935V9.43653Z" fill="#1D1D1B"/>
</svg>
