<svg width="181" height="49" viewBox="0 0 181 49" fill="none" xmlns="http://www.w3.org/2000/svg">
<path d="M0.587461 18.6294V18.4563C0.698332 17.3981 1.22046 16.4171 2.05178 15.7053C2.88309 14.9935 3.96385 14.6019 5.08276 14.6071C6.20704 14.6048 7.2929 14.9958 8.1332 15.7058C8.97351 16.4157 9.50945 17.3947 9.63879 18.4563C9.67313 19.4557 9.3953 20.4422 8.84032 21.2917C8.28535 22.1411 7.4781 22.8154 6.52044 23.2293C5.14456 23.9037 3.87085 24.7518 2.73386 25.7504C2.42012 26.0728 2.16671 26.4438 1.98465 26.8474V27.675H10.2058V28.772H0.445718V28.6373C0.39301 27.9846 0.4887 27.329 0.726289 26.7146C0.963878 26.1002 1.3378 25.5416 1.82265 25.0768C3.05411 23.9618 4.41242 22.9806 5.87247 22.1515C8.22135 20.708 8.26185 19.5918 8.26185 18.8027V18.6294C8.2037 17.857 7.8505 17.1314 7.26874 16.589C6.68698 16.0467 5.91676 15.7252 5.103 15.6849C4.27773 15.7031 3.49002 16.0163 2.89702 16.5621C2.304 17.1078 1.94929 17.8461 1.90365 18.6294H0.587461Z" fill="#1D1D1B"/>
<path d="M24.2789 16.6472C25.178 18.1797 25.6192 19.9166 25.5546 21.6702C25.6264 23.4552 25.1854 25.225 24.2789 26.7898C23.9411 27.4179 23.4281 27.9459 22.7961 28.3158C22.164 28.6859 21.4371 28.8835 20.6947 28.8875C19.9525 28.8835 19.2256 28.6859 18.5935 28.3158C17.9613 27.9459 17.4485 27.4179 17.1108 26.7898C16.2042 25.225 15.7632 23.4552 15.835 21.6702C15.7704 19.9166 16.2116 18.1797 17.1108 16.6472C17.4572 16.0256 17.9721 15.5033 18.6023 15.1345C19.2325 14.7657 19.9549 14.5636 20.6947 14.5494C21.4371 14.5533 22.164 14.751 22.7961 15.121C23.4281 15.4909 23.9411 16.0189 24.2789 16.6472ZM18.2042 17.4555C17.5488 18.7706 17.2363 20.2162 17.2929 21.6702C17.2328 23.1494 17.5452 24.6208 18.2042 25.9621C18.4179 26.4347 18.7622 26.8437 19.2007 27.1453C19.6393 27.4469 20.1555 27.6299 20.6947 27.675C21.2586 27.6413 21.8004 27.4549 22.2561 27.1376C22.7119 26.8205 23.0624 26.3858 23.2664 25.8851C23.9323 24.5456 24.2517 23.0741 24.1979 21.5933C24.2481 20.1376 23.9287 18.692 23.2664 17.3786C23.0454 16.8971 22.6878 16.4838 22.2336 16.1847C21.7795 15.8856 21.2465 15.7125 20.6947 15.6849C20.1382 15.7249 19.6044 15.9119 19.1538 16.2247C18.7029 16.5376 18.3529 16.9638 18.1435 17.4555H18.2042Z" fill="#1D1D1B"/>
<path d="M30.0904 27.675C30.0945 27.423 30.1775 27.1779 30.3285 26.9709C30.4797 26.7637 30.6921 26.6042 30.939 26.5122C31.186 26.4202 31.456 26.4002 31.715 26.4546C31.9739 26.5088 32.2098 26.6352 32.3929 26.8174C32.5762 26.9997 32.6981 27.2296 32.7434 27.4779C32.7888 27.7262 32.7552 27.9818 32.6474 28.2118C32.5394 28.4421 32.3618 28.6365 32.1373 28.7706C31.9127 28.9046 31.6513 28.972 31.3862 28.9645C31.0354 28.9544 30.7027 28.8134 30.4602 28.5722C30.2177 28.3309 30.0848 28.0086 30.0904 27.675Z" fill="#1D1D1B"/>
<path d="M72.6742 15.8773H67.5713V28.7334H66.2552V15.8773H61.1929V14.7226H72.6742V15.8773Z" fill="#1D1D1B"/>
<path d="M85.4918 14.7226V23.8258C85.4918 26.9629 84.1148 28.8298 80.5308 28.8298C79.3415 28.9798 78.1375 28.6842 77.1737 28.0053C76.2098 27.3262 75.562 26.3174 75.3673 25.1923L76.6631 24.7496C76.7703 25.6059 77.2226 26.3893 77.9251 26.9349C78.6276 27.4805 79.5254 27.7458 80.4295 27.675C83.1227 27.675 84.1148 26.1546 84.1148 23.6526V14.7226H85.4918Z" fill="#1D1D1B"/>
<path d="M93.7736 16.5125C94.319 15.9071 94.9961 15.4214 95.7583 15.0891C96.5204 14.7568 97.3494 14.5858 98.188 14.5879C99.0142 14.5892 99.8301 14.7622 100.579 15.0946C101.327 15.427 101.99 15.911 102.521 16.5125C103.783 17.9787 104.432 19.8357 104.344 21.728C104.422 23.6219 103.783 25.4795 102.542 26.9629C102.004 27.5619 101.337 28.0438 100.585 28.376C99.834 28.708 99.0165 28.8826 98.188 28.8875C97.3466 28.8885 96.515 28.7171 95.7498 28.385C94.9845 28.0528 94.3036 27.5678 93.7535 26.9629C92.5031 25.4906 91.8558 23.6379 91.931 21.7474C91.8432 19.8459 92.4997 17.981 93.7736 16.5125ZM94.7253 26.1354C95.1257 26.6378 95.643 27.0451 96.2366 27.3256C96.8305 27.6061 97.4844 27.752 98.1474 27.752C98.8105 27.752 99.4645 27.6061 100.058 27.3256C100.652 27.0451 101.169 26.6378 101.57 26.1354C102.553 24.8829 103.053 23.3472 102.987 21.7858C103.047 20.2251 102.547 18.6915 101.57 17.4363C101.172 16.9304 100.655 16.5198 100.061 16.2369C99.4672 15.9541 98.812 15.8068 98.1474 15.8068C97.4831 15.8068 96.8277 15.9541 96.2337 16.2369C95.6397 16.5198 95.1231 16.9304 94.7253 17.4363C93.7333 18.6854 93.2254 20.2218 93.2876 21.7858C93.2329 23.331 93.7407 24.8469 94.7253 26.0776V26.1354Z" fill="#1D1D1B"/>
<path d="M120.806 26.2701C120.353 27.048 119.707 27.7088 118.923 28.1946C118.13 28.6882 117.198 28.943 116.25 28.9259C115.412 28.928 114.583 28.757 113.821 28.4248C113.058 28.0925 112.381 27.6067 111.836 27.0014C110.589 25.5198 109.942 23.6626 110.013 21.7666C109.909 19.8635 110.551 17.9915 111.816 16.5125C112.765 15.416 114.131 14.72 115.618 14.5759C117.104 14.4317 118.59 14.851 119.753 15.7426C120.878 16.5982 121.675 17.7818 122.021 19.1106H120.725C120.388 18.1248 119.763 17.2504 118.923 16.5894C118.161 16.0239 117.217 15.7249 116.25 15.7426C115.585 15.7483 114.93 15.8967 114.334 16.1766C113.738 16.4565 113.216 16.8608 112.808 17.3592C111.812 18.6074 111.297 20.143 111.35 21.7088C111.287 23.2877 111.803 24.8384 112.808 26.0968C113.218 26.5928 113.74 26.9942 114.336 27.2709C114.932 27.5475 115.587 27.6923 116.25 27.6942C116.842 27.6843 117.426 27.5598 117.966 27.3282C118.505 27.0965 118.989 26.7627 119.389 26.347C120.334 25.3466 120.867 24.0544 120.887 22.7096H116.392V21.5549H122.102V28.7334H120.806V26.2701Z" fill="#1D1D1B"/>
<path d="M139.435 15.8773H131.194V21.0544H138.787V22.2091H131.194V27.5595H140.164V28.7334H130.04V14.7226H139.577L139.435 15.8773Z" fill="#1D1D1B"/>
<path d="M156.971 15.8773H151.868V28.7334H150.572V15.8773H145.51V14.7226H156.971V15.8773Z" fill="#1D1D1B"/>
<path d="M99.4028 2.36683H102.845V2.80949C100.82 2.69402 98.6131 2.5593 96.5073 2.50155C95.9809 2.50155 95.4543 2.84798 94.9076 2.90571C92.093 3.25214 89.258 3.54083 86.4435 3.9065C83.1024 4.3299 79.7411 4.75331 76.4203 5.33069C73.0994 5.90805 70.3454 6.56242 67.2676 7.25525C64.1898 7.9481 61.1929 8.67944 58.2972 9.50701C55.4153 10.2211 52.6781 11.3853 50.1977 12.952C48.9423 13.818 47.383 14.3184 46.1479 15.1652C44.8327 15.9308 43.728 16.9829 42.9252 18.2346C42.1224 19.4861 41.6446 20.9013 41.531 22.3632C41.3548 23.9773 41.7053 25.604 42.5348 27.0224C43.3643 28.4408 44.6328 29.5824 46.1682 30.2925C47.4033 30.9275 48.4157 31.9283 49.6711 32.4672C51.2664 33.1419 52.9283 33.6642 54.6323 34.0261C56.7584 34.488 58.9249 34.7574 61.0713 35.123C63.2178 35.4888 64.9592 35.8352 66.9233 36.0469C68.8876 36.2586 70.9731 36.3549 73.1601 36.451C75.671 36.5858 78.1617 36.7013 80.6725 36.7205C83.1834 36.7397 86.3221 36.5858 89.1366 36.5472C90.797 36.5472 92.4575 36.5472 94.1179 36.5472C96.325 36.5472 98.512 36.2586 100.719 36.1238C103.412 35.9314 106.105 35.8544 108.819 35.5658C110.965 35.3347 113.071 34.8152 115.197 34.488C115.803 34.4213 116.414 34.4213 117.02 34.488V34.873C116.817 35.0269 116.615 35.2578 116.392 35.2963C113.496 35.8736 110.601 36.4702 107.685 36.9322C104.242 37.471 100.78 37.9715 97.3173 38.2794C93.8546 38.5874 90.2706 38.6835 86.7472 38.876C85.0058 38.876 83.2644 39.0685 81.5432 39.0877C79.8221 39.1069 78.4047 38.9722 76.8251 38.9146C75.2457 38.8568 73.8689 38.9146 72.4109 38.9146C70.2443 38.7798 68.0776 38.5874 65.9312 38.3563C63.1976 38.0677 60.4436 37.856 57.8315 37.3555C55.5499 36.8904 53.304 36.2795 51.1088 35.5272C49.46 35.0698 47.8757 34.4235 46.3909 33.6027C44.6614 32.5469 43.0589 31.3142 41.612 29.9267C40.4375 29.0074 39.5136 27.8322 38.9189 26.501C38.2148 24.6022 38.1318 22.5453 38.6813 20.601C39.2306 18.6566 40.3866 16.9158 41.9967 15.6079C44.7741 13.3391 47.9286 11.5245 51.3315 10.2383C56.3581 8.08925 61.6519 6.55653 67.0853 5.6771C70.8921 4.94576 74.6586 4.09896 78.4451 3.36762C80.4699 2.9827 82.4949 2.73251 84.5198 2.46307C87.6179 2.0589 90.716 1.55852 93.8142 1.30832C96.9123 1.05813 99.8888 1.11586 102.825 1.00039L108.555 0.730949C109.912 0.730949 111.289 0.519246 112.605 0.5C115.501 0.5 118.376 0.5 121.272 0.5C124.167 0.5 127.164 0.730949 130.101 0.961898C131.234 1.05813 132.308 1.57776 133.441 1.77022C134.94 2.03966 136.459 2.13589 137.957 2.36683C141.683 2.90571 145.409 3.46384 149.114 4.07971C152.192 4.59934 155.189 5.08048 158.328 5.77333C161.03 6.38669 163.694 7.14491 166.307 8.04434C168.615 8.84053 170.856 9.80571 173.007 10.9312C174.77 11.8724 176.432 12.9746 177.969 14.2222C179.424 15.4567 180.306 17.189 180.419 19.0395C180.533 20.8901 179.87 22.708 178.576 24.0952C176.82 25.785 174.763 27.1662 172.502 28.1754C169.242 29.715 165.821 30.9661 162.377 32.3133C160.353 33.1408 158.328 33.9875 156.303 34.6611C153.65 35.5466 150.937 36.3355 148.203 37.0861C143.789 38.3179 139.334 39.4918 134.899 40.7043C133.3 41.147 131.741 41.6666 130.121 42.0323C125.929 42.9946 121.697 43.957 117.485 44.8037C115.46 45.2464 113.435 45.843 111.289 46.2086C108.475 46.709 105.64 47.0555 102.785 47.4019C99.3017 47.8253 95.8189 48.3834 92.3157 48.4989C89.746 48.5184 87.1812 48.2861 84.6615 47.8061C83.8314 47.6714 83.1631 46.7861 82.3127 46.1701C82.8104 45.7586 83.4197 45.488 84.0713 45.3893C84.7227 45.2906 85.3903 45.3678 85.9981 45.612C89.3219 46.2955 92.7364 46.4902 96.1226 46.1894C100.658 45.8237 105.194 45.3618 109.689 44.6882C113.253 44.1686 116.756 43.264 120.3 42.4942C128.586 40.8093 136.777 38.728 144.842 36.2586C150.917 34.3341 157.234 32.6403 163.268 30.4848C167.742 29.1902 171.88 27.0203 175.418 24.1146C176.74 22.9526 177.568 21.3712 177.746 19.6688C177.75 18.8946 177.588 18.128 177.267 17.4162C176.946 16.7045 176.475 16.0628 175.884 15.5309C174.289 13.7992 172.263 12.4757 169.992 11.6818C167.966 10.8735 166.123 9.91117 164.119 9.25682C161.39 8.33286 158.604 7.56803 155.776 6.96658C151.726 6.15824 147.798 5.60013 143.789 5.042C140.731 4.5801 137.714 4.31066 134.575 3.84875C133.016 3.61781 131.538 3.07893 129.979 2.84798C127.792 2.54005 125.565 2.34758 123.337 2.19363C121.11 2.03966 118.822 1.98192 116.554 2.00117C114.286 2.02041 112.22 2.17438 110.054 2.28986C108.232 2.28986 106.409 2.4823 104.566 2.5208C104.344 2.5208 104.121 2.02041 103.878 2.00117C102.359 2.00117 100.861 2.00117 99.3624 2.00117L99.4028 2.36683Z" fill="#1D1D1B"/>
</svg>
