<?xml version="1.0" standalone="no"?>
<!DOCTYPE svg PUBLIC "-//W3C//DTD SVG 20010904//EN"
 "http://www.w3.org/TR/2001/REC-SVG-20010904/DTD/svg10.dtd">
<svg version="1.0" xmlns="http://www.w3.org/2000/svg"
 width="1250.000000pt" height="1250.000000pt" viewBox="0 0 1250.000000 1250.000000"
 preserveAspectRatio="xMidYMid meet">
<metadata>
Created by potrace 1.14, written by Peter Selinger 2001-2017
</metadata>
<g transform="translate(0.000000,1250.000000) scale(0.100000,-0.100000)"
fill="#000000" stroke="none">
<path d="M3120 10780 c-1210 -95 -1162 -89 -1263 -158 -59 -41 -109 -103 -144
-178 l-28 -59 0 -265 0 -265 32 -65 c42 -84 80 -130 145 -172 106 -69 46 -62
1353 -164 665 -51 1218 -94 1228 -94 16 0 17 -39 15 -712 l-3 -712 -40 -27
c-22 -14 -121 -59 -220 -99 -99 -39 -209 -88 -245 -108 -79 -43 -153 -111
-188 -172 -24 -41 -27 -55 -27 -145 0 -90 3 -104 27 -145 62 -106 163 -173
403 -268 210 -84 226 -91 263 -118 53 -41 38 -106 -47 -204 -109 -125 -154
-235 -155 -375 -1 -70 3 -86 29 -134 70 -128 201 -191 610 -297 116 -29 257
-70 314 -91 89 -31 101 -38 87 -49 -28 -20 -220 -69 -549 -139 -428 -91 -559
-137 -663 -228 -67 -59 -87 -106 -87 -200 0 -69 4 -86 37 -152 46 -94 101
-143 269 -242 134 -79 190 -125 185 -151 -5 -28 -79 -71 -230 -131 -256 -104
-356 -164 -420 -250 -96 -131 -74 -311 52 -424 70 -63 150 -107 317 -174 175
-70 271 -120 279 -145 10 -31 -37 -71 -181 -156 -143 -85 -238 -169 -273 -243
-65 -135 -45 -283 54 -405 34 -43 143 -120 270 -193 90 -51 134 -92 134 -124
0 -35 -54 -80 -189 -157 -240 -137 -331 -276 -302 -460 19 -118 72 -194 194
-278 118 -81 107 -96 107 146 l0 210 29 30 c17 16 87 63 158 105 70 41 149 93
174 116 134 118 173 299 98 450 -41 81 -124 155 -272 243 -130 76 -187 124
-187 156 0 29 62 80 195 159 191 113 258 185 291 313 42 165 -31 305 -213 406
-35 20 -134 65 -220 100 -176 72 -257 114 -261 137 -5 25 60 61 232 132 213
87 309 139 370 199 77 75 100 131 100 237 0 77 -3 93 -32 152 -44 89 -128 164
-280 251 -134 77 -187 121 -162 136 51 32 257 86 610 161 474 99 639 170 704
301 54 108 25 244 -67 324 -91 78 -205 122 -536 210 -135 35 -275 74 -311 86
-75 24 -160 65 -160 76 0 35 40 108 91 167 75 85 123 182 139 277 24 140 -4
234 -93 322 -65 63 -158 113 -375 199 -179 72 -252 110 -252 132 0 22 89 69
250 131 280 109 401 190 453 301 l22 48 3 748 2 747 1485 0 1485 0 0 -32 c0
-18 5 -345 10 -727 12 -765 12 -761 75 -843 65 -86 162 -139 482 -262 128 -49
188 -83 188 -105 0 -20 -84 -64 -267 -140 -205 -84 -289 -131 -353 -195 -74
-74 -98 -132 -98 -231 0 -137 49 -261 144 -365 52 -57 81 -105 93 -152 6 -25
2 -30 -41 -51 -63 -32 -197 -75 -427 -137 -337 -92 -459 -144 -545 -235 -61
-64 -87 -139 -77 -218 14 -105 76 -175 212 -239 104 -48 232 -82 605 -158 362
-73 539 -122 539 -149 0 -16 -54 -56 -181 -132 -143 -87 -225 -162 -265 -245
-24 -51 -28 -71 -29 -149 0 -76 4 -98 25 -140 53 -108 159 -182 399 -276 171
-67 261 -110 280 -132 10 -13 8 -19 -11 -37 -25 -24 -127 -74 -243 -120 -254
-101 -385 -200 -425 -324 -19 -60 -15 -178 10 -234 49 -111 109 -166 292 -270
131 -74 163 -97 177 -128 22 -50 -11 -81 -224 -210 -103 -62 -188 -146 -223
-221 -24 -51 -27 -70 -27 -158 0 -91 3 -105 30 -159 41 -82 128 -156 285 -246
184 -104 180 -98 181 -278 1 -81 4 -175 8 -209 l6 -62 68 46 c95 64 156 128
191 203 25 55 30 76 30 145 0 183 -76 283 -322 417 -93 51 -182 122 -182 146
0 27 70 86 182 154 150 91 224 157 269 240 33 61 34 67 34 173 0 103 -2 113
-29 162 -38 70 -123 149 -216 203 -218 126 -258 157 -245 192 9 23 99 72 235
128 272 113 383 188 437 298 24 48 28 69 27 137 0 71 -4 87 -34 144 -58 108
-148 167 -410 271 -223 89 -270 115 -270 151 0 24 56 70 164 134 119 70 206
135 240 180 68 89 98 204 76 294 -40 169 -217 253 -730 351 -281 54 -485 101
-563 132 -21 8 -25 13 -15 19 33 19 259 91 400 128 311 82 452 139 544 223 74
68 94 114 94 215 0 136 -46 249 -150 368 -29 33 -61 78 -71 100 -43 95 -26
110 268 230 257 106 357 175 410 283 23 47 28 70 27 132 0 101 -28 163 -104
233 -71 66 -159 112 -354 187 -85 33 -176 70 -203 83 -88 45 -80 -25 -88 765
-4 386 -5 702 -1 702 47 0 2360 182 2409 189 138 22 255 108 318 236 l34 70 0
265 0 265 -32 68 c-59 124 -177 215 -309 238 -32 5 -553 48 -1157 95 l-1099
84 -1991 -1 -1992 -1 -1115 -88z m6166 -299 c916 -72 1148 -92 1174 -106 52
-27 60 -62 60 -256 0 -191 -9 -228 -62 -255 -22 -12 -310 -37 -1176 -105
l-1147 -89 -1882 0 -1883 0 -1151 90 c-633 50 -1158 94 -1167 99 -9 5 -28 21
-42 36 -25 26 -25 30 -28 210 -4 209 5 244 63 272 24 11 316 38 1146 103
l1114 88 1920 1 1920 1 1141 -89z"/>
</g>
</svg>
